%TF.GenerationSoftware,KiCad,Pcbnew,(5.1.6)-1*%
%TF.CreationDate,2021-10-24T20:30:52+03:00*%
%TF.ProjectId,INTERVER_OSCILLATER,494e5445-5256-4455-925f-4f5343494c4c,0*%
%TF.SameCoordinates,Original*%
%TF.FileFunction,Copper,L1,Top*%
%TF.FilePolarity,Positive*%
%FSLAX46Y46*%
G04 Gerber Fmt 4.6, Leading zero omitted, Abs format (unit mm)*
G04 Created by KiCad (PCBNEW (5.1.6)-1) date 2021-10-24 20:30:52*
%MOMM*%
%LPD*%
G01*
G04 APERTURE LIST*
%TA.AperFunction,ComponentPad*%
%ADD10C,3.000000*%
%TD*%
%TA.AperFunction,ComponentPad*%
%ADD11R,1.980000X3.960000*%
%TD*%
%TA.AperFunction,ComponentPad*%
%ADD12O,1.980000X3.960000*%
%TD*%
%TA.AperFunction,ComponentPad*%
%ADD13R,1.600000X2.400000*%
%TD*%
%TA.AperFunction,ComponentPad*%
%ADD14O,1.600000X2.400000*%
%TD*%
%TA.AperFunction,ComponentPad*%
%ADD15R,1.800000X1.800000*%
%TD*%
%TA.AperFunction,ComponentPad*%
%ADD16C,1.800000*%
%TD*%
%TA.AperFunction,ComponentPad*%
%ADD17O,2.000000X1.905000*%
%TD*%
%TA.AperFunction,ComponentPad*%
%ADD18R,2.000000X1.905000*%
%TD*%
%TA.AperFunction,ComponentPad*%
%ADD19C,1.620000*%
%TD*%
%TA.AperFunction,ViaPad*%
%ADD20C,0.800000*%
%TD*%
%TA.AperFunction,Conductor*%
%ADD21C,0.580000*%
%TD*%
%TA.AperFunction,Conductor*%
%ADD22C,0.980000*%
%TD*%
%TA.AperFunction,Conductor*%
%ADD23C,0.280000*%
%TD*%
G04 APERTURE END LIST*
D10*
%TO.P,HS1,1*%
%TO.N,GND*%
X175750000Y-105650000D03*
X175750000Y-87850000D03*
%TD*%
%TO.P,HS2,1*%
%TO.N,GND*%
X136000000Y-105400000D03*
X136000000Y-87600000D03*
%TD*%
D11*
%TO.P,J1,1*%
%TO.N,/T_SIDE_1*%
X148000000Y-87000000D03*
D12*
%TO.P,J1,2*%
%TO.N,VCC*%
X153000000Y-87000000D03*
%TO.P,J1,4*%
%TO.N,/T_SIDE_2*%
X163000000Y-87000000D03*
%TO.P,J1,3*%
%TO.N,GND*%
X158000000Y-87000000D03*
%TD*%
%TO.P,R2,2*%
%TO.N,Net-(R2-Pad2)*%
%TA.AperFunction,SMDPad,CuDef*%
G36*
G01*
X144840000Y-98850000D02*
X144840000Y-98650000D01*
G75*
G02*
X144940000Y-98550000I100000J0D01*
G01*
X145200000Y-98550000D01*
G75*
G02*
X145300000Y-98650000I0J-100000D01*
G01*
X145300000Y-98850000D01*
G75*
G02*
X145200000Y-98950000I-100000J0D01*
G01*
X144940000Y-98950000D01*
G75*
G02*
X144840000Y-98850000I0J100000D01*
G01*
G37*
%TD.AperFunction*%
%TO.P,R2,1*%
%TO.N,Net-(Q2-Pad1)*%
%TA.AperFunction,SMDPad,CuDef*%
G36*
G01*
X144200000Y-98850000D02*
X144200000Y-98650000D01*
G75*
G02*
X144300000Y-98550000I100000J0D01*
G01*
X144560000Y-98550000D01*
G75*
G02*
X144660000Y-98650000I0J-100000D01*
G01*
X144660000Y-98850000D01*
G75*
G02*
X144560000Y-98950000I-100000J0D01*
G01*
X144300000Y-98950000D01*
G75*
G02*
X144200000Y-98850000I0J100000D01*
G01*
G37*
%TD.AperFunction*%
%TD*%
D13*
%TO.P,U1,1*%
%TO.N,Net-(C1-Pad1)*%
X164500000Y-96250000D03*
D14*
%TO.P,U1,8*%
%TO.N,GND*%
X149260000Y-103870000D03*
%TO.P,U1,2*%
%TO.N,Net-(RV1-Pad3)*%
X161960000Y-96250000D03*
%TO.P,U1,9*%
%TO.N,GND*%
X151800000Y-103870000D03*
%TO.P,U1,3*%
%TO.N,Net-(C1-Pad2)*%
X159420000Y-96250000D03*
%TO.P,U1,10*%
%TO.N,Net-(R2-Pad2)*%
X154340000Y-103870000D03*
%TO.P,U1,4*%
%TO.N,Net-(R1-Pad1)*%
X156880000Y-96250000D03*
%TO.P,U1,11*%
%TO.N,Net-(R3-Pad2)*%
X156880000Y-103870000D03*
%TO.P,U1,5*%
%TO.N,Net-(R1-Pad1)*%
X154340000Y-96250000D03*
%TO.P,U1,12*%
%TO.N,GND*%
X159420000Y-103870000D03*
%TO.P,U1,6*%
%TO.N,Net-(R1-Pad1)*%
X151800000Y-96250000D03*
%TO.P,U1,13*%
%TO.N,Net-(U1-Pad13)*%
X161960000Y-103870000D03*
%TO.P,U1,7*%
%TO.N,GND*%
X149260000Y-96250000D03*
%TO.P,U1,14*%
%TO.N,Net-(R1-Pad1)*%
X164500000Y-103870000D03*
%TD*%
%TO.P,C1,1*%
%TO.N,Net-(C1-Pad1)*%
%TA.AperFunction,SMDPad,CuDef*%
G36*
G01*
X162145000Y-93650000D02*
X162145000Y-93850000D01*
G75*
G02*
X162045000Y-93950000I-100000J0D01*
G01*
X161785000Y-93950000D01*
G75*
G02*
X161685000Y-93850000I0J100000D01*
G01*
X161685000Y-93650000D01*
G75*
G02*
X161785000Y-93550000I100000J0D01*
G01*
X162045000Y-93550000D01*
G75*
G02*
X162145000Y-93650000I0J-100000D01*
G01*
G37*
%TD.AperFunction*%
%TO.P,C1,2*%
%TO.N,Net-(C1-Pad2)*%
%TA.AperFunction,SMDPad,CuDef*%
G36*
G01*
X161505000Y-93650000D02*
X161505000Y-93850000D01*
G75*
G02*
X161405000Y-93950000I-100000J0D01*
G01*
X161145000Y-93950000D01*
G75*
G02*
X161045000Y-93850000I0J100000D01*
G01*
X161045000Y-93650000D01*
G75*
G02*
X161145000Y-93550000I100000J0D01*
G01*
X161405000Y-93550000D01*
G75*
G02*
X161505000Y-93650000I0J-100000D01*
G01*
G37*
%TD.AperFunction*%
%TD*%
D15*
%TO.P,D1,1*%
%TO.N,GND*%
X161250000Y-109250000D03*
D16*
%TO.P,D1,2*%
%TO.N,Net-(D1-Pad2)*%
X163790000Y-109250000D03*
%TD*%
D17*
%TO.P,Q1,3*%
%TO.N,GND*%
X174600000Y-99040000D03*
%TO.P,Q1,2*%
%TO.N,/T_SIDE_2*%
X174600000Y-96500000D03*
D18*
%TO.P,Q1,1*%
%TO.N,Net-(Q1-Pad1)*%
X174600000Y-93960000D03*
%TD*%
%TO.P,Q2,1*%
%TO.N,Net-(Q2-Pad1)*%
X137200000Y-98900000D03*
D17*
%TO.P,Q2,2*%
%TO.N,/T_SIDE_1*%
X137200000Y-96360000D03*
%TO.P,Q2,3*%
%TO.N,GND*%
X137200000Y-93820000D03*
%TD*%
%TO.P,R1,1*%
%TO.N,Net-(R1-Pad1)*%
%TA.AperFunction,SMDPad,CuDef*%
G36*
G01*
X151900000Y-94650000D02*
X151700000Y-94650000D01*
G75*
G02*
X151600000Y-94550000I0J100000D01*
G01*
X151600000Y-94290000D01*
G75*
G02*
X151700000Y-94190000I100000J0D01*
G01*
X151900000Y-94190000D01*
G75*
G02*
X152000000Y-94290000I0J-100000D01*
G01*
X152000000Y-94550000D01*
G75*
G02*
X151900000Y-94650000I-100000J0D01*
G01*
G37*
%TD.AperFunction*%
%TO.P,R1,2*%
%TO.N,VCC*%
%TA.AperFunction,SMDPad,CuDef*%
G36*
G01*
X151900000Y-94010000D02*
X151700000Y-94010000D01*
G75*
G02*
X151600000Y-93910000I0J100000D01*
G01*
X151600000Y-93650000D01*
G75*
G02*
X151700000Y-93550000I100000J0D01*
G01*
X151900000Y-93550000D01*
G75*
G02*
X152000000Y-93650000I0J-100000D01*
G01*
X152000000Y-93910000D01*
G75*
G02*
X151900000Y-94010000I-100000J0D01*
G01*
G37*
%TD.AperFunction*%
%TD*%
%TO.P,R3,1*%
%TO.N,Net-(Q1-Pad1)*%
%TA.AperFunction,SMDPad,CuDef*%
G36*
G01*
X170300000Y-93900000D02*
X170300000Y-94100000D01*
G75*
G02*
X170200000Y-94200000I-100000J0D01*
G01*
X169940000Y-94200000D01*
G75*
G02*
X169840000Y-94100000I0J100000D01*
G01*
X169840000Y-93900000D01*
G75*
G02*
X169940000Y-93800000I100000J0D01*
G01*
X170200000Y-93800000D01*
G75*
G02*
X170300000Y-93900000I0J-100000D01*
G01*
G37*
%TD.AperFunction*%
%TO.P,R3,2*%
%TO.N,Net-(R3-Pad2)*%
%TA.AperFunction,SMDPad,CuDef*%
G36*
G01*
X169660000Y-93900000D02*
X169660000Y-94100000D01*
G75*
G02*
X169560000Y-94200000I-100000J0D01*
G01*
X169300000Y-94200000D01*
G75*
G02*
X169200000Y-94100000I0J100000D01*
G01*
X169200000Y-93900000D01*
G75*
G02*
X169300000Y-93800000I100000J0D01*
G01*
X169560000Y-93800000D01*
G75*
G02*
X169660000Y-93900000I0J-100000D01*
G01*
G37*
%TD.AperFunction*%
%TD*%
%TO.P,R4,2*%
%TO.N,VCC*%
%TA.AperFunction,SMDPad,CuDef*%
G36*
G01*
X164100000Y-106530000D02*
X163900000Y-106530000D01*
G75*
G02*
X163800000Y-106430000I0J100000D01*
G01*
X163800000Y-106170000D01*
G75*
G02*
X163900000Y-106070000I100000J0D01*
G01*
X164100000Y-106070000D01*
G75*
G02*
X164200000Y-106170000I0J-100000D01*
G01*
X164200000Y-106430000D01*
G75*
G02*
X164100000Y-106530000I-100000J0D01*
G01*
G37*
%TD.AperFunction*%
%TO.P,R4,1*%
%TO.N,Net-(D1-Pad2)*%
%TA.AperFunction,SMDPad,CuDef*%
G36*
G01*
X164100000Y-107170000D02*
X163900000Y-107170000D01*
G75*
G02*
X163800000Y-107070000I0J100000D01*
G01*
X163800000Y-106810000D01*
G75*
G02*
X163900000Y-106710000I100000J0D01*
G01*
X164100000Y-106710000D01*
G75*
G02*
X164200000Y-106810000I0J-100000D01*
G01*
X164200000Y-107070000D01*
G75*
G02*
X164100000Y-107170000I-100000J0D01*
G01*
G37*
%TD.AperFunction*%
%TD*%
D19*
%TO.P,RV1,3*%
%TO.N,Net-(RV1-Pad3)*%
X151000000Y-108250000D03*
%TO.P,RV1,2*%
%TO.N,Net-(C1-Pad2)*%
X153500000Y-110750000D03*
%TO.P,RV1,1*%
X156000000Y-108250000D03*
%TD*%
D20*
%TO.N,VCC*%
X167500000Y-106500000D03*
X165500000Y-106000000D03*
%TO.N,Net-(R2-Pad2)*%
X146250000Y-98750000D03*
%TO.N,Net-(R3-Pad2)*%
X168750000Y-98750000D03*
%TD*%
D21*
%TO.N,Net-(C1-Pad1)*%
X163780000Y-93750000D02*
X161995010Y-93750000D01*
X164500000Y-96250000D02*
X164500000Y-94470000D01*
X164500000Y-94470000D02*
X163780000Y-93750000D01*
D22*
%TO.N,Net-(C1-Pad2)*%
X153500000Y-110750000D02*
X156000000Y-108250000D01*
D21*
X160140000Y-93750000D02*
X161194990Y-93750000D01*
X159420000Y-96250000D02*
X159420000Y-94470000D01*
X159420000Y-94470000D02*
X160140000Y-93750000D01*
%TO.N,GND*%
X146680000Y-93670000D02*
X149260000Y-96250000D01*
X141250000Y-93670000D02*
X146680000Y-93670000D01*
D22*
X149260000Y-96250000D02*
X149260000Y-103870000D01*
X149260000Y-103870000D02*
X151800000Y-103870000D01*
X151800000Y-103870000D02*
X151800000Y-102200000D01*
X151800000Y-102200000D02*
X152500000Y-101500000D01*
X152500000Y-101500000D02*
X158250000Y-101500000D01*
X159420000Y-102670000D02*
X159420000Y-103870000D01*
X158250000Y-101500000D02*
X159420000Y-102670000D01*
X159420000Y-107420000D02*
X161250000Y-109250000D01*
X159420000Y-103870000D02*
X159420000Y-107420000D01*
D21*
X141250000Y-93670000D02*
X137350000Y-93670000D01*
%TO.N,Net-(D1-Pad2)*%
X163790000Y-107230010D02*
X164000000Y-107020010D01*
X163790000Y-109250000D02*
X163790000Y-107230010D01*
%TO.N,VCC*%
X151800000Y-91100000D02*
X151800000Y-93699990D01*
X153000000Y-87000000D02*
X153000000Y-89900000D01*
X153000000Y-89900000D02*
X151800000Y-91100000D01*
X161033100Y-89900000D02*
X167500000Y-96366900D01*
X153000000Y-89900000D02*
X161033100Y-89900000D01*
X167500000Y-96366900D02*
X167500000Y-106500000D01*
X164219990Y-106000000D02*
X164000000Y-106219990D01*
X165500000Y-106000000D02*
X164219990Y-106000000D01*
%TO.N,Net-(Q1-Pad1)*%
X174600000Y-93960000D02*
X174600000Y-93900000D01*
X170210009Y-93900000D02*
X170210009Y-94000000D01*
X174600000Y-93900000D02*
X170210009Y-93900000D01*
D22*
%TO.N,Net-(R1-Pad1)*%
X156880000Y-96250000D02*
X154340000Y-96250000D01*
X154340000Y-96250000D02*
X151800000Y-96250000D01*
X156880000Y-98430000D02*
X157950000Y-99500000D01*
X156880000Y-96250000D02*
X156880000Y-98430000D01*
X157950000Y-99500000D02*
X163250000Y-99500000D01*
X164500000Y-100750000D02*
X164500000Y-103870000D01*
X163250000Y-99500000D02*
X164500000Y-100750000D01*
D21*
X151800000Y-96250000D02*
X151800000Y-94500010D01*
D23*
%TO.N,Net-(R2-Pad2)*%
X146250000Y-98750000D02*
X145070000Y-98750000D01*
D21*
%TO.N,Net-(R3-Pad2)*%
X168750000Y-98750000D02*
X168750000Y-94680000D01*
X168750000Y-94680000D02*
X169430000Y-94000000D01*
%TO.N,Net-(RV1-Pad3)*%
X161960000Y-96650000D02*
X166600000Y-101290000D01*
X161960000Y-96250000D02*
X161960000Y-96650000D01*
X166600000Y-101290000D02*
X166600000Y-109500000D01*
X166600000Y-109500000D02*
X164000000Y-112100000D01*
X164000000Y-112100000D02*
X151600000Y-112100000D01*
X151000000Y-111500000D02*
X151000000Y-108250000D01*
X151600000Y-112100000D02*
X151000000Y-111500000D01*
%TO.N,Net-(Q2-Pad1)*%
X137350000Y-98750000D02*
X137200000Y-98900000D01*
X144430000Y-98750000D02*
X137350000Y-98750000D01*
%TD*%
M02*
