%TF.GenerationSoftware,KiCad,Pcbnew,(5.1.6)-1*%
%TF.CreationDate,2021-10-24T20:30:52+03:00*%
%TF.ProjectId,INTERVER_OSCILLATER,494e5445-5256-4455-925f-4f5343494c4c,0*%
%TF.SameCoordinates,Original*%
%TF.FileFunction,Copper,L2,Bot*%
%TF.FilePolarity,Positive*%
%FSLAX46Y46*%
G04 Gerber Fmt 4.6, Leading zero omitted, Abs format (unit mm)*
G04 Created by KiCad (PCBNEW (5.1.6)-1) date 2021-10-24 20:30:52*
%MOMM*%
%LPD*%
G01*
G04 APERTURE LIST*
%TA.AperFunction,ComponentPad*%
%ADD10C,3.000000*%
%TD*%
%TA.AperFunction,ComponentPad*%
%ADD11R,1.980000X3.960000*%
%TD*%
%TA.AperFunction,ComponentPad*%
%ADD12O,1.980000X3.960000*%
%TD*%
%TA.AperFunction,ComponentPad*%
%ADD13R,1.600000X2.400000*%
%TD*%
%TA.AperFunction,ComponentPad*%
%ADD14O,1.600000X2.400000*%
%TD*%
%TA.AperFunction,ComponentPad*%
%ADD15R,1.800000X1.800000*%
%TD*%
%TA.AperFunction,ComponentPad*%
%ADD16C,1.800000*%
%TD*%
%TA.AperFunction,ComponentPad*%
%ADD17O,2.000000X1.905000*%
%TD*%
%TA.AperFunction,ComponentPad*%
%ADD18R,2.000000X1.905000*%
%TD*%
%TA.AperFunction,ComponentPad*%
%ADD19C,1.620000*%
%TD*%
%TA.AperFunction,ViaPad*%
%ADD20C,0.800000*%
%TD*%
%TA.AperFunction,Conductor*%
%ADD21C,0.580000*%
%TD*%
%TA.AperFunction,Conductor*%
%ADD22C,2.000000*%
%TD*%
%TA.AperFunction,Conductor*%
%ADD23C,0.254000*%
%TD*%
G04 APERTURE END LIST*
D10*
%TO.P,HS1,1*%
%TO.N,GND*%
X175750000Y-105650000D03*
X175750000Y-87850000D03*
%TD*%
%TO.P,HS2,1*%
%TO.N,GND*%
X136000000Y-105400000D03*
X136000000Y-87600000D03*
%TD*%
D11*
%TO.P,J1,1*%
%TO.N,/T_SIDE_1*%
X148000000Y-87000000D03*
D12*
%TO.P,J1,2*%
%TO.N,VCC*%
X153000000Y-87000000D03*
%TO.P,J1,4*%
%TO.N,/T_SIDE_2*%
X163000000Y-87000000D03*
%TO.P,J1,3*%
%TO.N,GND*%
X158000000Y-87000000D03*
%TD*%
D13*
%TO.P,U1,1*%
%TO.N,Net-(C1-Pad1)*%
X164500000Y-96250000D03*
D14*
%TO.P,U1,8*%
%TO.N,GND*%
X149260000Y-103870000D03*
%TO.P,U1,2*%
%TO.N,Net-(RV1-Pad3)*%
X161960000Y-96250000D03*
%TO.P,U1,9*%
%TO.N,GND*%
X151800000Y-103870000D03*
%TO.P,U1,3*%
%TO.N,Net-(C1-Pad2)*%
X159420000Y-96250000D03*
%TO.P,U1,10*%
%TO.N,Net-(R2-Pad2)*%
X154340000Y-103870000D03*
%TO.P,U1,4*%
%TO.N,Net-(R1-Pad1)*%
X156880000Y-96250000D03*
%TO.P,U1,11*%
%TO.N,Net-(R3-Pad2)*%
X156880000Y-103870000D03*
%TO.P,U1,5*%
%TO.N,Net-(R1-Pad1)*%
X154340000Y-96250000D03*
%TO.P,U1,12*%
%TO.N,GND*%
X159420000Y-103870000D03*
%TO.P,U1,6*%
%TO.N,Net-(R1-Pad1)*%
X151800000Y-96250000D03*
%TO.P,U1,13*%
%TO.N,Net-(U1-Pad13)*%
X161960000Y-103870000D03*
%TO.P,U1,7*%
%TO.N,GND*%
X149260000Y-96250000D03*
%TO.P,U1,14*%
%TO.N,Net-(R1-Pad1)*%
X164500000Y-103870000D03*
%TD*%
D15*
%TO.P,D1,1*%
%TO.N,GND*%
X161250000Y-109250000D03*
D16*
%TO.P,D1,2*%
%TO.N,Net-(D1-Pad2)*%
X163790000Y-109250000D03*
%TD*%
D17*
%TO.P,Q1,3*%
%TO.N,GND*%
X174600000Y-99040000D03*
%TO.P,Q1,2*%
%TO.N,/T_SIDE_2*%
X174600000Y-96500000D03*
D18*
%TO.P,Q1,1*%
%TO.N,Net-(Q1-Pad1)*%
X174600000Y-93960000D03*
%TD*%
%TO.P,Q2,1*%
%TO.N,Net-(Q2-Pad1)*%
X137200000Y-98900000D03*
D17*
%TO.P,Q2,2*%
%TO.N,/T_SIDE_1*%
X137200000Y-96360000D03*
%TO.P,Q2,3*%
%TO.N,GND*%
X137200000Y-93820000D03*
%TD*%
D19*
%TO.P,RV1,3*%
%TO.N,Net-(RV1-Pad3)*%
X151000000Y-108250000D03*
%TO.P,RV1,2*%
%TO.N,Net-(C1-Pad2)*%
X153500000Y-110750000D03*
%TO.P,RV1,1*%
X156000000Y-108250000D03*
%TD*%
D20*
%TO.N,VCC*%
X167500000Y-106500000D03*
X165500000Y-106000000D03*
%TO.N,Net-(R2-Pad2)*%
X146250000Y-98750000D03*
%TO.N,Net-(R3-Pad2)*%
X168750000Y-98750000D03*
%TD*%
D21*
%TO.N,Net-(C1-Pad2)*%
X159420000Y-96250000D02*
X159420000Y-94520000D01*
X159420000Y-94520000D02*
X158400000Y-93500000D01*
X158400000Y-93500000D02*
X148800000Y-93500000D01*
X148800000Y-93500000D02*
X145000000Y-97300000D01*
X145000000Y-97300000D02*
X145000000Y-104900000D01*
X145000000Y-104900000D02*
X146400000Y-106300000D01*
X154050000Y-106300000D02*
X156000000Y-108250000D01*
X146400000Y-106300000D02*
X154050000Y-106300000D01*
D22*
%TO.N,GND*%
X137350000Y-93670000D02*
X137200000Y-93820000D01*
X177249999Y-104150001D02*
X175750000Y-105650000D01*
X175750000Y-87850000D02*
X177249999Y-89349999D01*
X176740000Y-99040000D02*
X177249999Y-99549999D01*
X174600000Y-99040000D02*
X176740000Y-99040000D01*
X177249999Y-89349999D02*
X177249999Y-99549999D01*
X177249999Y-99549999D02*
X177249999Y-104150001D01*
X134500001Y-89099999D02*
X136000000Y-87600000D01*
X136000000Y-105400000D02*
X134500001Y-103900001D01*
X134880000Y-93820000D02*
X134500001Y-94199999D01*
X137200000Y-93820000D02*
X134880000Y-93820000D01*
X134500001Y-103900001D02*
X134500001Y-94199999D01*
X134500001Y-94199999D02*
X134500001Y-89099999D01*
D21*
X159739999Y-100350001D02*
X159420000Y-100670000D01*
X159420000Y-100670000D02*
X159420000Y-103870000D01*
X173289999Y-100350001D02*
X159739999Y-100350001D01*
X174600000Y-99040000D02*
X173289999Y-100350001D01*
D22*
X136000000Y-87600000D02*
X140600000Y-83000000D01*
X170900000Y-83000000D02*
X175750000Y-87850000D01*
X158000000Y-83500000D02*
X158500000Y-83000000D01*
X158000000Y-87000000D02*
X158000000Y-83500000D01*
X140600000Y-83000000D02*
X158500000Y-83000000D01*
X158500000Y-83000000D02*
X170900000Y-83000000D01*
%TO.N,/T_SIDE_1*%
X148000000Y-87000000D02*
X148000000Y-90700000D01*
X142340000Y-96360000D02*
X137200000Y-96360000D01*
X148000000Y-90700000D02*
X142340000Y-96360000D01*
D21*
%TO.N,VCC*%
X167500000Y-106500000D02*
X166000000Y-106500000D01*
X166000000Y-106500000D02*
X165500000Y-106000000D01*
D22*
%TO.N,/T_SIDE_2*%
X163000000Y-87000000D02*
X163000000Y-89100000D01*
X170400000Y-96500000D02*
X174600000Y-96500000D01*
X163000000Y-89100000D02*
X170400000Y-96500000D01*
D21*
%TO.N,Net-(R2-Pad2)*%
X154340000Y-100340000D02*
X154340000Y-103870000D01*
X152750000Y-98750000D02*
X154340000Y-100340000D01*
X146250000Y-98750000D02*
X152750000Y-98750000D01*
%TO.N,Net-(R3-Pad2)*%
X158750000Y-98750000D02*
X168750000Y-98750000D01*
X156880000Y-100620000D02*
X158750000Y-98750000D01*
X156880000Y-103870000D02*
X156880000Y-100620000D01*
%TD*%
D23*
%TO.N,GND*%
G36*
X180340000Y-91032418D02*
G01*
X180349550Y-91129382D01*
X180373000Y-91206685D01*
X180373000Y-94500000D01*
X180375440Y-94524776D01*
X180382667Y-94548601D01*
X180394403Y-94570557D01*
X180410197Y-94589803D01*
X180429443Y-94605597D01*
X180451399Y-94617333D01*
X180475224Y-94624560D01*
X180500000Y-94627000D01*
X182078990Y-94627000D01*
X181699225Y-94880751D01*
X181319199Y-95260777D01*
X181020614Y-95707641D01*
X180814945Y-96204169D01*
X180710096Y-96731281D01*
X180710096Y-97268719D01*
X180814945Y-97795831D01*
X181020614Y-98292359D01*
X181319199Y-98739223D01*
X181699225Y-99119249D01*
X182078990Y-99373000D01*
X180500000Y-99373000D01*
X180475224Y-99375440D01*
X180451399Y-99382667D01*
X180429443Y-99394403D01*
X180410197Y-99410197D01*
X180394403Y-99429443D01*
X180382667Y-99451399D01*
X180375440Y-99475224D01*
X180373000Y-99500000D01*
X180373000Y-102793315D01*
X180349550Y-102870618D01*
X180340000Y-102967582D01*
X180340001Y-114340000D01*
X130160000Y-114340000D01*
X130160000Y-110607680D01*
X152055000Y-110607680D01*
X152055000Y-110892320D01*
X152110530Y-111171491D01*
X152219457Y-111434464D01*
X152377595Y-111671134D01*
X152578866Y-111872405D01*
X152815536Y-112030543D01*
X153078509Y-112139470D01*
X153357680Y-112195000D01*
X153642320Y-112195000D01*
X153921491Y-112139470D01*
X154184464Y-112030543D01*
X154421134Y-111872405D01*
X154622405Y-111671134D01*
X154780543Y-111434464D01*
X154889470Y-111171491D01*
X154945000Y-110892320D01*
X154945000Y-110607680D01*
X154889470Y-110328509D01*
X154815530Y-110150000D01*
X159711928Y-110150000D01*
X159724188Y-110274482D01*
X159760498Y-110394180D01*
X159819463Y-110504494D01*
X159898815Y-110601185D01*
X159995506Y-110680537D01*
X160105820Y-110739502D01*
X160225518Y-110775812D01*
X160350000Y-110788072D01*
X160964250Y-110785000D01*
X161123000Y-110626250D01*
X161123000Y-109377000D01*
X159873750Y-109377000D01*
X159715000Y-109535750D01*
X159711928Y-110150000D01*
X154815530Y-110150000D01*
X154780543Y-110065536D01*
X154622405Y-109828866D01*
X154421134Y-109627595D01*
X154184464Y-109469457D01*
X153921491Y-109360530D01*
X153642320Y-109305000D01*
X153357680Y-109305000D01*
X153078509Y-109360530D01*
X152815536Y-109469457D01*
X152578866Y-109627595D01*
X152377595Y-109828866D01*
X152219457Y-110065536D01*
X152110530Y-110328509D01*
X152055000Y-110607680D01*
X130160000Y-110607680D01*
X130160000Y-106891653D01*
X134687952Y-106891653D01*
X134843962Y-107207214D01*
X135218745Y-107398020D01*
X135623551Y-107512044D01*
X136042824Y-107544902D01*
X136460451Y-107495334D01*
X136860383Y-107365243D01*
X137156038Y-107207214D01*
X137312048Y-106891653D01*
X136000000Y-105579605D01*
X134687952Y-106891653D01*
X130160000Y-106891653D01*
X130160000Y-105442824D01*
X133855098Y-105442824D01*
X133904666Y-105860451D01*
X134034757Y-106260383D01*
X134192786Y-106556038D01*
X134508347Y-106712048D01*
X135820395Y-105400000D01*
X136179605Y-105400000D01*
X137491653Y-106712048D01*
X137807214Y-106556038D01*
X137998020Y-106181255D01*
X138112044Y-105776449D01*
X138144902Y-105357176D01*
X138095334Y-104939549D01*
X137965243Y-104539617D01*
X137807214Y-104243962D01*
X137491653Y-104087952D01*
X136179605Y-105400000D01*
X135820395Y-105400000D01*
X134508347Y-104087952D01*
X134192786Y-104243962D01*
X134001980Y-104618745D01*
X133887956Y-105023551D01*
X133855098Y-105442824D01*
X130160000Y-105442824D01*
X130160000Y-103908347D01*
X134687952Y-103908347D01*
X136000000Y-105220395D01*
X137312048Y-103908347D01*
X137156038Y-103592786D01*
X136781255Y-103401980D01*
X136376449Y-103287956D01*
X135957176Y-103255098D01*
X135539549Y-103304666D01*
X135139617Y-103434757D01*
X134843962Y-103592786D01*
X134687952Y-103908347D01*
X130160000Y-103908347D01*
X130160000Y-102967581D01*
X130150450Y-102870617D01*
X130127000Y-102793314D01*
X130127000Y-99500000D01*
X130124560Y-99475224D01*
X130117333Y-99451399D01*
X130105597Y-99429443D01*
X130089803Y-99410197D01*
X130070557Y-99394403D01*
X130048601Y-99382667D01*
X130024776Y-99375440D01*
X130000000Y-99373000D01*
X128359458Y-99373000D01*
X128739223Y-99119249D01*
X129119249Y-98739223D01*
X129417834Y-98292359D01*
X129623503Y-97795831D01*
X129728352Y-97268719D01*
X129728352Y-96731281D01*
X129654500Y-96360000D01*
X135557089Y-96360000D01*
X135588657Y-96680516D01*
X135682148Y-96988715D01*
X135833969Y-97272752D01*
X135919751Y-97377278D01*
X135845506Y-97416963D01*
X135748815Y-97496315D01*
X135669463Y-97593006D01*
X135610498Y-97703320D01*
X135574188Y-97823018D01*
X135561928Y-97947500D01*
X135561928Y-99852500D01*
X135574188Y-99976982D01*
X135610498Y-100096680D01*
X135669463Y-100206994D01*
X135748815Y-100303685D01*
X135845506Y-100383037D01*
X135955820Y-100442002D01*
X136075518Y-100478312D01*
X136200000Y-100490572D01*
X138200000Y-100490572D01*
X138324482Y-100478312D01*
X138444180Y-100442002D01*
X138554494Y-100383037D01*
X138651185Y-100303685D01*
X138730537Y-100206994D01*
X138789502Y-100096680D01*
X138825812Y-99976982D01*
X138838072Y-99852500D01*
X138838072Y-97995000D01*
X142259681Y-97995000D01*
X142340000Y-98002911D01*
X142420319Y-97995000D01*
X142420322Y-97995000D01*
X142660516Y-97971343D01*
X142968715Y-97877852D01*
X143252752Y-97726031D01*
X143501714Y-97521714D01*
X143552925Y-97459313D01*
X144225498Y-96786740D01*
X144141277Y-96944306D01*
X144088385Y-97118669D01*
X144075000Y-97254566D01*
X144075000Y-97254573D01*
X144070526Y-97300000D01*
X144075000Y-97345427D01*
X144075001Y-104854563D01*
X144070526Y-104900000D01*
X144088385Y-105081331D01*
X144141277Y-105255694D01*
X144227170Y-105416388D01*
X144313799Y-105521946D01*
X144313802Y-105521949D01*
X144342763Y-105557238D01*
X144378052Y-105586199D01*
X145713801Y-106921949D01*
X145742762Y-106957238D01*
X145778051Y-106986199D01*
X145778053Y-106986201D01*
X145837515Y-107035000D01*
X145883611Y-107072830D01*
X146044305Y-107158723D01*
X146218668Y-107211615D01*
X146354565Y-107225000D01*
X146354573Y-107225000D01*
X146400000Y-107229474D01*
X146445427Y-107225000D01*
X149981461Y-107225000D01*
X149877595Y-107328866D01*
X149719457Y-107565536D01*
X149610530Y-107828509D01*
X149555000Y-108107680D01*
X149555000Y-108392320D01*
X149610530Y-108671491D01*
X149719457Y-108934464D01*
X149877595Y-109171134D01*
X150078866Y-109372405D01*
X150315536Y-109530543D01*
X150578509Y-109639470D01*
X150857680Y-109695000D01*
X151142320Y-109695000D01*
X151421491Y-109639470D01*
X151684464Y-109530543D01*
X151921134Y-109372405D01*
X152122405Y-109171134D01*
X152280543Y-108934464D01*
X152389470Y-108671491D01*
X152445000Y-108392320D01*
X152445000Y-108107680D01*
X152389470Y-107828509D01*
X152280543Y-107565536D01*
X152122405Y-107328866D01*
X152018539Y-107225000D01*
X153666853Y-107225000D01*
X154555000Y-108113147D01*
X154555000Y-108392320D01*
X154610530Y-108671491D01*
X154719457Y-108934464D01*
X154877595Y-109171134D01*
X155078866Y-109372405D01*
X155315536Y-109530543D01*
X155578509Y-109639470D01*
X155857680Y-109695000D01*
X156142320Y-109695000D01*
X156421491Y-109639470D01*
X156684464Y-109530543D01*
X156921134Y-109372405D01*
X157122405Y-109171134D01*
X157280543Y-108934464D01*
X157389470Y-108671491D01*
X157445000Y-108392320D01*
X157445000Y-108350000D01*
X159711928Y-108350000D01*
X159715000Y-108964250D01*
X159873750Y-109123000D01*
X161123000Y-109123000D01*
X161123000Y-107873750D01*
X161377000Y-107873750D01*
X161377000Y-109123000D01*
X161397000Y-109123000D01*
X161397000Y-109377000D01*
X161377000Y-109377000D01*
X161377000Y-110626250D01*
X161535750Y-110785000D01*
X162150000Y-110788072D01*
X162274482Y-110775812D01*
X162394180Y-110739502D01*
X162504494Y-110680537D01*
X162601185Y-110601185D01*
X162680537Y-110504494D01*
X162739502Y-110394180D01*
X162745056Y-110375873D01*
X162811495Y-110442312D01*
X163062905Y-110610299D01*
X163342257Y-110726011D01*
X163638816Y-110785000D01*
X163941184Y-110785000D01*
X164237743Y-110726011D01*
X164517095Y-110610299D01*
X164768505Y-110442312D01*
X164982312Y-110228505D01*
X165150299Y-109977095D01*
X165266011Y-109697743D01*
X165325000Y-109401184D01*
X165325000Y-109098816D01*
X165266011Y-108802257D01*
X165150299Y-108522905D01*
X164982312Y-108271495D01*
X164768505Y-108057688D01*
X164517095Y-107889701D01*
X164237743Y-107773989D01*
X163941184Y-107715000D01*
X163638816Y-107715000D01*
X163342257Y-107773989D01*
X163062905Y-107889701D01*
X162811495Y-108057688D01*
X162745056Y-108124127D01*
X162739502Y-108105820D01*
X162680537Y-107995506D01*
X162601185Y-107898815D01*
X162504494Y-107819463D01*
X162394180Y-107760498D01*
X162274482Y-107724188D01*
X162150000Y-107711928D01*
X161535750Y-107715000D01*
X161377000Y-107873750D01*
X161123000Y-107873750D01*
X160964250Y-107715000D01*
X160350000Y-107711928D01*
X160225518Y-107724188D01*
X160105820Y-107760498D01*
X159995506Y-107819463D01*
X159898815Y-107898815D01*
X159819463Y-107995506D01*
X159760498Y-108105820D01*
X159724188Y-108225518D01*
X159711928Y-108350000D01*
X157445000Y-108350000D01*
X157445000Y-108107680D01*
X157389470Y-107828509D01*
X157280543Y-107565536D01*
X157122405Y-107328866D01*
X156921134Y-107127595D01*
X156684464Y-106969457D01*
X156421491Y-106860530D01*
X156142320Y-106805000D01*
X155863147Y-106805000D01*
X154736204Y-105678057D01*
X154717362Y-105655099D01*
X154891807Y-105602182D01*
X155141100Y-105468932D01*
X155359607Y-105289608D01*
X155538932Y-105071101D01*
X155610000Y-104938142D01*
X155681068Y-105071100D01*
X155860392Y-105289607D01*
X156078899Y-105468932D01*
X156328192Y-105602182D01*
X156598691Y-105684236D01*
X156880000Y-105711943D01*
X157161308Y-105684236D01*
X157431807Y-105602182D01*
X157681100Y-105468932D01*
X157899607Y-105289608D01*
X158078932Y-105071101D01*
X158147265Y-104943259D01*
X158297399Y-105172839D01*
X158495105Y-105374500D01*
X158728354Y-105533715D01*
X158988182Y-105644367D01*
X159070961Y-105661904D01*
X159293000Y-105539915D01*
X159293000Y-103997000D01*
X159273000Y-103997000D01*
X159273000Y-103743000D01*
X159293000Y-103743000D01*
X159293000Y-102200085D01*
X159547000Y-102200085D01*
X159547000Y-103743000D01*
X159567000Y-103743000D01*
X159567000Y-103997000D01*
X159547000Y-103997000D01*
X159547000Y-105539915D01*
X159769039Y-105661904D01*
X159851818Y-105644367D01*
X160111646Y-105533715D01*
X160344895Y-105374500D01*
X160542601Y-105172839D01*
X160692735Y-104943258D01*
X160761068Y-105071100D01*
X160940392Y-105289607D01*
X161158899Y-105468932D01*
X161408192Y-105602182D01*
X161678691Y-105684236D01*
X161960000Y-105711943D01*
X162241308Y-105684236D01*
X162511807Y-105602182D01*
X162761100Y-105468932D01*
X162979607Y-105289608D01*
X163158932Y-105071101D01*
X163230000Y-104938142D01*
X163301068Y-105071100D01*
X163480392Y-105289607D01*
X163698899Y-105468932D01*
X163948192Y-105602182D01*
X164218691Y-105684236D01*
X164500000Y-105711943D01*
X164502061Y-105711740D01*
X164465000Y-105898061D01*
X164465000Y-106101939D01*
X164504774Y-106301898D01*
X164582795Y-106490256D01*
X164696063Y-106659774D01*
X164840226Y-106803937D01*
X165009744Y-106917205D01*
X165179284Y-106987431D01*
X165313796Y-107121943D01*
X165342762Y-107157238D01*
X165483611Y-107272830D01*
X165588447Y-107328866D01*
X165644305Y-107358723D01*
X165818668Y-107411615D01*
X166000000Y-107429475D01*
X166045434Y-107425000D01*
X167028563Y-107425000D01*
X167198102Y-107495226D01*
X167398061Y-107535000D01*
X167601939Y-107535000D01*
X167801898Y-107495226D01*
X167990256Y-107417205D01*
X168159774Y-107303937D01*
X168303937Y-107159774D01*
X168316045Y-107141653D01*
X174437952Y-107141653D01*
X174593962Y-107457214D01*
X174968745Y-107648020D01*
X175373551Y-107762044D01*
X175792824Y-107794902D01*
X176210451Y-107745334D01*
X176610383Y-107615243D01*
X176906038Y-107457214D01*
X177062048Y-107141653D01*
X175750000Y-105829605D01*
X174437952Y-107141653D01*
X168316045Y-107141653D01*
X168417205Y-106990256D01*
X168495226Y-106801898D01*
X168535000Y-106601939D01*
X168535000Y-106398061D01*
X168495226Y-106198102D01*
X168417205Y-106009744D01*
X168303937Y-105840226D01*
X168159774Y-105696063D01*
X168154927Y-105692824D01*
X173605098Y-105692824D01*
X173654666Y-106110451D01*
X173784757Y-106510383D01*
X173942786Y-106806038D01*
X174258347Y-106962048D01*
X175570395Y-105650000D01*
X175929605Y-105650000D01*
X177241653Y-106962048D01*
X177557214Y-106806038D01*
X177748020Y-106431255D01*
X177862044Y-106026449D01*
X177894902Y-105607176D01*
X177845334Y-105189549D01*
X177715243Y-104789617D01*
X177557214Y-104493962D01*
X177241653Y-104337952D01*
X175929605Y-105650000D01*
X175570395Y-105650000D01*
X174258347Y-104337952D01*
X173942786Y-104493962D01*
X173751980Y-104868745D01*
X173637956Y-105273551D01*
X173605098Y-105692824D01*
X168154927Y-105692824D01*
X167990256Y-105582795D01*
X167801898Y-105504774D01*
X167601939Y-105465000D01*
X167398061Y-105465000D01*
X167198102Y-105504774D01*
X167028563Y-105575000D01*
X166444235Y-105575000D01*
X166417205Y-105509744D01*
X166303937Y-105340226D01*
X166159774Y-105196063D01*
X165990256Y-105082795D01*
X165801898Y-105004774D01*
X165740873Y-104992635D01*
X165832182Y-104821808D01*
X165914236Y-104551309D01*
X165935000Y-104340492D01*
X165935000Y-104158347D01*
X174437952Y-104158347D01*
X175750000Y-105470395D01*
X177062048Y-104158347D01*
X176906038Y-103842786D01*
X176531255Y-103651980D01*
X176126449Y-103537956D01*
X175707176Y-103505098D01*
X175289549Y-103554666D01*
X174889617Y-103684757D01*
X174593962Y-103842786D01*
X174437952Y-104158347D01*
X165935000Y-104158347D01*
X165935000Y-103399509D01*
X165914236Y-103188691D01*
X165832182Y-102918192D01*
X165698932Y-102668899D01*
X165519608Y-102450392D01*
X165301101Y-102271068D01*
X165051808Y-102137818D01*
X164781309Y-102055764D01*
X164500000Y-102028057D01*
X164218692Y-102055764D01*
X163948193Y-102137818D01*
X163698900Y-102271068D01*
X163480393Y-102450392D01*
X163301068Y-102668899D01*
X163230000Y-102801858D01*
X163158932Y-102668899D01*
X162979608Y-102450392D01*
X162761101Y-102271068D01*
X162511808Y-102137818D01*
X162241309Y-102055764D01*
X161960000Y-102028057D01*
X161678692Y-102055764D01*
X161408193Y-102137818D01*
X161158900Y-102271068D01*
X160940393Y-102450392D01*
X160761068Y-102668899D01*
X160692735Y-102796741D01*
X160542601Y-102567161D01*
X160344895Y-102365500D01*
X160111646Y-102206285D01*
X159851818Y-102095633D01*
X159769039Y-102078096D01*
X159547000Y-102200085D01*
X159293000Y-102200085D01*
X159070961Y-102078096D01*
X158988182Y-102095633D01*
X158728354Y-102206285D01*
X158495105Y-102365500D01*
X158297399Y-102567161D01*
X158147265Y-102796741D01*
X158078932Y-102668899D01*
X157899608Y-102450392D01*
X157805000Y-102372749D01*
X157805000Y-101003147D01*
X159133147Y-99675000D01*
X168278563Y-99675000D01*
X168448102Y-99745226D01*
X168648061Y-99785000D01*
X168851939Y-99785000D01*
X169051898Y-99745226D01*
X169240256Y-99667205D01*
X169409774Y-99553937D01*
X169550731Y-99412980D01*
X173009437Y-99412980D01*
X173080429Y-99631094D01*
X173224031Y-99906923D01*
X173418685Y-100149437D01*
X173656911Y-100349316D01*
X173929554Y-100498879D01*
X174226137Y-100592378D01*
X174473000Y-100465570D01*
X174473000Y-99167000D01*
X174727000Y-99167000D01*
X174727000Y-100465570D01*
X174973863Y-100592378D01*
X175270446Y-100498879D01*
X175543089Y-100349316D01*
X175781315Y-100149437D01*
X175975969Y-99906923D01*
X176119571Y-99631094D01*
X176190563Y-99412980D01*
X176070594Y-99167000D01*
X174727000Y-99167000D01*
X174473000Y-99167000D01*
X173129406Y-99167000D01*
X173009437Y-99412980D01*
X169550731Y-99412980D01*
X169553937Y-99409774D01*
X169667205Y-99240256D01*
X169745226Y-99051898D01*
X169785000Y-98851939D01*
X169785000Y-98648061D01*
X169745226Y-98448102D01*
X169667205Y-98259744D01*
X169553937Y-98090226D01*
X169409774Y-97946063D01*
X169240256Y-97832795D01*
X169051898Y-97754774D01*
X168851939Y-97715000D01*
X168648061Y-97715000D01*
X168448102Y-97754774D01*
X168278563Y-97825000D01*
X165813708Y-97825000D01*
X165830537Y-97804494D01*
X165889502Y-97694180D01*
X165925812Y-97574482D01*
X165938072Y-97450000D01*
X165938072Y-95050000D01*
X165925812Y-94925518D01*
X165889502Y-94805820D01*
X165830537Y-94695506D01*
X165751185Y-94598815D01*
X165654494Y-94519463D01*
X165544180Y-94460498D01*
X165424482Y-94424188D01*
X165300000Y-94411928D01*
X163700000Y-94411928D01*
X163575518Y-94424188D01*
X163455820Y-94460498D01*
X163345506Y-94519463D01*
X163248815Y-94598815D01*
X163169463Y-94695506D01*
X163110498Y-94805820D01*
X163074188Y-94925518D01*
X163072419Y-94943482D01*
X162979608Y-94830392D01*
X162761101Y-94651068D01*
X162511808Y-94517818D01*
X162241309Y-94435764D01*
X161960000Y-94408057D01*
X161678692Y-94435764D01*
X161408193Y-94517818D01*
X161158900Y-94651068D01*
X160940393Y-94830392D01*
X160761068Y-95048899D01*
X160690000Y-95181858D01*
X160618932Y-95048899D01*
X160439608Y-94830392D01*
X160345000Y-94752749D01*
X160345000Y-94565434D01*
X160349475Y-94520000D01*
X160341658Y-94440629D01*
X160331615Y-94338668D01*
X160278723Y-94164305D01*
X160192830Y-94003611D01*
X160109912Y-93902575D01*
X160106201Y-93898053D01*
X160106199Y-93898051D01*
X160077238Y-93862762D01*
X160041949Y-93833801D01*
X159086203Y-92878056D01*
X159057238Y-92842762D01*
X158916389Y-92727170D01*
X158755695Y-92641277D01*
X158581332Y-92588385D01*
X158445435Y-92575000D01*
X158445427Y-92575000D01*
X158400000Y-92570526D01*
X158354573Y-92575000D01*
X148845434Y-92575000D01*
X148800000Y-92570525D01*
X148754566Y-92575000D01*
X148754565Y-92575000D01*
X148618668Y-92588385D01*
X148444305Y-92641277D01*
X148286743Y-92725496D01*
X149099319Y-91912920D01*
X149161714Y-91861714D01*
X149366031Y-91612752D01*
X149517852Y-91328715D01*
X149524782Y-91305871D01*
X149611343Y-91020517D01*
X149642911Y-90700000D01*
X149635000Y-90619678D01*
X149635000Y-86919678D01*
X149628072Y-86849337D01*
X149628072Y-85930177D01*
X151375000Y-85930177D01*
X151375001Y-88069824D01*
X151398514Y-88308556D01*
X151491433Y-88614869D01*
X151642326Y-88897170D01*
X151845393Y-89144608D01*
X152092831Y-89347675D01*
X152375132Y-89498568D01*
X152681445Y-89591487D01*
X153000000Y-89622862D01*
X153318556Y-89591487D01*
X153624869Y-89498568D01*
X153907170Y-89347675D01*
X154154608Y-89144608D01*
X154357675Y-88897170D01*
X154508568Y-88614869D01*
X154601487Y-88308556D01*
X154625000Y-88069824D01*
X154625000Y-87127000D01*
X156375000Y-87127000D01*
X156375000Y-88117000D01*
X156431000Y-88431582D01*
X156547296Y-88729194D01*
X156719419Y-88998399D01*
X156940754Y-89228852D01*
X157202795Y-89411696D01*
X157495472Y-89539905D01*
X157621135Y-89570218D01*
X157873000Y-89450740D01*
X157873000Y-87127000D01*
X158127000Y-87127000D01*
X158127000Y-89450740D01*
X158378865Y-89570218D01*
X158504528Y-89539905D01*
X158797205Y-89411696D01*
X159059246Y-89228852D01*
X159182999Y-89100000D01*
X161357089Y-89100000D01*
X161388658Y-89420516D01*
X161482148Y-89728714D01*
X161528399Y-89815243D01*
X161633970Y-90012752D01*
X161838287Y-90261714D01*
X161900682Y-90312920D01*
X169187080Y-97599319D01*
X169238286Y-97661714D01*
X169487248Y-97866031D01*
X169771285Y-98017852D01*
X170079484Y-98111343D01*
X170319678Y-98135000D01*
X170319680Y-98135000D01*
X170399999Y-98142911D01*
X170480319Y-98135000D01*
X173254594Y-98135000D01*
X173224031Y-98173077D01*
X173080429Y-98448906D01*
X173009437Y-98667020D01*
X173129406Y-98913000D01*
X174473000Y-98913000D01*
X174473000Y-98893000D01*
X174727000Y-98893000D01*
X174727000Y-98913000D01*
X176070594Y-98913000D01*
X176190563Y-98667020D01*
X176119571Y-98448906D01*
X175975969Y-98173077D01*
X175781315Y-97930563D01*
X175609637Y-97786520D01*
X175761714Y-97661714D01*
X175966031Y-97412752D01*
X176117852Y-97128715D01*
X176211343Y-96820516D01*
X176242911Y-96500000D01*
X176211343Y-96179484D01*
X176117852Y-95871285D01*
X175966031Y-95587248D01*
X175880249Y-95482722D01*
X175954494Y-95443037D01*
X176051185Y-95363685D01*
X176130537Y-95266994D01*
X176189502Y-95156680D01*
X176225812Y-95036982D01*
X176238072Y-94912500D01*
X176238072Y-93007500D01*
X176225812Y-92883018D01*
X176189502Y-92763320D01*
X176130537Y-92653006D01*
X176051185Y-92556315D01*
X175954494Y-92476963D01*
X175844180Y-92417998D01*
X175724482Y-92381688D01*
X175600000Y-92369428D01*
X173600000Y-92369428D01*
X173475518Y-92381688D01*
X173355820Y-92417998D01*
X173245506Y-92476963D01*
X173148815Y-92556315D01*
X173069463Y-92653006D01*
X173010498Y-92763320D01*
X172974188Y-92883018D01*
X172961928Y-93007500D01*
X172961928Y-94865000D01*
X171077239Y-94865000D01*
X165553892Y-89341653D01*
X174437952Y-89341653D01*
X174593962Y-89657214D01*
X174968745Y-89848020D01*
X175373551Y-89962044D01*
X175792824Y-89994902D01*
X176210451Y-89945334D01*
X176610383Y-89815243D01*
X176906038Y-89657214D01*
X177062048Y-89341653D01*
X175750000Y-88029605D01*
X174437952Y-89341653D01*
X165553892Y-89341653D01*
X164635000Y-88422762D01*
X164635000Y-87892824D01*
X173605098Y-87892824D01*
X173654666Y-88310451D01*
X173784757Y-88710383D01*
X173942786Y-89006038D01*
X174258347Y-89162048D01*
X175570395Y-87850000D01*
X175929605Y-87850000D01*
X177241653Y-89162048D01*
X177557214Y-89006038D01*
X177748020Y-88631255D01*
X177862044Y-88226449D01*
X177894902Y-87807176D01*
X177845334Y-87389549D01*
X177715243Y-86989617D01*
X177557214Y-86693962D01*
X177241653Y-86537952D01*
X175929605Y-87850000D01*
X175570395Y-87850000D01*
X174258347Y-86537952D01*
X173942786Y-86693962D01*
X173751980Y-87068745D01*
X173637956Y-87473551D01*
X173605098Y-87892824D01*
X164635000Y-87892824D01*
X164635000Y-86919678D01*
X164625000Y-86818146D01*
X164625000Y-86358347D01*
X174437952Y-86358347D01*
X175750000Y-87670395D01*
X177062048Y-86358347D01*
X176906038Y-86042786D01*
X176531255Y-85851980D01*
X176126449Y-85737956D01*
X175707176Y-85705098D01*
X175289549Y-85754666D01*
X174889617Y-85884757D01*
X174593962Y-86042786D01*
X174437952Y-86358347D01*
X164625000Y-86358347D01*
X164625000Y-85930176D01*
X164601487Y-85691444D01*
X164508568Y-85385131D01*
X164357675Y-85102830D01*
X164154608Y-84855392D01*
X163907169Y-84652325D01*
X163624868Y-84501432D01*
X163318555Y-84408513D01*
X163000000Y-84377138D01*
X162681444Y-84408513D01*
X162375131Y-84501432D01*
X162092830Y-84652325D01*
X161845392Y-84855392D01*
X161642325Y-85102831D01*
X161491432Y-85385132D01*
X161398513Y-85691445D01*
X161375000Y-85930177D01*
X161375000Y-86818143D01*
X161365000Y-86919679D01*
X161365001Y-89019671D01*
X161357089Y-89100000D01*
X159182999Y-89100000D01*
X159280581Y-88998399D01*
X159452704Y-88729194D01*
X159569000Y-88431582D01*
X159625000Y-88117000D01*
X159625000Y-87127000D01*
X158127000Y-87127000D01*
X157873000Y-87127000D01*
X156375000Y-87127000D01*
X154625000Y-87127000D01*
X154625000Y-85930176D01*
X154620354Y-85883000D01*
X156375000Y-85883000D01*
X156375000Y-86873000D01*
X157873000Y-86873000D01*
X157873000Y-84549260D01*
X158127000Y-84549260D01*
X158127000Y-86873000D01*
X159625000Y-86873000D01*
X159625000Y-85883000D01*
X159569000Y-85568418D01*
X159452704Y-85270806D01*
X159280581Y-85001601D01*
X159059246Y-84771148D01*
X158797205Y-84588304D01*
X158504528Y-84460095D01*
X158378865Y-84429782D01*
X158127000Y-84549260D01*
X157873000Y-84549260D01*
X157621135Y-84429782D01*
X157495472Y-84460095D01*
X157202795Y-84588304D01*
X156940754Y-84771148D01*
X156719419Y-85001601D01*
X156547296Y-85270806D01*
X156431000Y-85568418D01*
X156375000Y-85883000D01*
X154620354Y-85883000D01*
X154601487Y-85691444D01*
X154508568Y-85385131D01*
X154357675Y-85102830D01*
X154154608Y-84855392D01*
X153907169Y-84652325D01*
X153624868Y-84501432D01*
X153318555Y-84408513D01*
X153000000Y-84377138D01*
X152681444Y-84408513D01*
X152375131Y-84501432D01*
X152092830Y-84652325D01*
X151845392Y-84855392D01*
X151642325Y-85102831D01*
X151491432Y-85385132D01*
X151398513Y-85691445D01*
X151375000Y-85930177D01*
X149628072Y-85930177D01*
X149628072Y-85020000D01*
X149615812Y-84895518D01*
X149579502Y-84775820D01*
X149520537Y-84665506D01*
X149441185Y-84568815D01*
X149344494Y-84489463D01*
X149234180Y-84430498D01*
X149114482Y-84394188D01*
X148990000Y-84381928D01*
X147010000Y-84381928D01*
X146885518Y-84394188D01*
X146765820Y-84430498D01*
X146655506Y-84489463D01*
X146558815Y-84568815D01*
X146479463Y-84665506D01*
X146420498Y-84775820D01*
X146384188Y-84895518D01*
X146371928Y-85020000D01*
X146371928Y-86849338D01*
X146365000Y-86919679D01*
X146365001Y-90022760D01*
X141662762Y-94725000D01*
X138545406Y-94725000D01*
X138575969Y-94686923D01*
X138719571Y-94411094D01*
X138790563Y-94192980D01*
X138670594Y-93947000D01*
X137327000Y-93947000D01*
X137327000Y-93967000D01*
X137073000Y-93967000D01*
X137073000Y-93947000D01*
X135729406Y-93947000D01*
X135609437Y-94192980D01*
X135680429Y-94411094D01*
X135824031Y-94686923D01*
X136018685Y-94929437D01*
X136190363Y-95073480D01*
X136038286Y-95198286D01*
X135833969Y-95447248D01*
X135682148Y-95731285D01*
X135588657Y-96039484D01*
X135557089Y-96360000D01*
X129654500Y-96360000D01*
X129623503Y-96204169D01*
X129417834Y-95707641D01*
X129119249Y-95260777D01*
X128739223Y-94880751D01*
X128359458Y-94627000D01*
X130000000Y-94627000D01*
X130024776Y-94624560D01*
X130048601Y-94617333D01*
X130070557Y-94605597D01*
X130089803Y-94589803D01*
X130105597Y-94570557D01*
X130117333Y-94548601D01*
X130124560Y-94524776D01*
X130127000Y-94500000D01*
X130127000Y-93447020D01*
X135609437Y-93447020D01*
X135729406Y-93693000D01*
X137073000Y-93693000D01*
X137073000Y-92394430D01*
X137327000Y-92394430D01*
X137327000Y-93693000D01*
X138670594Y-93693000D01*
X138790563Y-93447020D01*
X138719571Y-93228906D01*
X138575969Y-92953077D01*
X138381315Y-92710563D01*
X138143089Y-92510684D01*
X137870446Y-92361121D01*
X137573863Y-92267622D01*
X137327000Y-92394430D01*
X137073000Y-92394430D01*
X136826137Y-92267622D01*
X136529554Y-92361121D01*
X136256911Y-92510684D01*
X136018685Y-92710563D01*
X135824031Y-92953077D01*
X135680429Y-93228906D01*
X135609437Y-93447020D01*
X130127000Y-93447020D01*
X130127000Y-91206686D01*
X130150450Y-91129383D01*
X130160000Y-91032419D01*
X130160000Y-89091653D01*
X134687952Y-89091653D01*
X134843962Y-89407214D01*
X135218745Y-89598020D01*
X135623551Y-89712044D01*
X136042824Y-89744902D01*
X136460451Y-89695334D01*
X136860383Y-89565243D01*
X137156038Y-89407214D01*
X137312048Y-89091653D01*
X136000000Y-87779605D01*
X134687952Y-89091653D01*
X130160000Y-89091653D01*
X130160000Y-87642824D01*
X133855098Y-87642824D01*
X133904666Y-88060451D01*
X134034757Y-88460383D01*
X134192786Y-88756038D01*
X134508347Y-88912048D01*
X135820395Y-87600000D01*
X136179605Y-87600000D01*
X137491653Y-88912048D01*
X137807214Y-88756038D01*
X137998020Y-88381255D01*
X138112044Y-87976449D01*
X138144902Y-87557176D01*
X138095334Y-87139549D01*
X137965243Y-86739617D01*
X137807214Y-86443962D01*
X137491653Y-86287952D01*
X136179605Y-87600000D01*
X135820395Y-87600000D01*
X134508347Y-86287952D01*
X134192786Y-86443962D01*
X134001980Y-86818745D01*
X133887956Y-87223551D01*
X133855098Y-87642824D01*
X130160000Y-87642824D01*
X130160000Y-86108347D01*
X134687952Y-86108347D01*
X136000000Y-87420395D01*
X137312048Y-86108347D01*
X137156038Y-85792786D01*
X136781255Y-85601980D01*
X136376449Y-85487956D01*
X135957176Y-85455098D01*
X135539549Y-85504666D01*
X135139617Y-85634757D01*
X134843962Y-85792786D01*
X134687952Y-86108347D01*
X130160000Y-86108347D01*
X130160000Y-79660000D01*
X180340001Y-79660000D01*
X180340000Y-91032418D01*
G37*
X180340000Y-91032418D02*
X180349550Y-91129382D01*
X180373000Y-91206685D01*
X180373000Y-94500000D01*
X180375440Y-94524776D01*
X180382667Y-94548601D01*
X180394403Y-94570557D01*
X180410197Y-94589803D01*
X180429443Y-94605597D01*
X180451399Y-94617333D01*
X180475224Y-94624560D01*
X180500000Y-94627000D01*
X182078990Y-94627000D01*
X181699225Y-94880751D01*
X181319199Y-95260777D01*
X181020614Y-95707641D01*
X180814945Y-96204169D01*
X180710096Y-96731281D01*
X180710096Y-97268719D01*
X180814945Y-97795831D01*
X181020614Y-98292359D01*
X181319199Y-98739223D01*
X181699225Y-99119249D01*
X182078990Y-99373000D01*
X180500000Y-99373000D01*
X180475224Y-99375440D01*
X180451399Y-99382667D01*
X180429443Y-99394403D01*
X180410197Y-99410197D01*
X180394403Y-99429443D01*
X180382667Y-99451399D01*
X180375440Y-99475224D01*
X180373000Y-99500000D01*
X180373000Y-102793315D01*
X180349550Y-102870618D01*
X180340000Y-102967582D01*
X180340001Y-114340000D01*
X130160000Y-114340000D01*
X130160000Y-110607680D01*
X152055000Y-110607680D01*
X152055000Y-110892320D01*
X152110530Y-111171491D01*
X152219457Y-111434464D01*
X152377595Y-111671134D01*
X152578866Y-111872405D01*
X152815536Y-112030543D01*
X153078509Y-112139470D01*
X153357680Y-112195000D01*
X153642320Y-112195000D01*
X153921491Y-112139470D01*
X154184464Y-112030543D01*
X154421134Y-111872405D01*
X154622405Y-111671134D01*
X154780543Y-111434464D01*
X154889470Y-111171491D01*
X154945000Y-110892320D01*
X154945000Y-110607680D01*
X154889470Y-110328509D01*
X154815530Y-110150000D01*
X159711928Y-110150000D01*
X159724188Y-110274482D01*
X159760498Y-110394180D01*
X159819463Y-110504494D01*
X159898815Y-110601185D01*
X159995506Y-110680537D01*
X160105820Y-110739502D01*
X160225518Y-110775812D01*
X160350000Y-110788072D01*
X160964250Y-110785000D01*
X161123000Y-110626250D01*
X161123000Y-109377000D01*
X159873750Y-109377000D01*
X159715000Y-109535750D01*
X159711928Y-110150000D01*
X154815530Y-110150000D01*
X154780543Y-110065536D01*
X154622405Y-109828866D01*
X154421134Y-109627595D01*
X154184464Y-109469457D01*
X153921491Y-109360530D01*
X153642320Y-109305000D01*
X153357680Y-109305000D01*
X153078509Y-109360530D01*
X152815536Y-109469457D01*
X152578866Y-109627595D01*
X152377595Y-109828866D01*
X152219457Y-110065536D01*
X152110530Y-110328509D01*
X152055000Y-110607680D01*
X130160000Y-110607680D01*
X130160000Y-106891653D01*
X134687952Y-106891653D01*
X134843962Y-107207214D01*
X135218745Y-107398020D01*
X135623551Y-107512044D01*
X136042824Y-107544902D01*
X136460451Y-107495334D01*
X136860383Y-107365243D01*
X137156038Y-107207214D01*
X137312048Y-106891653D01*
X136000000Y-105579605D01*
X134687952Y-106891653D01*
X130160000Y-106891653D01*
X130160000Y-105442824D01*
X133855098Y-105442824D01*
X133904666Y-105860451D01*
X134034757Y-106260383D01*
X134192786Y-106556038D01*
X134508347Y-106712048D01*
X135820395Y-105400000D01*
X136179605Y-105400000D01*
X137491653Y-106712048D01*
X137807214Y-106556038D01*
X137998020Y-106181255D01*
X138112044Y-105776449D01*
X138144902Y-105357176D01*
X138095334Y-104939549D01*
X137965243Y-104539617D01*
X137807214Y-104243962D01*
X137491653Y-104087952D01*
X136179605Y-105400000D01*
X135820395Y-105400000D01*
X134508347Y-104087952D01*
X134192786Y-104243962D01*
X134001980Y-104618745D01*
X133887956Y-105023551D01*
X133855098Y-105442824D01*
X130160000Y-105442824D01*
X130160000Y-103908347D01*
X134687952Y-103908347D01*
X136000000Y-105220395D01*
X137312048Y-103908347D01*
X137156038Y-103592786D01*
X136781255Y-103401980D01*
X136376449Y-103287956D01*
X135957176Y-103255098D01*
X135539549Y-103304666D01*
X135139617Y-103434757D01*
X134843962Y-103592786D01*
X134687952Y-103908347D01*
X130160000Y-103908347D01*
X130160000Y-102967581D01*
X130150450Y-102870617D01*
X130127000Y-102793314D01*
X130127000Y-99500000D01*
X130124560Y-99475224D01*
X130117333Y-99451399D01*
X130105597Y-99429443D01*
X130089803Y-99410197D01*
X130070557Y-99394403D01*
X130048601Y-99382667D01*
X130024776Y-99375440D01*
X130000000Y-99373000D01*
X128359458Y-99373000D01*
X128739223Y-99119249D01*
X129119249Y-98739223D01*
X129417834Y-98292359D01*
X129623503Y-97795831D01*
X129728352Y-97268719D01*
X129728352Y-96731281D01*
X129654500Y-96360000D01*
X135557089Y-96360000D01*
X135588657Y-96680516D01*
X135682148Y-96988715D01*
X135833969Y-97272752D01*
X135919751Y-97377278D01*
X135845506Y-97416963D01*
X135748815Y-97496315D01*
X135669463Y-97593006D01*
X135610498Y-97703320D01*
X135574188Y-97823018D01*
X135561928Y-97947500D01*
X135561928Y-99852500D01*
X135574188Y-99976982D01*
X135610498Y-100096680D01*
X135669463Y-100206994D01*
X135748815Y-100303685D01*
X135845506Y-100383037D01*
X135955820Y-100442002D01*
X136075518Y-100478312D01*
X136200000Y-100490572D01*
X138200000Y-100490572D01*
X138324482Y-100478312D01*
X138444180Y-100442002D01*
X138554494Y-100383037D01*
X138651185Y-100303685D01*
X138730537Y-100206994D01*
X138789502Y-100096680D01*
X138825812Y-99976982D01*
X138838072Y-99852500D01*
X138838072Y-97995000D01*
X142259681Y-97995000D01*
X142340000Y-98002911D01*
X142420319Y-97995000D01*
X142420322Y-97995000D01*
X142660516Y-97971343D01*
X142968715Y-97877852D01*
X143252752Y-97726031D01*
X143501714Y-97521714D01*
X143552925Y-97459313D01*
X144225498Y-96786740D01*
X144141277Y-96944306D01*
X144088385Y-97118669D01*
X144075000Y-97254566D01*
X144075000Y-97254573D01*
X144070526Y-97300000D01*
X144075000Y-97345427D01*
X144075001Y-104854563D01*
X144070526Y-104900000D01*
X144088385Y-105081331D01*
X144141277Y-105255694D01*
X144227170Y-105416388D01*
X144313799Y-105521946D01*
X144313802Y-105521949D01*
X144342763Y-105557238D01*
X144378052Y-105586199D01*
X145713801Y-106921949D01*
X145742762Y-106957238D01*
X145778051Y-106986199D01*
X145778053Y-106986201D01*
X145837515Y-107035000D01*
X145883611Y-107072830D01*
X146044305Y-107158723D01*
X146218668Y-107211615D01*
X146354565Y-107225000D01*
X146354573Y-107225000D01*
X146400000Y-107229474D01*
X146445427Y-107225000D01*
X149981461Y-107225000D01*
X149877595Y-107328866D01*
X149719457Y-107565536D01*
X149610530Y-107828509D01*
X149555000Y-108107680D01*
X149555000Y-108392320D01*
X149610530Y-108671491D01*
X149719457Y-108934464D01*
X149877595Y-109171134D01*
X150078866Y-109372405D01*
X150315536Y-109530543D01*
X150578509Y-109639470D01*
X150857680Y-109695000D01*
X151142320Y-109695000D01*
X151421491Y-109639470D01*
X151684464Y-109530543D01*
X151921134Y-109372405D01*
X152122405Y-109171134D01*
X152280543Y-108934464D01*
X152389470Y-108671491D01*
X152445000Y-108392320D01*
X152445000Y-108107680D01*
X152389470Y-107828509D01*
X152280543Y-107565536D01*
X152122405Y-107328866D01*
X152018539Y-107225000D01*
X153666853Y-107225000D01*
X154555000Y-108113147D01*
X154555000Y-108392320D01*
X154610530Y-108671491D01*
X154719457Y-108934464D01*
X154877595Y-109171134D01*
X155078866Y-109372405D01*
X155315536Y-109530543D01*
X155578509Y-109639470D01*
X155857680Y-109695000D01*
X156142320Y-109695000D01*
X156421491Y-109639470D01*
X156684464Y-109530543D01*
X156921134Y-109372405D01*
X157122405Y-109171134D01*
X157280543Y-108934464D01*
X157389470Y-108671491D01*
X157445000Y-108392320D01*
X157445000Y-108350000D01*
X159711928Y-108350000D01*
X159715000Y-108964250D01*
X159873750Y-109123000D01*
X161123000Y-109123000D01*
X161123000Y-107873750D01*
X161377000Y-107873750D01*
X161377000Y-109123000D01*
X161397000Y-109123000D01*
X161397000Y-109377000D01*
X161377000Y-109377000D01*
X161377000Y-110626250D01*
X161535750Y-110785000D01*
X162150000Y-110788072D01*
X162274482Y-110775812D01*
X162394180Y-110739502D01*
X162504494Y-110680537D01*
X162601185Y-110601185D01*
X162680537Y-110504494D01*
X162739502Y-110394180D01*
X162745056Y-110375873D01*
X162811495Y-110442312D01*
X163062905Y-110610299D01*
X163342257Y-110726011D01*
X163638816Y-110785000D01*
X163941184Y-110785000D01*
X164237743Y-110726011D01*
X164517095Y-110610299D01*
X164768505Y-110442312D01*
X164982312Y-110228505D01*
X165150299Y-109977095D01*
X165266011Y-109697743D01*
X165325000Y-109401184D01*
X165325000Y-109098816D01*
X165266011Y-108802257D01*
X165150299Y-108522905D01*
X164982312Y-108271495D01*
X164768505Y-108057688D01*
X164517095Y-107889701D01*
X164237743Y-107773989D01*
X163941184Y-107715000D01*
X163638816Y-107715000D01*
X163342257Y-107773989D01*
X163062905Y-107889701D01*
X162811495Y-108057688D01*
X162745056Y-108124127D01*
X162739502Y-108105820D01*
X162680537Y-107995506D01*
X162601185Y-107898815D01*
X162504494Y-107819463D01*
X162394180Y-107760498D01*
X162274482Y-107724188D01*
X162150000Y-107711928D01*
X161535750Y-107715000D01*
X161377000Y-107873750D01*
X161123000Y-107873750D01*
X160964250Y-107715000D01*
X160350000Y-107711928D01*
X160225518Y-107724188D01*
X160105820Y-107760498D01*
X159995506Y-107819463D01*
X159898815Y-107898815D01*
X159819463Y-107995506D01*
X159760498Y-108105820D01*
X159724188Y-108225518D01*
X159711928Y-108350000D01*
X157445000Y-108350000D01*
X157445000Y-108107680D01*
X157389470Y-107828509D01*
X157280543Y-107565536D01*
X157122405Y-107328866D01*
X156921134Y-107127595D01*
X156684464Y-106969457D01*
X156421491Y-106860530D01*
X156142320Y-106805000D01*
X155863147Y-106805000D01*
X154736204Y-105678057D01*
X154717362Y-105655099D01*
X154891807Y-105602182D01*
X155141100Y-105468932D01*
X155359607Y-105289608D01*
X155538932Y-105071101D01*
X155610000Y-104938142D01*
X155681068Y-105071100D01*
X155860392Y-105289607D01*
X156078899Y-105468932D01*
X156328192Y-105602182D01*
X156598691Y-105684236D01*
X156880000Y-105711943D01*
X157161308Y-105684236D01*
X157431807Y-105602182D01*
X157681100Y-105468932D01*
X157899607Y-105289608D01*
X158078932Y-105071101D01*
X158147265Y-104943259D01*
X158297399Y-105172839D01*
X158495105Y-105374500D01*
X158728354Y-105533715D01*
X158988182Y-105644367D01*
X159070961Y-105661904D01*
X159293000Y-105539915D01*
X159293000Y-103997000D01*
X159273000Y-103997000D01*
X159273000Y-103743000D01*
X159293000Y-103743000D01*
X159293000Y-102200085D01*
X159547000Y-102200085D01*
X159547000Y-103743000D01*
X159567000Y-103743000D01*
X159567000Y-103997000D01*
X159547000Y-103997000D01*
X159547000Y-105539915D01*
X159769039Y-105661904D01*
X159851818Y-105644367D01*
X160111646Y-105533715D01*
X160344895Y-105374500D01*
X160542601Y-105172839D01*
X160692735Y-104943258D01*
X160761068Y-105071100D01*
X160940392Y-105289607D01*
X161158899Y-105468932D01*
X161408192Y-105602182D01*
X161678691Y-105684236D01*
X161960000Y-105711943D01*
X162241308Y-105684236D01*
X162511807Y-105602182D01*
X162761100Y-105468932D01*
X162979607Y-105289608D01*
X163158932Y-105071101D01*
X163230000Y-104938142D01*
X163301068Y-105071100D01*
X163480392Y-105289607D01*
X163698899Y-105468932D01*
X163948192Y-105602182D01*
X164218691Y-105684236D01*
X164500000Y-105711943D01*
X164502061Y-105711740D01*
X164465000Y-105898061D01*
X164465000Y-106101939D01*
X164504774Y-106301898D01*
X164582795Y-106490256D01*
X164696063Y-106659774D01*
X164840226Y-106803937D01*
X165009744Y-106917205D01*
X165179284Y-106987431D01*
X165313796Y-107121943D01*
X165342762Y-107157238D01*
X165483611Y-107272830D01*
X165588447Y-107328866D01*
X165644305Y-107358723D01*
X165818668Y-107411615D01*
X166000000Y-107429475D01*
X166045434Y-107425000D01*
X167028563Y-107425000D01*
X167198102Y-107495226D01*
X167398061Y-107535000D01*
X167601939Y-107535000D01*
X167801898Y-107495226D01*
X167990256Y-107417205D01*
X168159774Y-107303937D01*
X168303937Y-107159774D01*
X168316045Y-107141653D01*
X174437952Y-107141653D01*
X174593962Y-107457214D01*
X174968745Y-107648020D01*
X175373551Y-107762044D01*
X175792824Y-107794902D01*
X176210451Y-107745334D01*
X176610383Y-107615243D01*
X176906038Y-107457214D01*
X177062048Y-107141653D01*
X175750000Y-105829605D01*
X174437952Y-107141653D01*
X168316045Y-107141653D01*
X168417205Y-106990256D01*
X168495226Y-106801898D01*
X168535000Y-106601939D01*
X168535000Y-106398061D01*
X168495226Y-106198102D01*
X168417205Y-106009744D01*
X168303937Y-105840226D01*
X168159774Y-105696063D01*
X168154927Y-105692824D01*
X173605098Y-105692824D01*
X173654666Y-106110451D01*
X173784757Y-106510383D01*
X173942786Y-106806038D01*
X174258347Y-106962048D01*
X175570395Y-105650000D01*
X175929605Y-105650000D01*
X177241653Y-106962048D01*
X177557214Y-106806038D01*
X177748020Y-106431255D01*
X177862044Y-106026449D01*
X177894902Y-105607176D01*
X177845334Y-105189549D01*
X177715243Y-104789617D01*
X177557214Y-104493962D01*
X177241653Y-104337952D01*
X175929605Y-105650000D01*
X175570395Y-105650000D01*
X174258347Y-104337952D01*
X173942786Y-104493962D01*
X173751980Y-104868745D01*
X173637956Y-105273551D01*
X173605098Y-105692824D01*
X168154927Y-105692824D01*
X167990256Y-105582795D01*
X167801898Y-105504774D01*
X167601939Y-105465000D01*
X167398061Y-105465000D01*
X167198102Y-105504774D01*
X167028563Y-105575000D01*
X166444235Y-105575000D01*
X166417205Y-105509744D01*
X166303937Y-105340226D01*
X166159774Y-105196063D01*
X165990256Y-105082795D01*
X165801898Y-105004774D01*
X165740873Y-104992635D01*
X165832182Y-104821808D01*
X165914236Y-104551309D01*
X165935000Y-104340492D01*
X165935000Y-104158347D01*
X174437952Y-104158347D01*
X175750000Y-105470395D01*
X177062048Y-104158347D01*
X176906038Y-103842786D01*
X176531255Y-103651980D01*
X176126449Y-103537956D01*
X175707176Y-103505098D01*
X175289549Y-103554666D01*
X174889617Y-103684757D01*
X174593962Y-103842786D01*
X174437952Y-104158347D01*
X165935000Y-104158347D01*
X165935000Y-103399509D01*
X165914236Y-103188691D01*
X165832182Y-102918192D01*
X165698932Y-102668899D01*
X165519608Y-102450392D01*
X165301101Y-102271068D01*
X165051808Y-102137818D01*
X164781309Y-102055764D01*
X164500000Y-102028057D01*
X164218692Y-102055764D01*
X163948193Y-102137818D01*
X163698900Y-102271068D01*
X163480393Y-102450392D01*
X163301068Y-102668899D01*
X163230000Y-102801858D01*
X163158932Y-102668899D01*
X162979608Y-102450392D01*
X162761101Y-102271068D01*
X162511808Y-102137818D01*
X162241309Y-102055764D01*
X161960000Y-102028057D01*
X161678692Y-102055764D01*
X161408193Y-102137818D01*
X161158900Y-102271068D01*
X160940393Y-102450392D01*
X160761068Y-102668899D01*
X160692735Y-102796741D01*
X160542601Y-102567161D01*
X160344895Y-102365500D01*
X160111646Y-102206285D01*
X159851818Y-102095633D01*
X159769039Y-102078096D01*
X159547000Y-102200085D01*
X159293000Y-102200085D01*
X159070961Y-102078096D01*
X158988182Y-102095633D01*
X158728354Y-102206285D01*
X158495105Y-102365500D01*
X158297399Y-102567161D01*
X158147265Y-102796741D01*
X158078932Y-102668899D01*
X157899608Y-102450392D01*
X157805000Y-102372749D01*
X157805000Y-101003147D01*
X159133147Y-99675000D01*
X168278563Y-99675000D01*
X168448102Y-99745226D01*
X168648061Y-99785000D01*
X168851939Y-99785000D01*
X169051898Y-99745226D01*
X169240256Y-99667205D01*
X169409774Y-99553937D01*
X169550731Y-99412980D01*
X173009437Y-99412980D01*
X173080429Y-99631094D01*
X173224031Y-99906923D01*
X173418685Y-100149437D01*
X173656911Y-100349316D01*
X173929554Y-100498879D01*
X174226137Y-100592378D01*
X174473000Y-100465570D01*
X174473000Y-99167000D01*
X174727000Y-99167000D01*
X174727000Y-100465570D01*
X174973863Y-100592378D01*
X175270446Y-100498879D01*
X175543089Y-100349316D01*
X175781315Y-100149437D01*
X175975969Y-99906923D01*
X176119571Y-99631094D01*
X176190563Y-99412980D01*
X176070594Y-99167000D01*
X174727000Y-99167000D01*
X174473000Y-99167000D01*
X173129406Y-99167000D01*
X173009437Y-99412980D01*
X169550731Y-99412980D01*
X169553937Y-99409774D01*
X169667205Y-99240256D01*
X169745226Y-99051898D01*
X169785000Y-98851939D01*
X169785000Y-98648061D01*
X169745226Y-98448102D01*
X169667205Y-98259744D01*
X169553937Y-98090226D01*
X169409774Y-97946063D01*
X169240256Y-97832795D01*
X169051898Y-97754774D01*
X168851939Y-97715000D01*
X168648061Y-97715000D01*
X168448102Y-97754774D01*
X168278563Y-97825000D01*
X165813708Y-97825000D01*
X165830537Y-97804494D01*
X165889502Y-97694180D01*
X165925812Y-97574482D01*
X165938072Y-97450000D01*
X165938072Y-95050000D01*
X165925812Y-94925518D01*
X165889502Y-94805820D01*
X165830537Y-94695506D01*
X165751185Y-94598815D01*
X165654494Y-94519463D01*
X165544180Y-94460498D01*
X165424482Y-94424188D01*
X165300000Y-94411928D01*
X163700000Y-94411928D01*
X163575518Y-94424188D01*
X163455820Y-94460498D01*
X163345506Y-94519463D01*
X163248815Y-94598815D01*
X163169463Y-94695506D01*
X163110498Y-94805820D01*
X163074188Y-94925518D01*
X163072419Y-94943482D01*
X162979608Y-94830392D01*
X162761101Y-94651068D01*
X162511808Y-94517818D01*
X162241309Y-94435764D01*
X161960000Y-94408057D01*
X161678692Y-94435764D01*
X161408193Y-94517818D01*
X161158900Y-94651068D01*
X160940393Y-94830392D01*
X160761068Y-95048899D01*
X160690000Y-95181858D01*
X160618932Y-95048899D01*
X160439608Y-94830392D01*
X160345000Y-94752749D01*
X160345000Y-94565434D01*
X160349475Y-94520000D01*
X160341658Y-94440629D01*
X160331615Y-94338668D01*
X160278723Y-94164305D01*
X160192830Y-94003611D01*
X160109912Y-93902575D01*
X160106201Y-93898053D01*
X160106199Y-93898051D01*
X160077238Y-93862762D01*
X160041949Y-93833801D01*
X159086203Y-92878056D01*
X159057238Y-92842762D01*
X158916389Y-92727170D01*
X158755695Y-92641277D01*
X158581332Y-92588385D01*
X158445435Y-92575000D01*
X158445427Y-92575000D01*
X158400000Y-92570526D01*
X158354573Y-92575000D01*
X148845434Y-92575000D01*
X148800000Y-92570525D01*
X148754566Y-92575000D01*
X148754565Y-92575000D01*
X148618668Y-92588385D01*
X148444305Y-92641277D01*
X148286743Y-92725496D01*
X149099319Y-91912920D01*
X149161714Y-91861714D01*
X149366031Y-91612752D01*
X149517852Y-91328715D01*
X149524782Y-91305871D01*
X149611343Y-91020517D01*
X149642911Y-90700000D01*
X149635000Y-90619678D01*
X149635000Y-86919678D01*
X149628072Y-86849337D01*
X149628072Y-85930177D01*
X151375000Y-85930177D01*
X151375001Y-88069824D01*
X151398514Y-88308556D01*
X151491433Y-88614869D01*
X151642326Y-88897170D01*
X151845393Y-89144608D01*
X152092831Y-89347675D01*
X152375132Y-89498568D01*
X152681445Y-89591487D01*
X153000000Y-89622862D01*
X153318556Y-89591487D01*
X153624869Y-89498568D01*
X153907170Y-89347675D01*
X154154608Y-89144608D01*
X154357675Y-88897170D01*
X154508568Y-88614869D01*
X154601487Y-88308556D01*
X154625000Y-88069824D01*
X154625000Y-87127000D01*
X156375000Y-87127000D01*
X156375000Y-88117000D01*
X156431000Y-88431582D01*
X156547296Y-88729194D01*
X156719419Y-88998399D01*
X156940754Y-89228852D01*
X157202795Y-89411696D01*
X157495472Y-89539905D01*
X157621135Y-89570218D01*
X157873000Y-89450740D01*
X157873000Y-87127000D01*
X158127000Y-87127000D01*
X158127000Y-89450740D01*
X158378865Y-89570218D01*
X158504528Y-89539905D01*
X158797205Y-89411696D01*
X159059246Y-89228852D01*
X159182999Y-89100000D01*
X161357089Y-89100000D01*
X161388658Y-89420516D01*
X161482148Y-89728714D01*
X161528399Y-89815243D01*
X161633970Y-90012752D01*
X161838287Y-90261714D01*
X161900682Y-90312920D01*
X169187080Y-97599319D01*
X169238286Y-97661714D01*
X169487248Y-97866031D01*
X169771285Y-98017852D01*
X170079484Y-98111343D01*
X170319678Y-98135000D01*
X170319680Y-98135000D01*
X170399999Y-98142911D01*
X170480319Y-98135000D01*
X173254594Y-98135000D01*
X173224031Y-98173077D01*
X173080429Y-98448906D01*
X173009437Y-98667020D01*
X173129406Y-98913000D01*
X174473000Y-98913000D01*
X174473000Y-98893000D01*
X174727000Y-98893000D01*
X174727000Y-98913000D01*
X176070594Y-98913000D01*
X176190563Y-98667020D01*
X176119571Y-98448906D01*
X175975969Y-98173077D01*
X175781315Y-97930563D01*
X175609637Y-97786520D01*
X175761714Y-97661714D01*
X175966031Y-97412752D01*
X176117852Y-97128715D01*
X176211343Y-96820516D01*
X176242911Y-96500000D01*
X176211343Y-96179484D01*
X176117852Y-95871285D01*
X175966031Y-95587248D01*
X175880249Y-95482722D01*
X175954494Y-95443037D01*
X176051185Y-95363685D01*
X176130537Y-95266994D01*
X176189502Y-95156680D01*
X176225812Y-95036982D01*
X176238072Y-94912500D01*
X176238072Y-93007500D01*
X176225812Y-92883018D01*
X176189502Y-92763320D01*
X176130537Y-92653006D01*
X176051185Y-92556315D01*
X175954494Y-92476963D01*
X175844180Y-92417998D01*
X175724482Y-92381688D01*
X175600000Y-92369428D01*
X173600000Y-92369428D01*
X173475518Y-92381688D01*
X173355820Y-92417998D01*
X173245506Y-92476963D01*
X173148815Y-92556315D01*
X173069463Y-92653006D01*
X173010498Y-92763320D01*
X172974188Y-92883018D01*
X172961928Y-93007500D01*
X172961928Y-94865000D01*
X171077239Y-94865000D01*
X165553892Y-89341653D01*
X174437952Y-89341653D01*
X174593962Y-89657214D01*
X174968745Y-89848020D01*
X175373551Y-89962044D01*
X175792824Y-89994902D01*
X176210451Y-89945334D01*
X176610383Y-89815243D01*
X176906038Y-89657214D01*
X177062048Y-89341653D01*
X175750000Y-88029605D01*
X174437952Y-89341653D01*
X165553892Y-89341653D01*
X164635000Y-88422762D01*
X164635000Y-87892824D01*
X173605098Y-87892824D01*
X173654666Y-88310451D01*
X173784757Y-88710383D01*
X173942786Y-89006038D01*
X174258347Y-89162048D01*
X175570395Y-87850000D01*
X175929605Y-87850000D01*
X177241653Y-89162048D01*
X177557214Y-89006038D01*
X177748020Y-88631255D01*
X177862044Y-88226449D01*
X177894902Y-87807176D01*
X177845334Y-87389549D01*
X177715243Y-86989617D01*
X177557214Y-86693962D01*
X177241653Y-86537952D01*
X175929605Y-87850000D01*
X175570395Y-87850000D01*
X174258347Y-86537952D01*
X173942786Y-86693962D01*
X173751980Y-87068745D01*
X173637956Y-87473551D01*
X173605098Y-87892824D01*
X164635000Y-87892824D01*
X164635000Y-86919678D01*
X164625000Y-86818146D01*
X164625000Y-86358347D01*
X174437952Y-86358347D01*
X175750000Y-87670395D01*
X177062048Y-86358347D01*
X176906038Y-86042786D01*
X176531255Y-85851980D01*
X176126449Y-85737956D01*
X175707176Y-85705098D01*
X175289549Y-85754666D01*
X174889617Y-85884757D01*
X174593962Y-86042786D01*
X174437952Y-86358347D01*
X164625000Y-86358347D01*
X164625000Y-85930176D01*
X164601487Y-85691444D01*
X164508568Y-85385131D01*
X164357675Y-85102830D01*
X164154608Y-84855392D01*
X163907169Y-84652325D01*
X163624868Y-84501432D01*
X163318555Y-84408513D01*
X163000000Y-84377138D01*
X162681444Y-84408513D01*
X162375131Y-84501432D01*
X162092830Y-84652325D01*
X161845392Y-84855392D01*
X161642325Y-85102831D01*
X161491432Y-85385132D01*
X161398513Y-85691445D01*
X161375000Y-85930177D01*
X161375000Y-86818143D01*
X161365000Y-86919679D01*
X161365001Y-89019671D01*
X161357089Y-89100000D01*
X159182999Y-89100000D01*
X159280581Y-88998399D01*
X159452704Y-88729194D01*
X159569000Y-88431582D01*
X159625000Y-88117000D01*
X159625000Y-87127000D01*
X158127000Y-87127000D01*
X157873000Y-87127000D01*
X156375000Y-87127000D01*
X154625000Y-87127000D01*
X154625000Y-85930176D01*
X154620354Y-85883000D01*
X156375000Y-85883000D01*
X156375000Y-86873000D01*
X157873000Y-86873000D01*
X157873000Y-84549260D01*
X158127000Y-84549260D01*
X158127000Y-86873000D01*
X159625000Y-86873000D01*
X159625000Y-85883000D01*
X159569000Y-85568418D01*
X159452704Y-85270806D01*
X159280581Y-85001601D01*
X159059246Y-84771148D01*
X158797205Y-84588304D01*
X158504528Y-84460095D01*
X158378865Y-84429782D01*
X158127000Y-84549260D01*
X157873000Y-84549260D01*
X157621135Y-84429782D01*
X157495472Y-84460095D01*
X157202795Y-84588304D01*
X156940754Y-84771148D01*
X156719419Y-85001601D01*
X156547296Y-85270806D01*
X156431000Y-85568418D01*
X156375000Y-85883000D01*
X154620354Y-85883000D01*
X154601487Y-85691444D01*
X154508568Y-85385131D01*
X154357675Y-85102830D01*
X154154608Y-84855392D01*
X153907169Y-84652325D01*
X153624868Y-84501432D01*
X153318555Y-84408513D01*
X153000000Y-84377138D01*
X152681444Y-84408513D01*
X152375131Y-84501432D01*
X152092830Y-84652325D01*
X151845392Y-84855392D01*
X151642325Y-85102831D01*
X151491432Y-85385132D01*
X151398513Y-85691445D01*
X151375000Y-85930177D01*
X149628072Y-85930177D01*
X149628072Y-85020000D01*
X149615812Y-84895518D01*
X149579502Y-84775820D01*
X149520537Y-84665506D01*
X149441185Y-84568815D01*
X149344494Y-84489463D01*
X149234180Y-84430498D01*
X149114482Y-84394188D01*
X148990000Y-84381928D01*
X147010000Y-84381928D01*
X146885518Y-84394188D01*
X146765820Y-84430498D01*
X146655506Y-84489463D01*
X146558815Y-84568815D01*
X146479463Y-84665506D01*
X146420498Y-84775820D01*
X146384188Y-84895518D01*
X146371928Y-85020000D01*
X146371928Y-86849338D01*
X146365000Y-86919679D01*
X146365001Y-90022760D01*
X141662762Y-94725000D01*
X138545406Y-94725000D01*
X138575969Y-94686923D01*
X138719571Y-94411094D01*
X138790563Y-94192980D01*
X138670594Y-93947000D01*
X137327000Y-93947000D01*
X137327000Y-93967000D01*
X137073000Y-93967000D01*
X137073000Y-93947000D01*
X135729406Y-93947000D01*
X135609437Y-94192980D01*
X135680429Y-94411094D01*
X135824031Y-94686923D01*
X136018685Y-94929437D01*
X136190363Y-95073480D01*
X136038286Y-95198286D01*
X135833969Y-95447248D01*
X135682148Y-95731285D01*
X135588657Y-96039484D01*
X135557089Y-96360000D01*
X129654500Y-96360000D01*
X129623503Y-96204169D01*
X129417834Y-95707641D01*
X129119249Y-95260777D01*
X128739223Y-94880751D01*
X128359458Y-94627000D01*
X130000000Y-94627000D01*
X130024776Y-94624560D01*
X130048601Y-94617333D01*
X130070557Y-94605597D01*
X130089803Y-94589803D01*
X130105597Y-94570557D01*
X130117333Y-94548601D01*
X130124560Y-94524776D01*
X130127000Y-94500000D01*
X130127000Y-93447020D01*
X135609437Y-93447020D01*
X135729406Y-93693000D01*
X137073000Y-93693000D01*
X137073000Y-92394430D01*
X137327000Y-92394430D01*
X137327000Y-93693000D01*
X138670594Y-93693000D01*
X138790563Y-93447020D01*
X138719571Y-93228906D01*
X138575969Y-92953077D01*
X138381315Y-92710563D01*
X138143089Y-92510684D01*
X137870446Y-92361121D01*
X137573863Y-92267622D01*
X137327000Y-92394430D01*
X137073000Y-92394430D01*
X136826137Y-92267622D01*
X136529554Y-92361121D01*
X136256911Y-92510684D01*
X136018685Y-92710563D01*
X135824031Y-92953077D01*
X135680429Y-93228906D01*
X135609437Y-93447020D01*
X130127000Y-93447020D01*
X130127000Y-91206686D01*
X130150450Y-91129383D01*
X130160000Y-91032419D01*
X130160000Y-89091653D01*
X134687952Y-89091653D01*
X134843962Y-89407214D01*
X135218745Y-89598020D01*
X135623551Y-89712044D01*
X136042824Y-89744902D01*
X136460451Y-89695334D01*
X136860383Y-89565243D01*
X137156038Y-89407214D01*
X137312048Y-89091653D01*
X136000000Y-87779605D01*
X134687952Y-89091653D01*
X130160000Y-89091653D01*
X130160000Y-87642824D01*
X133855098Y-87642824D01*
X133904666Y-88060451D01*
X134034757Y-88460383D01*
X134192786Y-88756038D01*
X134508347Y-88912048D01*
X135820395Y-87600000D01*
X136179605Y-87600000D01*
X137491653Y-88912048D01*
X137807214Y-88756038D01*
X137998020Y-88381255D01*
X138112044Y-87976449D01*
X138144902Y-87557176D01*
X138095334Y-87139549D01*
X137965243Y-86739617D01*
X137807214Y-86443962D01*
X137491653Y-86287952D01*
X136179605Y-87600000D01*
X135820395Y-87600000D01*
X134508347Y-86287952D01*
X134192786Y-86443962D01*
X134001980Y-86818745D01*
X133887956Y-87223551D01*
X133855098Y-87642824D01*
X130160000Y-87642824D01*
X130160000Y-86108347D01*
X134687952Y-86108347D01*
X136000000Y-87420395D01*
X137312048Y-86108347D01*
X137156038Y-85792786D01*
X136781255Y-85601980D01*
X136376449Y-85487956D01*
X135957176Y-85455098D01*
X135539549Y-85504666D01*
X135139617Y-85634757D01*
X134843962Y-85792786D01*
X134687952Y-86108347D01*
X130160000Y-86108347D01*
X130160000Y-79660000D01*
X180340001Y-79660000D01*
X180340000Y-91032418D01*
G36*
X153415000Y-100723148D02*
G01*
X153415001Y-102372750D01*
X153320393Y-102450392D01*
X153141068Y-102668899D01*
X153072735Y-102796741D01*
X152922601Y-102567161D01*
X152724895Y-102365500D01*
X152491646Y-102206285D01*
X152231818Y-102095633D01*
X152149039Y-102078096D01*
X151927000Y-102200085D01*
X151927000Y-103743000D01*
X151947000Y-103743000D01*
X151947000Y-103997000D01*
X151927000Y-103997000D01*
X151927000Y-104017000D01*
X151673000Y-104017000D01*
X151673000Y-103997000D01*
X149387000Y-103997000D01*
X149387000Y-104017000D01*
X149133000Y-104017000D01*
X149133000Y-103997000D01*
X147825000Y-103997000D01*
X147825000Y-104397000D01*
X147877350Y-104674514D01*
X147982834Y-104936483D01*
X148137399Y-105172839D01*
X148335105Y-105374500D01*
X148335837Y-105375000D01*
X146783148Y-105375000D01*
X145925000Y-104516853D01*
X145925000Y-103343000D01*
X147825000Y-103343000D01*
X147825000Y-103743000D01*
X149133000Y-103743000D01*
X149133000Y-102200085D01*
X149387000Y-102200085D01*
X149387000Y-103743000D01*
X151673000Y-103743000D01*
X151673000Y-102200085D01*
X151450961Y-102078096D01*
X151368182Y-102095633D01*
X151108354Y-102206285D01*
X150875105Y-102365500D01*
X150677399Y-102567161D01*
X150530000Y-102792559D01*
X150382601Y-102567161D01*
X150184895Y-102365500D01*
X149951646Y-102206285D01*
X149691818Y-102095633D01*
X149609039Y-102078096D01*
X149387000Y-102200085D01*
X149133000Y-102200085D01*
X148910961Y-102078096D01*
X148828182Y-102095633D01*
X148568354Y-102206285D01*
X148335105Y-102365500D01*
X148137399Y-102567161D01*
X147982834Y-102803517D01*
X147877350Y-103065486D01*
X147825000Y-103343000D01*
X145925000Y-103343000D01*
X145925000Y-99735657D01*
X145948102Y-99745226D01*
X146148061Y-99785000D01*
X146351939Y-99785000D01*
X146551898Y-99745226D01*
X146721437Y-99675000D01*
X152366853Y-99675000D01*
X153415000Y-100723148D01*
G37*
X153415000Y-100723148D02*
X153415001Y-102372750D01*
X153320393Y-102450392D01*
X153141068Y-102668899D01*
X153072735Y-102796741D01*
X152922601Y-102567161D01*
X152724895Y-102365500D01*
X152491646Y-102206285D01*
X152231818Y-102095633D01*
X152149039Y-102078096D01*
X151927000Y-102200085D01*
X151927000Y-103743000D01*
X151947000Y-103743000D01*
X151947000Y-103997000D01*
X151927000Y-103997000D01*
X151927000Y-104017000D01*
X151673000Y-104017000D01*
X151673000Y-103997000D01*
X149387000Y-103997000D01*
X149387000Y-104017000D01*
X149133000Y-104017000D01*
X149133000Y-103997000D01*
X147825000Y-103997000D01*
X147825000Y-104397000D01*
X147877350Y-104674514D01*
X147982834Y-104936483D01*
X148137399Y-105172839D01*
X148335105Y-105374500D01*
X148335837Y-105375000D01*
X146783148Y-105375000D01*
X145925000Y-104516853D01*
X145925000Y-103343000D01*
X147825000Y-103343000D01*
X147825000Y-103743000D01*
X149133000Y-103743000D01*
X149133000Y-102200085D01*
X149387000Y-102200085D01*
X149387000Y-103743000D01*
X151673000Y-103743000D01*
X151673000Y-102200085D01*
X151450961Y-102078096D01*
X151368182Y-102095633D01*
X151108354Y-102206285D01*
X150875105Y-102365500D01*
X150677399Y-102567161D01*
X150530000Y-102792559D01*
X150382601Y-102567161D01*
X150184895Y-102365500D01*
X149951646Y-102206285D01*
X149691818Y-102095633D01*
X149609039Y-102078096D01*
X149387000Y-102200085D01*
X149133000Y-102200085D01*
X148910961Y-102078096D01*
X148828182Y-102095633D01*
X148568354Y-102206285D01*
X148335105Y-102365500D01*
X148137399Y-102567161D01*
X147982834Y-102803517D01*
X147877350Y-103065486D01*
X147825000Y-103343000D01*
X145925000Y-103343000D01*
X145925000Y-99735657D01*
X145948102Y-99745226D01*
X146148061Y-99785000D01*
X146351939Y-99785000D01*
X146551898Y-99745226D01*
X146721437Y-99675000D01*
X152366853Y-99675000D01*
X153415000Y-100723148D01*
G36*
X147825000Y-96123000D02*
G01*
X149133000Y-96123000D01*
X149133000Y-96103000D01*
X149387000Y-96103000D01*
X149387000Y-96123000D01*
X149407000Y-96123000D01*
X149407000Y-96377000D01*
X149387000Y-96377000D01*
X149387000Y-96397000D01*
X149133000Y-96397000D01*
X149133000Y-96377000D01*
X147825000Y-96377000D01*
X147825000Y-96777000D01*
X147877350Y-97054514D01*
X147982834Y-97316483D01*
X148137399Y-97552839D01*
X148335105Y-97754500D01*
X148438387Y-97825000D01*
X146721437Y-97825000D01*
X146551898Y-97754774D01*
X146351939Y-97715000D01*
X146148061Y-97715000D01*
X145948102Y-97754774D01*
X145925000Y-97764343D01*
X145925000Y-97683147D01*
X147825000Y-95783148D01*
X147825000Y-96123000D01*
G37*
X147825000Y-96123000D02*
X149133000Y-96123000D01*
X149133000Y-96103000D01*
X149387000Y-96103000D01*
X149387000Y-96123000D01*
X149407000Y-96123000D01*
X149407000Y-96377000D01*
X149387000Y-96377000D01*
X149387000Y-96397000D01*
X149133000Y-96397000D01*
X149133000Y-96377000D01*
X147825000Y-96377000D01*
X147825000Y-96777000D01*
X147877350Y-97054514D01*
X147982834Y-97316483D01*
X148137399Y-97552839D01*
X148335105Y-97754500D01*
X148438387Y-97825000D01*
X146721437Y-97825000D01*
X146551898Y-97754774D01*
X146351939Y-97715000D01*
X146148061Y-97715000D01*
X145948102Y-97754774D01*
X145925000Y-97764343D01*
X145925000Y-97683147D01*
X147825000Y-95783148D01*
X147825000Y-96123000D01*
%TD*%
M02*
