%TF.GenerationSoftware,KiCad,Pcbnew,(5.1.6)-1*%
%TF.CreationDate,2021-10-24T20:30:52+03:00*%
%TF.ProjectId,INTERVER_OSCILLATER,494e5445-5256-4455-925f-4f5343494c4c,0*%
%TF.SameCoordinates,Original*%
%TF.FileFunction,Paste,Top*%
%TF.FilePolarity,Positive*%
%FSLAX46Y46*%
G04 Gerber Fmt 4.6, Leading zero omitted, Abs format (unit mm)*
G04 Created by KiCad (PCBNEW (5.1.6)-1) date 2021-10-24 20:30:52*
%MOMM*%
%LPD*%
G01*
G04 APERTURE LIST*
G04 APERTURE END LIST*
%TO.C,R2*%
G36*
G01*
X144936000Y-98850500D02*
X144936000Y-98649500D01*
G75*
G02*
X145015500Y-98570000I79500J0D01*
G01*
X145174500Y-98570000D01*
G75*
G02*
X145254000Y-98649500I0J-79500D01*
G01*
X145254000Y-98850500D01*
G75*
G02*
X145174500Y-98930000I-79500J0D01*
G01*
X145015500Y-98930000D01*
G75*
G02*
X144936000Y-98850500I0J79500D01*
G01*
G37*
G36*
G01*
X144246000Y-98850500D02*
X144246000Y-98649500D01*
G75*
G02*
X144325500Y-98570000I79500J0D01*
G01*
X144484500Y-98570000D01*
G75*
G02*
X144564000Y-98649500I0J-79500D01*
G01*
X144564000Y-98850500D01*
G75*
G02*
X144484500Y-98930000I-79500J0D01*
G01*
X144325500Y-98930000D01*
G75*
G02*
X144246000Y-98850500I0J79500D01*
G01*
G37*
%TD*%
%TO.C,C1*%
G36*
G01*
X162099000Y-93649500D02*
X162099000Y-93850500D01*
G75*
G02*
X162019500Y-93930000I-79500J0D01*
G01*
X161860500Y-93930000D01*
G75*
G02*
X161781000Y-93850500I0J79500D01*
G01*
X161781000Y-93649500D01*
G75*
G02*
X161860500Y-93570000I79500J0D01*
G01*
X162019500Y-93570000D01*
G75*
G02*
X162099000Y-93649500I0J-79500D01*
G01*
G37*
G36*
G01*
X161409000Y-93649500D02*
X161409000Y-93850500D01*
G75*
G02*
X161329500Y-93930000I-79500J0D01*
G01*
X161170500Y-93930000D01*
G75*
G02*
X161091000Y-93850500I0J79500D01*
G01*
X161091000Y-93649500D01*
G75*
G02*
X161170500Y-93570000I79500J0D01*
G01*
X161329500Y-93570000D01*
G75*
G02*
X161409000Y-93649500I0J-79500D01*
G01*
G37*
%TD*%
%TO.C,R1*%
G36*
G01*
X151900500Y-94604000D02*
X151699500Y-94604000D01*
G75*
G02*
X151620000Y-94524500I0J79500D01*
G01*
X151620000Y-94365500D01*
G75*
G02*
X151699500Y-94286000I79500J0D01*
G01*
X151900500Y-94286000D01*
G75*
G02*
X151980000Y-94365500I0J-79500D01*
G01*
X151980000Y-94524500D01*
G75*
G02*
X151900500Y-94604000I-79500J0D01*
G01*
G37*
G36*
G01*
X151900500Y-93914000D02*
X151699500Y-93914000D01*
G75*
G02*
X151620000Y-93834500I0J79500D01*
G01*
X151620000Y-93675500D01*
G75*
G02*
X151699500Y-93596000I79500J0D01*
G01*
X151900500Y-93596000D01*
G75*
G02*
X151980000Y-93675500I0J-79500D01*
G01*
X151980000Y-93834500D01*
G75*
G02*
X151900500Y-93914000I-79500J0D01*
G01*
G37*
%TD*%
%TO.C,R3*%
G36*
G01*
X170254000Y-93899500D02*
X170254000Y-94100500D01*
G75*
G02*
X170174500Y-94180000I-79500J0D01*
G01*
X170015500Y-94180000D01*
G75*
G02*
X169936000Y-94100500I0J79500D01*
G01*
X169936000Y-93899500D01*
G75*
G02*
X170015500Y-93820000I79500J0D01*
G01*
X170174500Y-93820000D01*
G75*
G02*
X170254000Y-93899500I0J-79500D01*
G01*
G37*
G36*
G01*
X169564000Y-93899500D02*
X169564000Y-94100500D01*
G75*
G02*
X169484500Y-94180000I-79500J0D01*
G01*
X169325500Y-94180000D01*
G75*
G02*
X169246000Y-94100500I0J79500D01*
G01*
X169246000Y-93899500D01*
G75*
G02*
X169325500Y-93820000I79500J0D01*
G01*
X169484500Y-93820000D01*
G75*
G02*
X169564000Y-93899500I0J-79500D01*
G01*
G37*
%TD*%
%TO.C,R4*%
G36*
G01*
X164100500Y-106434000D02*
X163899500Y-106434000D01*
G75*
G02*
X163820000Y-106354500I0J79500D01*
G01*
X163820000Y-106195500D01*
G75*
G02*
X163899500Y-106116000I79500J0D01*
G01*
X164100500Y-106116000D01*
G75*
G02*
X164180000Y-106195500I0J-79500D01*
G01*
X164180000Y-106354500D01*
G75*
G02*
X164100500Y-106434000I-79500J0D01*
G01*
G37*
G36*
G01*
X164100500Y-107124000D02*
X163899500Y-107124000D01*
G75*
G02*
X163820000Y-107044500I0J79500D01*
G01*
X163820000Y-106885500D01*
G75*
G02*
X163899500Y-106806000I79500J0D01*
G01*
X164100500Y-106806000D01*
G75*
G02*
X164180000Y-106885500I0J-79500D01*
G01*
X164180000Y-107044500D01*
G75*
G02*
X164100500Y-107124000I-79500J0D01*
G01*
G37*
%TD*%
M02*
