M48
; DRILL file {KiCad (5.1.6)-1} date 10/24/21 20:31:17
; FORMAT={-:-/ absolute / inch / decimal}
; #@! TF.CreationDate,2021-10-24T20:31:17+03:00
; #@! TF.GenerationSoftware,Kicad,Pcbnew,(5.1.6)-1
; #@! TF.FileFunction,Plated,1,2,PTH
FMAT,2
INCH
T1C0.0157
T2C0.0315
T3C0.0354
T4C0.0433
T5C0.0520
T6C0.0591
%
G90
G05
T1
X5.7579Y-3.8878
X6.5157Y-4.1732
X6.5945Y-4.1929
X6.6437Y-3.8878
T2
X5.8764Y-3.7894
X5.8764Y-4.0894
X5.9764Y-3.7894
X5.9764Y-4.0894
X6.0764Y-3.7894
X6.0764Y-4.0894
X6.1764Y-3.7894
X6.1764Y-4.0894
X6.2764Y-3.7894
X6.2764Y-4.0894
X6.3764Y-3.7894
X6.3764Y-4.0894
X6.4764Y-3.7894
X6.4764Y-4.0894
T3
X5.9449Y-4.2618
X6.0433Y-4.3602
X6.1417Y-4.2618
X6.3484Y-4.3012
X6.4484Y-4.3012
T4
X5.4016Y-3.6937
X5.4016Y-3.7937
X5.4016Y-3.8937
X6.874Y-3.6992
X6.874Y-3.7992
X6.874Y-3.8992
T5
X5.8268Y-3.4252
X6.0236Y-3.4252
X6.2205Y-3.4252
X6.4173Y-3.4252
T6
X5.3543Y-3.4488
X5.3543Y-4.1496
X6.9193Y-3.4587
X6.9193Y-4.1594
T0
M30
