%TF.GenerationSoftware,KiCad,Pcbnew,(5.1.6)-1*%
%TF.CreationDate,2021-10-30T11:54:59+03:00*%
%TF.ProjectId,POWER_SUPPLY,504f5745-525f-4535-9550-504c592e6b69,rev?*%
%TF.SameCoordinates,Original*%
%TF.FileFunction,Copper,L2,Bot*%
%TF.FilePolarity,Positive*%
%FSLAX46Y46*%
G04 Gerber Fmt 4.6, Leading zero omitted, Abs format (unit mm)*
G04 Created by KiCad (PCBNEW (5.1.6)-1) date 2021-10-30 11:54:59*
%MOMM*%
%LPD*%
G01*
G04 APERTURE LIST*
%TA.AperFunction,ComponentPad*%
%ADD10O,2.000000X1.905000*%
%TD*%
%TA.AperFunction,ComponentPad*%
%ADD11R,2.000000X1.905000*%
%TD*%
%TA.AperFunction,ComponentPad*%
%ADD12C,1.900000*%
%TD*%
%TA.AperFunction,ComponentPad*%
%ADD13R,1.900000X1.900000*%
%TD*%
%TA.AperFunction,ComponentPad*%
%ADD14O,1.600000X1.600000*%
%TD*%
%TA.AperFunction,ComponentPad*%
%ADD15C,1.600000*%
%TD*%
%TA.AperFunction,ComponentPad*%
%ADD16O,1.700000X1.700000*%
%TD*%
%TA.AperFunction,ComponentPad*%
%ADD17R,1.700000X1.700000*%
%TD*%
%TA.AperFunction,ComponentPad*%
%ADD18C,2.600000*%
%TD*%
%TA.AperFunction,ComponentPad*%
%ADD19R,2.600000X2.600000*%
%TD*%
%TA.AperFunction,ComponentPad*%
%ADD20C,1.800000*%
%TD*%
%TA.AperFunction,ComponentPad*%
%ADD21R,1.800000X1.800000*%
%TD*%
%TA.AperFunction,ComponentPad*%
%ADD22O,2.200000X2.200000*%
%TD*%
%TA.AperFunction,ComponentPad*%
%ADD23R,2.200000X2.200000*%
%TD*%
%TA.AperFunction,ComponentPad*%
%ADD24R,1.600000X1.600000*%
%TD*%
%TA.AperFunction,ComponentPad*%
%ADD25C,2.000000*%
%TD*%
%TA.AperFunction,ComponentPad*%
%ADD26R,2.000000X2.000000*%
%TD*%
%TA.AperFunction,Conductor*%
%ADD27C,0.300000*%
%TD*%
%TA.AperFunction,Conductor*%
%ADD28C,0.250000*%
%TD*%
%TA.AperFunction,Conductor*%
%ADD29C,0.254000*%
%TD*%
G04 APERTURE END LIST*
D10*
%TO.P,U1,3*%
%TO.N,/Vout_1*%
X63449200Y-91681300D03*
%TO.P,U1,2*%
%TO.N,GND*%
X63449200Y-94221300D03*
D11*
%TO.P,U1,1*%
%TO.N,/Vin*%
X63449200Y-96761300D03*
%TD*%
D12*
%TO.P,SW1,3*%
%TO.N,Net-(SW1-Pad3)*%
X99621100Y-104611100D03*
%TO.P,SW1,2*%
%TO.N,/Vout_1*%
X99621100Y-107111100D03*
D13*
%TO.P,SW1,1*%
%TO.N,/Vout_2*%
X99621100Y-109611100D03*
%TD*%
D14*
%TO.P,R2,2*%
%TO.N,Net-(D5-Pad1)*%
X93078300Y-107378500D03*
D15*
%TO.P,R2,1*%
%TO.N,GND*%
X93078300Y-117538500D03*
%TD*%
D14*
%TO.P,R1,2*%
%TO.N,Net-(D6-Pad1)*%
X88671400Y-107353100D03*
D15*
%TO.P,R1,1*%
%TO.N,GND*%
X88671400Y-117513100D03*
%TD*%
D16*
%TO.P,J3,4*%
%TO.N,GND*%
X100061100Y-116751100D03*
%TO.P,J3,3*%
X97521100Y-116751100D03*
%TO.P,J3,2*%
%TO.N,/Vout_2*%
X100061100Y-114211100D03*
D17*
%TO.P,J3,1*%
X97521100Y-114211100D03*
%TD*%
D16*
%TO.P,J2,4*%
%TO.N,GND*%
X100061100Y-92151200D03*
%TO.P,J2,3*%
X97521100Y-92151200D03*
%TO.P,J2,2*%
%TO.N,/Vout_2*%
X100061100Y-89611200D03*
D17*
%TO.P,J2,1*%
X97521100Y-89611200D03*
%TD*%
D18*
%TO.P,J1,3*%
%TO.N,Net-(J1-Pad3)*%
X69749200Y-107470200D03*
%TO.P,J1,2*%
%TO.N,Net-(D3-Pad2)*%
X65049200Y-110470200D03*
D19*
%TO.P,J1,1*%
%TO.N,Net-(D1-Pad2)*%
X65049200Y-104470200D03*
%TD*%
D20*
%TO.P,D6,2*%
%TO.N,/Vout_1*%
X88747600Y-98092100D03*
D21*
%TO.P,D6,1*%
%TO.N,Net-(D6-Pad1)*%
X88747600Y-100632100D03*
%TD*%
D20*
%TO.P,D5,2*%
%TO.N,/Vout_2*%
X98621100Y-97711100D03*
D21*
%TO.P,D5,1*%
%TO.N,Net-(D5-Pad1)*%
X98621100Y-100251100D03*
%TD*%
D22*
%TO.P,D4,2*%
%TO.N,GND*%
X84797900Y-103771700D03*
D23*
%TO.P,D4,1*%
%TO.N,Net-(D3-Pad2)*%
X74637900Y-103771700D03*
%TD*%
D22*
%TO.P,D3,2*%
%TO.N,Net-(D3-Pad2)*%
X74637900Y-108160933D03*
D23*
%TO.P,D3,1*%
%TO.N,/Vin*%
X84797900Y-108160933D03*
%TD*%
D22*
%TO.P,D2,2*%
%TO.N,GND*%
X84797900Y-112550166D03*
D23*
%TO.P,D2,1*%
%TO.N,Net-(D1-Pad2)*%
X74637900Y-112550166D03*
%TD*%
D22*
%TO.P,D1,2*%
%TO.N,Net-(D1-Pad2)*%
X74637900Y-116939400D03*
D23*
%TO.P,D1,1*%
%TO.N,/Vin*%
X84797900Y-116939400D03*
%TD*%
D15*
%TO.P,C2,2*%
%TO.N,GND*%
X89647400Y-91313000D03*
D24*
%TO.P,C2,1*%
%TO.N,/Vout_1*%
X87147400Y-91313000D03*
%TD*%
D25*
%TO.P,C1,2*%
%TO.N,GND*%
X76530200Y-90262700D03*
D26*
%TO.P,C1,1*%
%TO.N,/Vin*%
X76530200Y-95262700D03*
%TD*%
D27*
%TO.N,GND*%
X72571600Y-94221300D02*
X76530200Y-90262700D01*
X63449200Y-94221300D02*
X72571600Y-94221300D01*
X76530200Y-90262700D02*
X77016600Y-89776300D01*
X88110700Y-89776300D02*
X89647400Y-91313000D01*
X77016600Y-89776300D02*
X88110700Y-89776300D01*
X89647400Y-91313000D02*
X91349200Y-93014800D01*
X96657500Y-93014800D02*
X97521100Y-92151200D01*
X91349200Y-93014800D02*
X96657500Y-93014800D01*
X97521100Y-92151200D02*
X100061100Y-92151200D01*
X89647400Y-91313000D02*
X89647400Y-92750000D01*
X84797900Y-97599500D02*
X84797900Y-103771700D01*
X89647400Y-92750000D02*
X84797900Y-97599500D01*
X84797900Y-103771700D02*
X86855300Y-105829100D01*
X86855300Y-110492766D02*
X84797900Y-112550166D01*
X86855300Y-105829100D02*
X86855300Y-110492766D01*
X88671400Y-116423666D02*
X88671400Y-117513100D01*
X84797900Y-112550166D02*
X88671400Y-116423666D01*
X93052900Y-117513100D02*
X93078300Y-117538500D01*
X88671400Y-117513100D02*
X93052900Y-117513100D01*
X96733700Y-117538500D02*
X97521100Y-116751100D01*
X93078300Y-117538500D02*
X96733700Y-117538500D01*
X97521100Y-116751100D02*
X100061100Y-116751100D01*
D28*
%TO.N,Net-(D1-Pad2)*%
X65049200Y-104470200D02*
X70739000Y-104470200D01*
X70739000Y-104470200D02*
X72212200Y-105943400D01*
X72212200Y-105943400D02*
X72212200Y-111734600D01*
X73027766Y-112550166D02*
X74637900Y-112550166D01*
X72212200Y-111734600D02*
X73027766Y-112550166D01*
X74637900Y-112550166D02*
X74637900Y-116939400D01*
%TO.N,Net-(D5-Pad1)*%
X98621100Y-101835700D02*
X93078300Y-107378500D01*
X98621100Y-100251100D02*
X98621100Y-101835700D01*
%TO.N,Net-(D6-Pad1)*%
X88747600Y-107276900D02*
X88671400Y-107353100D01*
X88747600Y-100632100D02*
X88747600Y-107276900D01*
%TD*%
D29*
%TO.N,GND*%
G36*
X102406451Y-86966657D02*
G01*
X102205400Y-87452037D01*
X102102905Y-87967314D01*
X102102905Y-88492686D01*
X102205400Y-89007963D01*
X102406451Y-89493343D01*
X102698332Y-89930174D01*
X103069826Y-90301668D01*
X103506657Y-90593549D01*
X103992037Y-90794600D01*
X104507314Y-90897095D01*
X105032686Y-90897095D01*
X105547963Y-90794600D01*
X106033343Y-90593549D01*
X106337839Y-90390091D01*
X106339809Y-114641225D01*
X106033343Y-114436451D01*
X105547963Y-114235400D01*
X105032686Y-114132905D01*
X104507314Y-114132905D01*
X103992037Y-114235400D01*
X103506657Y-114436451D01*
X103069826Y-114728332D01*
X102698332Y-115099826D01*
X102406451Y-115536657D01*
X102205400Y-116022037D01*
X102102905Y-116537314D01*
X102102905Y-117062686D01*
X102205400Y-117577963D01*
X102406451Y-118063343D01*
X102590697Y-118339086D01*
X94113049Y-118339260D01*
X94314971Y-118280014D01*
X94435871Y-118024504D01*
X94504600Y-117750316D01*
X94518517Y-117467988D01*
X94477087Y-117188370D01*
X94448342Y-117107990D01*
X96079624Y-117107990D01*
X96124275Y-117255199D01*
X96249459Y-117518020D01*
X96423512Y-117751369D01*
X96639745Y-117946278D01*
X96889848Y-118095257D01*
X97164209Y-118192581D01*
X97394100Y-118071914D01*
X97394100Y-116878100D01*
X97648100Y-116878100D01*
X97648100Y-118071914D01*
X97877991Y-118192581D01*
X98152352Y-118095257D01*
X98402455Y-117946278D01*
X98618688Y-117751369D01*
X98791100Y-117520220D01*
X98963512Y-117751369D01*
X99179745Y-117946278D01*
X99429848Y-118095257D01*
X99704209Y-118192581D01*
X99934100Y-118071914D01*
X99934100Y-116878100D01*
X100188100Y-116878100D01*
X100188100Y-118071914D01*
X100417991Y-118192581D01*
X100692352Y-118095257D01*
X100942455Y-117946278D01*
X101158688Y-117751369D01*
X101332741Y-117518020D01*
X101457925Y-117255199D01*
X101502576Y-117107990D01*
X101381255Y-116878100D01*
X100188100Y-116878100D01*
X99934100Y-116878100D01*
X97648100Y-116878100D01*
X97394100Y-116878100D01*
X96200945Y-116878100D01*
X96079624Y-117107990D01*
X94448342Y-117107990D01*
X94381903Y-116922208D01*
X94314971Y-116796986D01*
X94071002Y-116725403D01*
X93257905Y-117538500D01*
X93272048Y-117552643D01*
X93092443Y-117732248D01*
X93078300Y-117718105D01*
X93064158Y-117732248D01*
X92884553Y-117552643D01*
X92898695Y-117538500D01*
X92085598Y-116725403D01*
X91841629Y-116796986D01*
X91720729Y-117052496D01*
X91652000Y-117326684D01*
X91638083Y-117609012D01*
X91679513Y-117888630D01*
X91774697Y-118154792D01*
X91841629Y-118280014D01*
X92043696Y-118339303D01*
X89677258Y-118339351D01*
X89664104Y-118326197D01*
X89908071Y-118254614D01*
X90028971Y-117999104D01*
X90097700Y-117724916D01*
X90111617Y-117442588D01*
X90070187Y-117162970D01*
X89975003Y-116896808D01*
X89908071Y-116771586D01*
X89664102Y-116700003D01*
X88851005Y-117513100D01*
X88865148Y-117527243D01*
X88685543Y-117706848D01*
X88671400Y-117692705D01*
X88657258Y-117706848D01*
X88477653Y-117527243D01*
X88491795Y-117513100D01*
X87678698Y-116700003D01*
X87434729Y-116771586D01*
X87313829Y-117027096D01*
X87245100Y-117301284D01*
X87231183Y-117583612D01*
X87272613Y-117863230D01*
X87367797Y-118129392D01*
X87434729Y-118254614D01*
X87678696Y-118326197D01*
X87665501Y-118339392D01*
X86457556Y-118339417D01*
X86487402Y-118283580D01*
X86523712Y-118163882D01*
X86535972Y-118039400D01*
X86535972Y-116520398D01*
X87858303Y-116520398D01*
X88671400Y-117333495D01*
X89459097Y-116545798D01*
X92265203Y-116545798D01*
X93078300Y-117358895D01*
X93891397Y-116545798D01*
X93819814Y-116301829D01*
X93564304Y-116180929D01*
X93290116Y-116112200D01*
X93007788Y-116098283D01*
X92728170Y-116139713D01*
X92462008Y-116234897D01*
X92336786Y-116301829D01*
X92265203Y-116545798D01*
X89459097Y-116545798D01*
X89484497Y-116520398D01*
X89412914Y-116276429D01*
X89157404Y-116155529D01*
X88883216Y-116086800D01*
X88600888Y-116072883D01*
X88321270Y-116114313D01*
X88055108Y-116209497D01*
X87929886Y-116276429D01*
X87858303Y-116520398D01*
X86535972Y-116520398D01*
X86535972Y-115839400D01*
X86523712Y-115714918D01*
X86487402Y-115595220D01*
X86428437Y-115484906D01*
X86349085Y-115388215D01*
X86252394Y-115308863D01*
X86142080Y-115249898D01*
X86022382Y-115213588D01*
X85897900Y-115201328D01*
X83697900Y-115201328D01*
X83573418Y-115213588D01*
X83453720Y-115249898D01*
X83343406Y-115308863D01*
X83246715Y-115388215D01*
X83167363Y-115484906D01*
X83108398Y-115595220D01*
X83072088Y-115714918D01*
X83059828Y-115839400D01*
X83059828Y-118039400D01*
X83072088Y-118163882D01*
X83108398Y-118283580D01*
X83138280Y-118339485D01*
X75665213Y-118339638D01*
X75743898Y-118287063D01*
X75985563Y-118045398D01*
X76175437Y-117761231D01*
X76306225Y-117445481D01*
X76372900Y-117110283D01*
X76372900Y-116768517D01*
X76306225Y-116433319D01*
X76175437Y-116117569D01*
X75985563Y-115833402D01*
X75743898Y-115591737D01*
X75459731Y-115401863D01*
X75397900Y-115376252D01*
X75397900Y-114288238D01*
X75737900Y-114288238D01*
X75862382Y-114275978D01*
X75982080Y-114239668D01*
X76092394Y-114180703D01*
X76189085Y-114101351D01*
X76268437Y-114004660D01*
X76327402Y-113894346D01*
X76363712Y-113774648D01*
X76375972Y-113650166D01*
X76375972Y-112946288D01*
X83108725Y-112946288D01*
X83173325Y-113159260D01*
X83323369Y-113464495D01*
X83530078Y-113734593D01*
X83785509Y-113959174D01*
X84079846Y-114129608D01*
X84401777Y-114239345D01*
X84670900Y-114121766D01*
X84670900Y-112677166D01*
X84924900Y-112677166D01*
X84924900Y-114121766D01*
X85194023Y-114239345D01*
X85515954Y-114129608D01*
X85810291Y-113959174D01*
X86065722Y-113734593D01*
X86272431Y-113464495D01*
X86323256Y-113361100D01*
X96033028Y-113361100D01*
X96033028Y-115061100D01*
X96045288Y-115185582D01*
X96081598Y-115305280D01*
X96140563Y-115415594D01*
X96219915Y-115512285D01*
X96316606Y-115591637D01*
X96426920Y-115650602D01*
X96507566Y-115675066D01*
X96423512Y-115750831D01*
X96249459Y-115984180D01*
X96124275Y-116247001D01*
X96079624Y-116394210D01*
X96200945Y-116624100D01*
X97394100Y-116624100D01*
X97394100Y-116604100D01*
X97648100Y-116604100D01*
X97648100Y-116624100D01*
X99934100Y-116624100D01*
X99934100Y-116604100D01*
X100188100Y-116604100D01*
X100188100Y-116624100D01*
X101381255Y-116624100D01*
X101502576Y-116394210D01*
X101457925Y-116247001D01*
X101332741Y-115984180D01*
X101158688Y-115750831D01*
X100942455Y-115555922D01*
X100825566Y-115486295D01*
X101007732Y-115364575D01*
X101214575Y-115157732D01*
X101377090Y-114914511D01*
X101489032Y-114644258D01*
X101546100Y-114357360D01*
X101546100Y-114064840D01*
X101489032Y-113777942D01*
X101377090Y-113507689D01*
X101214575Y-113264468D01*
X101007732Y-113057625D01*
X100764511Y-112895110D01*
X100494258Y-112783168D01*
X100207360Y-112726100D01*
X99914840Y-112726100D01*
X99627942Y-112783168D01*
X99357689Y-112895110D01*
X99114468Y-113057625D01*
X98982613Y-113189480D01*
X98960602Y-113116920D01*
X98901637Y-113006606D01*
X98822285Y-112909915D01*
X98725594Y-112830563D01*
X98615280Y-112771598D01*
X98495582Y-112735288D01*
X98371100Y-112723028D01*
X96671100Y-112723028D01*
X96546618Y-112735288D01*
X96426920Y-112771598D01*
X96316606Y-112830563D01*
X96219915Y-112909915D01*
X96140563Y-113006606D01*
X96081598Y-113116920D01*
X96045288Y-113236618D01*
X96033028Y-113361100D01*
X86323256Y-113361100D01*
X86422475Y-113159260D01*
X86487075Y-112946288D01*
X86369025Y-112677166D01*
X84924900Y-112677166D01*
X84670900Y-112677166D01*
X83226775Y-112677166D01*
X83108725Y-112946288D01*
X76375972Y-112946288D01*
X76375972Y-112154044D01*
X83108725Y-112154044D01*
X83226775Y-112423166D01*
X84670900Y-112423166D01*
X84670900Y-110978566D01*
X84924900Y-110978566D01*
X84924900Y-112423166D01*
X86369025Y-112423166D01*
X86487075Y-112154044D01*
X86422475Y-111941072D01*
X86272431Y-111635837D01*
X86065722Y-111365739D01*
X85810291Y-111141158D01*
X85515954Y-110970724D01*
X85194023Y-110860987D01*
X84924900Y-110978566D01*
X84670900Y-110978566D01*
X84401777Y-110860987D01*
X84079846Y-110970724D01*
X83785509Y-111141158D01*
X83530078Y-111365739D01*
X83323369Y-111635837D01*
X83173325Y-111941072D01*
X83108725Y-112154044D01*
X76375972Y-112154044D01*
X76375972Y-111450166D01*
X76363712Y-111325684D01*
X76327402Y-111205986D01*
X76268437Y-111095672D01*
X76189085Y-110998981D01*
X76092394Y-110919629D01*
X75982080Y-110860664D01*
X75862382Y-110824354D01*
X75737900Y-110812094D01*
X73537900Y-110812094D01*
X73413418Y-110824354D01*
X73293720Y-110860664D01*
X73183406Y-110919629D01*
X73086715Y-110998981D01*
X73007363Y-111095672D01*
X72972200Y-111161456D01*
X72972200Y-108673351D01*
X73100363Y-108982764D01*
X73290237Y-109266931D01*
X73531902Y-109508596D01*
X73816069Y-109698470D01*
X74131819Y-109829258D01*
X74467017Y-109895933D01*
X74808783Y-109895933D01*
X75143981Y-109829258D01*
X75459731Y-109698470D01*
X75743898Y-109508596D01*
X75985563Y-109266931D01*
X76175437Y-108982764D01*
X76306225Y-108667014D01*
X76372900Y-108331816D01*
X76372900Y-107990050D01*
X76306225Y-107654852D01*
X76175437Y-107339102D01*
X75989571Y-107060933D01*
X83059828Y-107060933D01*
X83059828Y-109260933D01*
X83072088Y-109385415D01*
X83108398Y-109505113D01*
X83167363Y-109615427D01*
X83246715Y-109712118D01*
X83343406Y-109791470D01*
X83453720Y-109850435D01*
X83573418Y-109886745D01*
X83697900Y-109899005D01*
X85897900Y-109899005D01*
X86022382Y-109886745D01*
X86142080Y-109850435D01*
X86252394Y-109791470D01*
X86349085Y-109712118D01*
X86428437Y-109615427D01*
X86487402Y-109505113D01*
X86523712Y-109385415D01*
X86535972Y-109260933D01*
X86535972Y-107060933D01*
X86523712Y-106936451D01*
X86487402Y-106816753D01*
X86428437Y-106706439D01*
X86349085Y-106609748D01*
X86252394Y-106530396D01*
X86142080Y-106471431D01*
X86022382Y-106435121D01*
X85897900Y-106422861D01*
X83697900Y-106422861D01*
X83573418Y-106435121D01*
X83453720Y-106471431D01*
X83343406Y-106530396D01*
X83246715Y-106609748D01*
X83167363Y-106706439D01*
X83108398Y-106816753D01*
X83072088Y-106936451D01*
X83059828Y-107060933D01*
X75989571Y-107060933D01*
X75985563Y-107054935D01*
X75743898Y-106813270D01*
X75459731Y-106623396D01*
X75143981Y-106492608D01*
X74808783Y-106425933D01*
X74467017Y-106425933D01*
X74131819Y-106492608D01*
X73816069Y-106623396D01*
X73531902Y-106813270D01*
X73290237Y-107054935D01*
X73100363Y-107339102D01*
X72972200Y-107648515D01*
X72972200Y-105980722D01*
X72975876Y-105943399D01*
X72972200Y-105906076D01*
X72972200Y-105906067D01*
X72961203Y-105794414D01*
X72917746Y-105651153D01*
X72847174Y-105519124D01*
X72834011Y-105503085D01*
X72775999Y-105432396D01*
X72775995Y-105432392D01*
X72752201Y-105403399D01*
X72723209Y-105379606D01*
X71302803Y-103959202D01*
X71279001Y-103930199D01*
X71163276Y-103835226D01*
X71031247Y-103764654D01*
X70887986Y-103721197D01*
X70776333Y-103710200D01*
X70776322Y-103710200D01*
X70739000Y-103706524D01*
X70701678Y-103710200D01*
X66987272Y-103710200D01*
X66987272Y-103170200D01*
X66975012Y-103045718D01*
X66938702Y-102926020D01*
X66879737Y-102815706D01*
X66800385Y-102719015D01*
X66742732Y-102671700D01*
X72899828Y-102671700D01*
X72899828Y-104871700D01*
X72912088Y-104996182D01*
X72948398Y-105115880D01*
X73007363Y-105226194D01*
X73086715Y-105322885D01*
X73183406Y-105402237D01*
X73293720Y-105461202D01*
X73413418Y-105497512D01*
X73537900Y-105509772D01*
X75737900Y-105509772D01*
X75862382Y-105497512D01*
X75982080Y-105461202D01*
X76092394Y-105402237D01*
X76189085Y-105322885D01*
X76268437Y-105226194D01*
X76327402Y-105115880D01*
X76363712Y-104996182D01*
X76375972Y-104871700D01*
X76375972Y-104167822D01*
X83108725Y-104167822D01*
X83173325Y-104380794D01*
X83323369Y-104686029D01*
X83530078Y-104956127D01*
X83785509Y-105180708D01*
X84079846Y-105351142D01*
X84401777Y-105460879D01*
X84670900Y-105343300D01*
X84670900Y-103898700D01*
X84924900Y-103898700D01*
X84924900Y-105343300D01*
X85194023Y-105460879D01*
X85515954Y-105351142D01*
X85810291Y-105180708D01*
X86065722Y-104956127D01*
X86272431Y-104686029D01*
X86422475Y-104380794D01*
X86487075Y-104167822D01*
X86369025Y-103898700D01*
X84924900Y-103898700D01*
X84670900Y-103898700D01*
X83226775Y-103898700D01*
X83108725Y-104167822D01*
X76375972Y-104167822D01*
X76375972Y-103375578D01*
X83108725Y-103375578D01*
X83226775Y-103644700D01*
X84670900Y-103644700D01*
X84670900Y-102200100D01*
X84924900Y-102200100D01*
X84924900Y-103644700D01*
X86369025Y-103644700D01*
X86487075Y-103375578D01*
X86422475Y-103162606D01*
X86272431Y-102857371D01*
X86065722Y-102587273D01*
X85810291Y-102362692D01*
X85515954Y-102192258D01*
X85194023Y-102082521D01*
X84924900Y-102200100D01*
X84670900Y-102200100D01*
X84401777Y-102082521D01*
X84079846Y-102192258D01*
X83785509Y-102362692D01*
X83530078Y-102587273D01*
X83323369Y-102857371D01*
X83173325Y-103162606D01*
X83108725Y-103375578D01*
X76375972Y-103375578D01*
X76375972Y-102671700D01*
X76363712Y-102547218D01*
X76327402Y-102427520D01*
X76268437Y-102317206D01*
X76189085Y-102220515D01*
X76092394Y-102141163D01*
X75982080Y-102082198D01*
X75862382Y-102045888D01*
X75737900Y-102033628D01*
X73537900Y-102033628D01*
X73413418Y-102045888D01*
X73293720Y-102082198D01*
X73183406Y-102141163D01*
X73086715Y-102220515D01*
X73007363Y-102317206D01*
X72948398Y-102427520D01*
X72912088Y-102547218D01*
X72899828Y-102671700D01*
X66742732Y-102671700D01*
X66703694Y-102639663D01*
X66593380Y-102580698D01*
X66473682Y-102544388D01*
X66349200Y-102532128D01*
X63749200Y-102532128D01*
X63624718Y-102544388D01*
X63505020Y-102580698D01*
X63394706Y-102639663D01*
X63298015Y-102719015D01*
X63218663Y-102815706D01*
X63159698Y-102926020D01*
X63123388Y-103045718D01*
X63111128Y-103170200D01*
X63111128Y-105770200D01*
X63123388Y-105894682D01*
X63159698Y-106014380D01*
X63218663Y-106124694D01*
X63298015Y-106221385D01*
X63394706Y-106300737D01*
X63505020Y-106359702D01*
X63624718Y-106396012D01*
X63749200Y-106408272D01*
X66349200Y-106408272D01*
X66473682Y-106396012D01*
X66593380Y-106359702D01*
X66703694Y-106300737D01*
X66800385Y-106221385D01*
X66879737Y-106124694D01*
X66938702Y-106014380D01*
X66975012Y-105894682D01*
X66987272Y-105770200D01*
X66987272Y-105230200D01*
X70424199Y-105230200D01*
X71452200Y-106258203D01*
X71452200Y-106536012D01*
X71252213Y-106236709D01*
X70982691Y-105967187D01*
X70665766Y-105755425D01*
X70313619Y-105609561D01*
X69939781Y-105535200D01*
X69558619Y-105535200D01*
X69184781Y-105609561D01*
X68832634Y-105755425D01*
X68515709Y-105967187D01*
X68246187Y-106236709D01*
X68034425Y-106553634D01*
X67888561Y-106905781D01*
X67814200Y-107279619D01*
X67814200Y-107660781D01*
X67888561Y-108034619D01*
X68034425Y-108386766D01*
X68246187Y-108703691D01*
X68515709Y-108973213D01*
X68832634Y-109184975D01*
X69184781Y-109330839D01*
X69558619Y-109405200D01*
X69939781Y-109405200D01*
X70313619Y-109330839D01*
X70665766Y-109184975D01*
X70982691Y-108973213D01*
X71252213Y-108703691D01*
X71452200Y-108404388D01*
X71452201Y-111697268D01*
X71448524Y-111734600D01*
X71463198Y-111883585D01*
X71506654Y-112026846D01*
X71577226Y-112158876D01*
X71648401Y-112245602D01*
X71672200Y-112274601D01*
X71701197Y-112298399D01*
X72463971Y-113061174D01*
X72487765Y-113090167D01*
X72516758Y-113113961D01*
X72516762Y-113113965D01*
X72571955Y-113159260D01*
X72603490Y-113185140D01*
X72735519Y-113255712D01*
X72878780Y-113299169D01*
X72899828Y-113301242D01*
X72899828Y-113650166D01*
X72912088Y-113774648D01*
X72948398Y-113894346D01*
X73007363Y-114004660D01*
X73086715Y-114101351D01*
X73183406Y-114180703D01*
X73293720Y-114239668D01*
X73413418Y-114275978D01*
X73537900Y-114288238D01*
X73877900Y-114288238D01*
X73877901Y-115376251D01*
X73816069Y-115401863D01*
X73531902Y-115591737D01*
X73290237Y-115833402D01*
X73100363Y-116117569D01*
X72969575Y-116433319D01*
X72902900Y-116768517D01*
X72902900Y-117110283D01*
X72969575Y-117445481D01*
X73100363Y-117761231D01*
X73290237Y-118045398D01*
X73531902Y-118287063D01*
X73610650Y-118339680D01*
X60418726Y-118339951D01*
X60603549Y-118063343D01*
X60804600Y-117577963D01*
X60907095Y-117062686D01*
X60907095Y-116537314D01*
X60804600Y-116022037D01*
X60603549Y-115536657D01*
X60311668Y-115099826D01*
X59940174Y-114728332D01*
X59503343Y-114436451D01*
X59017963Y-114235400D01*
X58502686Y-114132905D01*
X57977314Y-114132905D01*
X57462037Y-114235400D01*
X56976657Y-114436451D01*
X56660000Y-114648034D01*
X56660000Y-110279619D01*
X63114200Y-110279619D01*
X63114200Y-110660781D01*
X63188561Y-111034619D01*
X63334425Y-111386766D01*
X63546187Y-111703691D01*
X63815709Y-111973213D01*
X64132634Y-112184975D01*
X64484781Y-112330839D01*
X64858619Y-112405200D01*
X65239781Y-112405200D01*
X65613619Y-112330839D01*
X65965766Y-112184975D01*
X66282691Y-111973213D01*
X66552213Y-111703691D01*
X66763975Y-111386766D01*
X66909839Y-111034619D01*
X66984200Y-110660781D01*
X66984200Y-110279619D01*
X66909839Y-109905781D01*
X66763975Y-109553634D01*
X66552213Y-109236709D01*
X66282691Y-108967187D01*
X65965766Y-108755425D01*
X65613619Y-108609561D01*
X65239781Y-108535200D01*
X64858619Y-108535200D01*
X64484781Y-108609561D01*
X64132634Y-108755425D01*
X63815709Y-108967187D01*
X63546187Y-109236709D01*
X63334425Y-109553634D01*
X63188561Y-109905781D01*
X63114200Y-110279619D01*
X56660000Y-110279619D01*
X56660000Y-99732100D01*
X87209528Y-99732100D01*
X87209528Y-101532100D01*
X87221788Y-101656582D01*
X87258098Y-101776280D01*
X87317063Y-101886594D01*
X87396415Y-101983285D01*
X87493106Y-102062637D01*
X87603420Y-102121602D01*
X87723118Y-102157912D01*
X87847600Y-102170172D01*
X87987600Y-102170172D01*
X87987601Y-106084141D01*
X87756641Y-106238463D01*
X87556763Y-106438341D01*
X87399720Y-106673373D01*
X87291547Y-106934526D01*
X87236400Y-107211765D01*
X87236400Y-107494435D01*
X87291547Y-107771674D01*
X87399720Y-108032827D01*
X87556763Y-108267859D01*
X87756641Y-108467737D01*
X87991673Y-108624780D01*
X88252826Y-108732953D01*
X88530065Y-108788100D01*
X88812735Y-108788100D01*
X89089974Y-108732953D01*
X89351127Y-108624780D01*
X89586159Y-108467737D01*
X89786037Y-108267859D01*
X89943080Y-108032827D01*
X90051253Y-107771674D01*
X90106400Y-107494435D01*
X90106400Y-107237165D01*
X91643300Y-107237165D01*
X91643300Y-107519835D01*
X91698447Y-107797074D01*
X91806620Y-108058227D01*
X91963663Y-108293259D01*
X92163541Y-108493137D01*
X92398573Y-108650180D01*
X92659726Y-108758353D01*
X92936965Y-108813500D01*
X93219635Y-108813500D01*
X93496874Y-108758353D01*
X93731663Y-108661100D01*
X98033028Y-108661100D01*
X98033028Y-110561100D01*
X98045288Y-110685582D01*
X98081598Y-110805280D01*
X98140563Y-110915594D01*
X98219915Y-111012285D01*
X98316606Y-111091637D01*
X98426920Y-111150602D01*
X98546618Y-111186912D01*
X98671100Y-111199172D01*
X100571100Y-111199172D01*
X100695582Y-111186912D01*
X100815280Y-111150602D01*
X100925594Y-111091637D01*
X101022285Y-111012285D01*
X101101637Y-110915594D01*
X101160602Y-110805280D01*
X101196912Y-110685582D01*
X101209172Y-110561100D01*
X101209172Y-108661100D01*
X101196912Y-108536618D01*
X101160602Y-108416920D01*
X101101637Y-108306606D01*
X101022285Y-108209915D01*
X100925594Y-108130563D01*
X100867079Y-108099286D01*
X101025709Y-107861879D01*
X101145189Y-107573427D01*
X101206100Y-107267209D01*
X101206100Y-106954991D01*
X101145189Y-106648773D01*
X101025709Y-106360321D01*
X100852250Y-106100721D01*
X100631479Y-105879950D01*
X100603268Y-105861100D01*
X100631479Y-105842250D01*
X100852250Y-105621479D01*
X101025709Y-105361879D01*
X101145189Y-105073427D01*
X101206100Y-104767209D01*
X101206100Y-104454991D01*
X101145189Y-104148773D01*
X101025709Y-103860321D01*
X100852250Y-103600721D01*
X100631479Y-103379950D01*
X100371879Y-103206491D01*
X100083427Y-103087011D01*
X99777209Y-103026100D01*
X99464991Y-103026100D01*
X99158773Y-103087011D01*
X98870321Y-103206491D01*
X98610721Y-103379950D01*
X98389950Y-103600721D01*
X98216491Y-103860321D01*
X98097011Y-104148773D01*
X98036100Y-104454991D01*
X98036100Y-104767209D01*
X98097011Y-105073427D01*
X98216491Y-105361879D01*
X98389950Y-105621479D01*
X98610721Y-105842250D01*
X98638932Y-105861100D01*
X98610721Y-105879950D01*
X98389950Y-106100721D01*
X98216491Y-106360321D01*
X98097011Y-106648773D01*
X98036100Y-106954991D01*
X98036100Y-107267209D01*
X98097011Y-107573427D01*
X98216491Y-107861879D01*
X98375121Y-108099286D01*
X98316606Y-108130563D01*
X98219915Y-108209915D01*
X98140563Y-108306606D01*
X98081598Y-108416920D01*
X98045288Y-108536618D01*
X98033028Y-108661100D01*
X93731663Y-108661100D01*
X93758027Y-108650180D01*
X93993059Y-108493137D01*
X94192937Y-108293259D01*
X94349980Y-108058227D01*
X94458153Y-107797074D01*
X94513300Y-107519835D01*
X94513300Y-107237165D01*
X94476988Y-107054613D01*
X99132103Y-102399499D01*
X99161101Y-102375701D01*
X99209107Y-102317206D01*
X99256074Y-102259977D01*
X99326646Y-102127947D01*
X99328571Y-102121602D01*
X99370103Y-101984686D01*
X99381100Y-101873033D01*
X99381100Y-101873023D01*
X99384776Y-101835700D01*
X99381100Y-101798377D01*
X99381100Y-101789172D01*
X99521100Y-101789172D01*
X99645582Y-101776912D01*
X99765280Y-101740602D01*
X99875594Y-101681637D01*
X99972285Y-101602285D01*
X100051637Y-101505594D01*
X100110602Y-101395280D01*
X100146912Y-101275582D01*
X100159172Y-101151100D01*
X100159172Y-99351100D01*
X100146912Y-99226618D01*
X100110602Y-99106920D01*
X100051637Y-98996606D01*
X99972285Y-98899915D01*
X99875594Y-98820563D01*
X99765280Y-98761598D01*
X99746973Y-98756044D01*
X99813412Y-98689605D01*
X99981399Y-98438195D01*
X100097111Y-98158843D01*
X100156100Y-97862284D01*
X100156100Y-97559916D01*
X100097111Y-97263357D01*
X99981399Y-96984005D01*
X99813412Y-96732595D01*
X99599605Y-96518788D01*
X99348195Y-96350801D01*
X99068843Y-96235089D01*
X98772284Y-96176100D01*
X98469916Y-96176100D01*
X98173357Y-96235089D01*
X97894005Y-96350801D01*
X97642595Y-96518788D01*
X97428788Y-96732595D01*
X97260801Y-96984005D01*
X97145089Y-97263357D01*
X97086100Y-97559916D01*
X97086100Y-97862284D01*
X97145089Y-98158843D01*
X97260801Y-98438195D01*
X97428788Y-98689605D01*
X97495227Y-98756044D01*
X97476920Y-98761598D01*
X97366606Y-98820563D01*
X97269915Y-98899915D01*
X97190563Y-98996606D01*
X97131598Y-99106920D01*
X97095288Y-99226618D01*
X97083028Y-99351100D01*
X97083028Y-101151100D01*
X97095288Y-101275582D01*
X97131598Y-101395280D01*
X97190563Y-101505594D01*
X97269915Y-101602285D01*
X97366606Y-101681637D01*
X97476920Y-101740602D01*
X97596618Y-101776912D01*
X97604327Y-101777671D01*
X93402187Y-105979812D01*
X93219635Y-105943500D01*
X92936965Y-105943500D01*
X92659726Y-105998647D01*
X92398573Y-106106820D01*
X92163541Y-106263863D01*
X91963663Y-106463741D01*
X91806620Y-106698773D01*
X91698447Y-106959926D01*
X91643300Y-107237165D01*
X90106400Y-107237165D01*
X90106400Y-107211765D01*
X90051253Y-106934526D01*
X89943080Y-106673373D01*
X89786037Y-106438341D01*
X89586159Y-106238463D01*
X89507600Y-106185972D01*
X89507600Y-102170172D01*
X89647600Y-102170172D01*
X89772082Y-102157912D01*
X89891780Y-102121602D01*
X90002094Y-102062637D01*
X90098785Y-101983285D01*
X90178137Y-101886594D01*
X90237102Y-101776280D01*
X90273412Y-101656582D01*
X90285672Y-101532100D01*
X90285672Y-99732100D01*
X90273412Y-99607618D01*
X90237102Y-99487920D01*
X90178137Y-99377606D01*
X90098785Y-99280915D01*
X90002094Y-99201563D01*
X89891780Y-99142598D01*
X89873473Y-99137044D01*
X89939912Y-99070605D01*
X90107899Y-98819195D01*
X90223611Y-98539843D01*
X90282600Y-98243284D01*
X90282600Y-97940916D01*
X90223611Y-97644357D01*
X90107899Y-97365005D01*
X89939912Y-97113595D01*
X89726105Y-96899788D01*
X89474695Y-96731801D01*
X89195343Y-96616089D01*
X88898784Y-96557100D01*
X88596416Y-96557100D01*
X88299857Y-96616089D01*
X88020505Y-96731801D01*
X87769095Y-96899788D01*
X87555288Y-97113595D01*
X87387301Y-97365005D01*
X87271589Y-97644357D01*
X87212600Y-97940916D01*
X87212600Y-98243284D01*
X87271589Y-98539843D01*
X87387301Y-98819195D01*
X87555288Y-99070605D01*
X87621727Y-99137044D01*
X87603420Y-99142598D01*
X87493106Y-99201563D01*
X87396415Y-99280915D01*
X87317063Y-99377606D01*
X87258098Y-99487920D01*
X87221788Y-99607618D01*
X87209528Y-99732100D01*
X56660000Y-99732100D01*
X56660000Y-95808800D01*
X61811128Y-95808800D01*
X61811128Y-97713800D01*
X61823388Y-97838282D01*
X61859698Y-97957980D01*
X61918663Y-98068294D01*
X61998015Y-98164985D01*
X62094706Y-98244337D01*
X62205020Y-98303302D01*
X62324718Y-98339612D01*
X62449200Y-98351872D01*
X64449200Y-98351872D01*
X64573682Y-98339612D01*
X64693380Y-98303302D01*
X64803694Y-98244337D01*
X64900385Y-98164985D01*
X64979737Y-98068294D01*
X65038702Y-97957980D01*
X65075012Y-97838282D01*
X65087272Y-97713800D01*
X65087272Y-95808800D01*
X65075012Y-95684318D01*
X65038702Y-95564620D01*
X64979737Y-95454306D01*
X64900385Y-95357615D01*
X64803694Y-95278263D01*
X64711981Y-95229241D01*
X64825169Y-95088223D01*
X64968771Y-94812394D01*
X65039763Y-94594280D01*
X64919794Y-94348300D01*
X63576200Y-94348300D01*
X63576200Y-94368300D01*
X63322200Y-94368300D01*
X63322200Y-94348300D01*
X61978606Y-94348300D01*
X61858637Y-94594280D01*
X61929629Y-94812394D01*
X62073231Y-95088223D01*
X62186419Y-95229241D01*
X62094706Y-95278263D01*
X61998015Y-95357615D01*
X61918663Y-95454306D01*
X61859698Y-95564620D01*
X61823388Y-95684318D01*
X61811128Y-95808800D01*
X56660000Y-95808800D01*
X56660000Y-94262700D01*
X74892128Y-94262700D01*
X74892128Y-96262700D01*
X74904388Y-96387182D01*
X74940698Y-96506880D01*
X74999663Y-96617194D01*
X75079015Y-96713885D01*
X75175706Y-96793237D01*
X75286020Y-96852202D01*
X75405718Y-96888512D01*
X75530200Y-96900772D01*
X77530200Y-96900772D01*
X77654682Y-96888512D01*
X77774380Y-96852202D01*
X77884694Y-96793237D01*
X77981385Y-96713885D01*
X78060737Y-96617194D01*
X78119702Y-96506880D01*
X78156012Y-96387182D01*
X78168272Y-96262700D01*
X78168272Y-94262700D01*
X78156012Y-94138218D01*
X78119702Y-94018520D01*
X78060737Y-93908206D01*
X77981385Y-93811515D01*
X77884694Y-93732163D01*
X77774380Y-93673198D01*
X77654682Y-93636888D01*
X77530200Y-93624628D01*
X75530200Y-93624628D01*
X75405718Y-93636888D01*
X75286020Y-93673198D01*
X75175706Y-93732163D01*
X75079015Y-93811515D01*
X74999663Y-93908206D01*
X74940698Y-94018520D01*
X74904388Y-94138218D01*
X74892128Y-94262700D01*
X56660000Y-94262700D01*
X56660000Y-91681300D01*
X61806519Y-91681300D01*
X61837170Y-91992504D01*
X61927945Y-92291749D01*
X62075355Y-92567535D01*
X62273737Y-92809263D01*
X62453099Y-92956463D01*
X62267885Y-93111863D01*
X62073231Y-93354377D01*
X61929629Y-93630206D01*
X61858637Y-93848320D01*
X61978606Y-94094300D01*
X63322200Y-94094300D01*
X63322200Y-94074300D01*
X63576200Y-94074300D01*
X63576200Y-94094300D01*
X64919794Y-94094300D01*
X65039763Y-93848320D01*
X64968771Y-93630206D01*
X64825169Y-93354377D01*
X64630515Y-93111863D01*
X64445301Y-92956463D01*
X64624663Y-92809263D01*
X64823045Y-92567535D01*
X64970455Y-92291749D01*
X65061230Y-91992504D01*
X65091881Y-91681300D01*
X65063990Y-91398113D01*
X75574392Y-91398113D01*
X75670156Y-91662514D01*
X75959771Y-91803404D01*
X76271308Y-91885084D01*
X76592795Y-91904418D01*
X76911875Y-91860661D01*
X77216288Y-91755495D01*
X77390244Y-91662514D01*
X77486008Y-91398113D01*
X76530200Y-90442305D01*
X75574392Y-91398113D01*
X65063990Y-91398113D01*
X65061230Y-91370096D01*
X64970455Y-91070851D01*
X64823045Y-90795065D01*
X64624663Y-90553337D01*
X64382935Y-90354955D01*
X64327445Y-90325295D01*
X74888482Y-90325295D01*
X74932239Y-90644375D01*
X75037405Y-90948788D01*
X75130386Y-91122744D01*
X75394787Y-91218508D01*
X76350595Y-90262700D01*
X76709805Y-90262700D01*
X77665613Y-91218508D01*
X77930014Y-91122744D01*
X78070904Y-90833129D01*
X78152584Y-90521592D01*
X78153100Y-90513000D01*
X85709328Y-90513000D01*
X85709328Y-92113000D01*
X85721588Y-92237482D01*
X85757898Y-92357180D01*
X85816863Y-92467494D01*
X85896215Y-92564185D01*
X85992906Y-92643537D01*
X86103220Y-92702502D01*
X86222918Y-92738812D01*
X86347400Y-92751072D01*
X87947400Y-92751072D01*
X88071882Y-92738812D01*
X88191580Y-92702502D01*
X88301894Y-92643537D01*
X88398585Y-92564185D01*
X88477937Y-92467494D01*
X88536902Y-92357180D01*
X88552517Y-92305702D01*
X88834303Y-92305702D01*
X88905886Y-92549671D01*
X89161396Y-92670571D01*
X89435584Y-92739300D01*
X89717912Y-92753217D01*
X89997530Y-92711787D01*
X90263692Y-92616603D01*
X90388914Y-92549671D01*
X90401114Y-92508090D01*
X96079624Y-92508090D01*
X96124275Y-92655299D01*
X96249459Y-92918120D01*
X96423512Y-93151469D01*
X96639745Y-93346378D01*
X96889848Y-93495357D01*
X97164209Y-93592681D01*
X97394100Y-93472014D01*
X97394100Y-92278200D01*
X97648100Y-92278200D01*
X97648100Y-93472014D01*
X97877991Y-93592681D01*
X98152352Y-93495357D01*
X98402455Y-93346378D01*
X98618688Y-93151469D01*
X98791100Y-92920320D01*
X98963512Y-93151469D01*
X99179745Y-93346378D01*
X99429848Y-93495357D01*
X99704209Y-93592681D01*
X99934100Y-93472014D01*
X99934100Y-92278200D01*
X100188100Y-92278200D01*
X100188100Y-93472014D01*
X100417991Y-93592681D01*
X100692352Y-93495357D01*
X100942455Y-93346378D01*
X101158688Y-93151469D01*
X101332741Y-92918120D01*
X101457925Y-92655299D01*
X101502576Y-92508090D01*
X101381255Y-92278200D01*
X100188100Y-92278200D01*
X99934100Y-92278200D01*
X97648100Y-92278200D01*
X97394100Y-92278200D01*
X96200945Y-92278200D01*
X96079624Y-92508090D01*
X90401114Y-92508090D01*
X90460497Y-92305702D01*
X89647400Y-91492605D01*
X88834303Y-92305702D01*
X88552517Y-92305702D01*
X88573212Y-92237482D01*
X88585472Y-92113000D01*
X88585472Y-92105785D01*
X88654698Y-92126097D01*
X89467795Y-91313000D01*
X89827005Y-91313000D01*
X90640102Y-92126097D01*
X90884071Y-92054514D01*
X91004971Y-91799004D01*
X91073700Y-91524816D01*
X91087617Y-91242488D01*
X91046187Y-90962870D01*
X90951003Y-90696708D01*
X90884071Y-90571486D01*
X90640102Y-90499903D01*
X89827005Y-91313000D01*
X89467795Y-91313000D01*
X88654698Y-90499903D01*
X88585472Y-90520215D01*
X88585472Y-90513000D01*
X88573212Y-90388518D01*
X88552518Y-90320298D01*
X88834303Y-90320298D01*
X89647400Y-91133395D01*
X90460497Y-90320298D01*
X90388914Y-90076329D01*
X90133404Y-89955429D01*
X89859216Y-89886700D01*
X89576888Y-89872783D01*
X89297270Y-89914213D01*
X89031108Y-90009397D01*
X88905886Y-90076329D01*
X88834303Y-90320298D01*
X88552518Y-90320298D01*
X88536902Y-90268820D01*
X88477937Y-90158506D01*
X88398585Y-90061815D01*
X88301894Y-89982463D01*
X88191580Y-89923498D01*
X88071882Y-89887188D01*
X87947400Y-89874928D01*
X86347400Y-89874928D01*
X86222918Y-89887188D01*
X86103220Y-89923498D01*
X85992906Y-89982463D01*
X85896215Y-90061815D01*
X85816863Y-90158506D01*
X85757898Y-90268820D01*
X85721588Y-90388518D01*
X85709328Y-90513000D01*
X78153100Y-90513000D01*
X78171918Y-90200105D01*
X78128161Y-89881025D01*
X78022995Y-89576612D01*
X77930014Y-89402656D01*
X77665613Y-89306892D01*
X76709805Y-90262700D01*
X76350595Y-90262700D01*
X75394787Y-89306892D01*
X75130386Y-89402656D01*
X74989496Y-89692271D01*
X74907816Y-90003808D01*
X74888482Y-90325295D01*
X64327445Y-90325295D01*
X64107149Y-90207545D01*
X63807904Y-90116770D01*
X63574686Y-90093800D01*
X63323714Y-90093800D01*
X63090496Y-90116770D01*
X62791251Y-90207545D01*
X62515465Y-90354955D01*
X62273737Y-90553337D01*
X62075355Y-90795065D01*
X61927945Y-91070851D01*
X61837170Y-91370096D01*
X61806519Y-91681300D01*
X56660000Y-91681300D01*
X56660000Y-90441811D01*
X56953087Y-90637645D01*
X57447523Y-90842447D01*
X57972413Y-90946854D01*
X58507587Y-90946854D01*
X59032477Y-90842447D01*
X59526913Y-90637645D01*
X59971894Y-90340319D01*
X60350319Y-89961894D01*
X60647645Y-89516913D01*
X60809033Y-89127287D01*
X75574392Y-89127287D01*
X76530200Y-90083095D01*
X77486008Y-89127287D01*
X77390244Y-88862886D01*
X77181218Y-88761200D01*
X96033028Y-88761200D01*
X96033028Y-90461200D01*
X96045288Y-90585682D01*
X96081598Y-90705380D01*
X96140563Y-90815694D01*
X96219915Y-90912385D01*
X96316606Y-90991737D01*
X96426920Y-91050702D01*
X96507566Y-91075166D01*
X96423512Y-91150931D01*
X96249459Y-91384280D01*
X96124275Y-91647101D01*
X96079624Y-91794310D01*
X96200945Y-92024200D01*
X97394100Y-92024200D01*
X97394100Y-92004200D01*
X97648100Y-92004200D01*
X97648100Y-92024200D01*
X99934100Y-92024200D01*
X99934100Y-92004200D01*
X100188100Y-92004200D01*
X100188100Y-92024200D01*
X101381255Y-92024200D01*
X101502576Y-91794310D01*
X101457925Y-91647101D01*
X101332741Y-91384280D01*
X101158688Y-91150931D01*
X100942455Y-90956022D01*
X100825566Y-90886395D01*
X101007732Y-90764675D01*
X101214575Y-90557832D01*
X101377090Y-90314611D01*
X101489032Y-90044358D01*
X101546100Y-89757460D01*
X101546100Y-89464940D01*
X101489032Y-89178042D01*
X101377090Y-88907789D01*
X101214575Y-88664568D01*
X101007732Y-88457725D01*
X100764511Y-88295210D01*
X100494258Y-88183268D01*
X100207360Y-88126200D01*
X99914840Y-88126200D01*
X99627942Y-88183268D01*
X99357689Y-88295210D01*
X99114468Y-88457725D01*
X98982613Y-88589580D01*
X98960602Y-88517020D01*
X98901637Y-88406706D01*
X98822285Y-88310015D01*
X98725594Y-88230663D01*
X98615280Y-88171698D01*
X98495582Y-88135388D01*
X98371100Y-88123128D01*
X96671100Y-88123128D01*
X96546618Y-88135388D01*
X96426920Y-88171698D01*
X96316606Y-88230663D01*
X96219915Y-88310015D01*
X96140563Y-88406706D01*
X96081598Y-88517020D01*
X96045288Y-88636718D01*
X96033028Y-88761200D01*
X77181218Y-88761200D01*
X77100629Y-88721996D01*
X76789092Y-88640316D01*
X76467605Y-88620982D01*
X76148525Y-88664739D01*
X75844112Y-88769905D01*
X75670156Y-88862886D01*
X75574392Y-89127287D01*
X60809033Y-89127287D01*
X60852447Y-89022477D01*
X60956854Y-88497587D01*
X60956854Y-87962413D01*
X60852447Y-87437523D01*
X60647645Y-86943087D01*
X60458493Y-86660000D01*
X102611353Y-86660000D01*
X102406451Y-86966657D01*
G37*
X102406451Y-86966657D02*
X102205400Y-87452037D01*
X102102905Y-87967314D01*
X102102905Y-88492686D01*
X102205400Y-89007963D01*
X102406451Y-89493343D01*
X102698332Y-89930174D01*
X103069826Y-90301668D01*
X103506657Y-90593549D01*
X103992037Y-90794600D01*
X104507314Y-90897095D01*
X105032686Y-90897095D01*
X105547963Y-90794600D01*
X106033343Y-90593549D01*
X106337839Y-90390091D01*
X106339809Y-114641225D01*
X106033343Y-114436451D01*
X105547963Y-114235400D01*
X105032686Y-114132905D01*
X104507314Y-114132905D01*
X103992037Y-114235400D01*
X103506657Y-114436451D01*
X103069826Y-114728332D01*
X102698332Y-115099826D01*
X102406451Y-115536657D01*
X102205400Y-116022037D01*
X102102905Y-116537314D01*
X102102905Y-117062686D01*
X102205400Y-117577963D01*
X102406451Y-118063343D01*
X102590697Y-118339086D01*
X94113049Y-118339260D01*
X94314971Y-118280014D01*
X94435871Y-118024504D01*
X94504600Y-117750316D01*
X94518517Y-117467988D01*
X94477087Y-117188370D01*
X94448342Y-117107990D01*
X96079624Y-117107990D01*
X96124275Y-117255199D01*
X96249459Y-117518020D01*
X96423512Y-117751369D01*
X96639745Y-117946278D01*
X96889848Y-118095257D01*
X97164209Y-118192581D01*
X97394100Y-118071914D01*
X97394100Y-116878100D01*
X97648100Y-116878100D01*
X97648100Y-118071914D01*
X97877991Y-118192581D01*
X98152352Y-118095257D01*
X98402455Y-117946278D01*
X98618688Y-117751369D01*
X98791100Y-117520220D01*
X98963512Y-117751369D01*
X99179745Y-117946278D01*
X99429848Y-118095257D01*
X99704209Y-118192581D01*
X99934100Y-118071914D01*
X99934100Y-116878100D01*
X100188100Y-116878100D01*
X100188100Y-118071914D01*
X100417991Y-118192581D01*
X100692352Y-118095257D01*
X100942455Y-117946278D01*
X101158688Y-117751369D01*
X101332741Y-117518020D01*
X101457925Y-117255199D01*
X101502576Y-117107990D01*
X101381255Y-116878100D01*
X100188100Y-116878100D01*
X99934100Y-116878100D01*
X97648100Y-116878100D01*
X97394100Y-116878100D01*
X96200945Y-116878100D01*
X96079624Y-117107990D01*
X94448342Y-117107990D01*
X94381903Y-116922208D01*
X94314971Y-116796986D01*
X94071002Y-116725403D01*
X93257905Y-117538500D01*
X93272048Y-117552643D01*
X93092443Y-117732248D01*
X93078300Y-117718105D01*
X93064158Y-117732248D01*
X92884553Y-117552643D01*
X92898695Y-117538500D01*
X92085598Y-116725403D01*
X91841629Y-116796986D01*
X91720729Y-117052496D01*
X91652000Y-117326684D01*
X91638083Y-117609012D01*
X91679513Y-117888630D01*
X91774697Y-118154792D01*
X91841629Y-118280014D01*
X92043696Y-118339303D01*
X89677258Y-118339351D01*
X89664104Y-118326197D01*
X89908071Y-118254614D01*
X90028971Y-117999104D01*
X90097700Y-117724916D01*
X90111617Y-117442588D01*
X90070187Y-117162970D01*
X89975003Y-116896808D01*
X89908071Y-116771586D01*
X89664102Y-116700003D01*
X88851005Y-117513100D01*
X88865148Y-117527243D01*
X88685543Y-117706848D01*
X88671400Y-117692705D01*
X88657258Y-117706848D01*
X88477653Y-117527243D01*
X88491795Y-117513100D01*
X87678698Y-116700003D01*
X87434729Y-116771586D01*
X87313829Y-117027096D01*
X87245100Y-117301284D01*
X87231183Y-117583612D01*
X87272613Y-117863230D01*
X87367797Y-118129392D01*
X87434729Y-118254614D01*
X87678696Y-118326197D01*
X87665501Y-118339392D01*
X86457556Y-118339417D01*
X86487402Y-118283580D01*
X86523712Y-118163882D01*
X86535972Y-118039400D01*
X86535972Y-116520398D01*
X87858303Y-116520398D01*
X88671400Y-117333495D01*
X89459097Y-116545798D01*
X92265203Y-116545798D01*
X93078300Y-117358895D01*
X93891397Y-116545798D01*
X93819814Y-116301829D01*
X93564304Y-116180929D01*
X93290116Y-116112200D01*
X93007788Y-116098283D01*
X92728170Y-116139713D01*
X92462008Y-116234897D01*
X92336786Y-116301829D01*
X92265203Y-116545798D01*
X89459097Y-116545798D01*
X89484497Y-116520398D01*
X89412914Y-116276429D01*
X89157404Y-116155529D01*
X88883216Y-116086800D01*
X88600888Y-116072883D01*
X88321270Y-116114313D01*
X88055108Y-116209497D01*
X87929886Y-116276429D01*
X87858303Y-116520398D01*
X86535972Y-116520398D01*
X86535972Y-115839400D01*
X86523712Y-115714918D01*
X86487402Y-115595220D01*
X86428437Y-115484906D01*
X86349085Y-115388215D01*
X86252394Y-115308863D01*
X86142080Y-115249898D01*
X86022382Y-115213588D01*
X85897900Y-115201328D01*
X83697900Y-115201328D01*
X83573418Y-115213588D01*
X83453720Y-115249898D01*
X83343406Y-115308863D01*
X83246715Y-115388215D01*
X83167363Y-115484906D01*
X83108398Y-115595220D01*
X83072088Y-115714918D01*
X83059828Y-115839400D01*
X83059828Y-118039400D01*
X83072088Y-118163882D01*
X83108398Y-118283580D01*
X83138280Y-118339485D01*
X75665213Y-118339638D01*
X75743898Y-118287063D01*
X75985563Y-118045398D01*
X76175437Y-117761231D01*
X76306225Y-117445481D01*
X76372900Y-117110283D01*
X76372900Y-116768517D01*
X76306225Y-116433319D01*
X76175437Y-116117569D01*
X75985563Y-115833402D01*
X75743898Y-115591737D01*
X75459731Y-115401863D01*
X75397900Y-115376252D01*
X75397900Y-114288238D01*
X75737900Y-114288238D01*
X75862382Y-114275978D01*
X75982080Y-114239668D01*
X76092394Y-114180703D01*
X76189085Y-114101351D01*
X76268437Y-114004660D01*
X76327402Y-113894346D01*
X76363712Y-113774648D01*
X76375972Y-113650166D01*
X76375972Y-112946288D01*
X83108725Y-112946288D01*
X83173325Y-113159260D01*
X83323369Y-113464495D01*
X83530078Y-113734593D01*
X83785509Y-113959174D01*
X84079846Y-114129608D01*
X84401777Y-114239345D01*
X84670900Y-114121766D01*
X84670900Y-112677166D01*
X84924900Y-112677166D01*
X84924900Y-114121766D01*
X85194023Y-114239345D01*
X85515954Y-114129608D01*
X85810291Y-113959174D01*
X86065722Y-113734593D01*
X86272431Y-113464495D01*
X86323256Y-113361100D01*
X96033028Y-113361100D01*
X96033028Y-115061100D01*
X96045288Y-115185582D01*
X96081598Y-115305280D01*
X96140563Y-115415594D01*
X96219915Y-115512285D01*
X96316606Y-115591637D01*
X96426920Y-115650602D01*
X96507566Y-115675066D01*
X96423512Y-115750831D01*
X96249459Y-115984180D01*
X96124275Y-116247001D01*
X96079624Y-116394210D01*
X96200945Y-116624100D01*
X97394100Y-116624100D01*
X97394100Y-116604100D01*
X97648100Y-116604100D01*
X97648100Y-116624100D01*
X99934100Y-116624100D01*
X99934100Y-116604100D01*
X100188100Y-116604100D01*
X100188100Y-116624100D01*
X101381255Y-116624100D01*
X101502576Y-116394210D01*
X101457925Y-116247001D01*
X101332741Y-115984180D01*
X101158688Y-115750831D01*
X100942455Y-115555922D01*
X100825566Y-115486295D01*
X101007732Y-115364575D01*
X101214575Y-115157732D01*
X101377090Y-114914511D01*
X101489032Y-114644258D01*
X101546100Y-114357360D01*
X101546100Y-114064840D01*
X101489032Y-113777942D01*
X101377090Y-113507689D01*
X101214575Y-113264468D01*
X101007732Y-113057625D01*
X100764511Y-112895110D01*
X100494258Y-112783168D01*
X100207360Y-112726100D01*
X99914840Y-112726100D01*
X99627942Y-112783168D01*
X99357689Y-112895110D01*
X99114468Y-113057625D01*
X98982613Y-113189480D01*
X98960602Y-113116920D01*
X98901637Y-113006606D01*
X98822285Y-112909915D01*
X98725594Y-112830563D01*
X98615280Y-112771598D01*
X98495582Y-112735288D01*
X98371100Y-112723028D01*
X96671100Y-112723028D01*
X96546618Y-112735288D01*
X96426920Y-112771598D01*
X96316606Y-112830563D01*
X96219915Y-112909915D01*
X96140563Y-113006606D01*
X96081598Y-113116920D01*
X96045288Y-113236618D01*
X96033028Y-113361100D01*
X86323256Y-113361100D01*
X86422475Y-113159260D01*
X86487075Y-112946288D01*
X86369025Y-112677166D01*
X84924900Y-112677166D01*
X84670900Y-112677166D01*
X83226775Y-112677166D01*
X83108725Y-112946288D01*
X76375972Y-112946288D01*
X76375972Y-112154044D01*
X83108725Y-112154044D01*
X83226775Y-112423166D01*
X84670900Y-112423166D01*
X84670900Y-110978566D01*
X84924900Y-110978566D01*
X84924900Y-112423166D01*
X86369025Y-112423166D01*
X86487075Y-112154044D01*
X86422475Y-111941072D01*
X86272431Y-111635837D01*
X86065722Y-111365739D01*
X85810291Y-111141158D01*
X85515954Y-110970724D01*
X85194023Y-110860987D01*
X84924900Y-110978566D01*
X84670900Y-110978566D01*
X84401777Y-110860987D01*
X84079846Y-110970724D01*
X83785509Y-111141158D01*
X83530078Y-111365739D01*
X83323369Y-111635837D01*
X83173325Y-111941072D01*
X83108725Y-112154044D01*
X76375972Y-112154044D01*
X76375972Y-111450166D01*
X76363712Y-111325684D01*
X76327402Y-111205986D01*
X76268437Y-111095672D01*
X76189085Y-110998981D01*
X76092394Y-110919629D01*
X75982080Y-110860664D01*
X75862382Y-110824354D01*
X75737900Y-110812094D01*
X73537900Y-110812094D01*
X73413418Y-110824354D01*
X73293720Y-110860664D01*
X73183406Y-110919629D01*
X73086715Y-110998981D01*
X73007363Y-111095672D01*
X72972200Y-111161456D01*
X72972200Y-108673351D01*
X73100363Y-108982764D01*
X73290237Y-109266931D01*
X73531902Y-109508596D01*
X73816069Y-109698470D01*
X74131819Y-109829258D01*
X74467017Y-109895933D01*
X74808783Y-109895933D01*
X75143981Y-109829258D01*
X75459731Y-109698470D01*
X75743898Y-109508596D01*
X75985563Y-109266931D01*
X76175437Y-108982764D01*
X76306225Y-108667014D01*
X76372900Y-108331816D01*
X76372900Y-107990050D01*
X76306225Y-107654852D01*
X76175437Y-107339102D01*
X75989571Y-107060933D01*
X83059828Y-107060933D01*
X83059828Y-109260933D01*
X83072088Y-109385415D01*
X83108398Y-109505113D01*
X83167363Y-109615427D01*
X83246715Y-109712118D01*
X83343406Y-109791470D01*
X83453720Y-109850435D01*
X83573418Y-109886745D01*
X83697900Y-109899005D01*
X85897900Y-109899005D01*
X86022382Y-109886745D01*
X86142080Y-109850435D01*
X86252394Y-109791470D01*
X86349085Y-109712118D01*
X86428437Y-109615427D01*
X86487402Y-109505113D01*
X86523712Y-109385415D01*
X86535972Y-109260933D01*
X86535972Y-107060933D01*
X86523712Y-106936451D01*
X86487402Y-106816753D01*
X86428437Y-106706439D01*
X86349085Y-106609748D01*
X86252394Y-106530396D01*
X86142080Y-106471431D01*
X86022382Y-106435121D01*
X85897900Y-106422861D01*
X83697900Y-106422861D01*
X83573418Y-106435121D01*
X83453720Y-106471431D01*
X83343406Y-106530396D01*
X83246715Y-106609748D01*
X83167363Y-106706439D01*
X83108398Y-106816753D01*
X83072088Y-106936451D01*
X83059828Y-107060933D01*
X75989571Y-107060933D01*
X75985563Y-107054935D01*
X75743898Y-106813270D01*
X75459731Y-106623396D01*
X75143981Y-106492608D01*
X74808783Y-106425933D01*
X74467017Y-106425933D01*
X74131819Y-106492608D01*
X73816069Y-106623396D01*
X73531902Y-106813270D01*
X73290237Y-107054935D01*
X73100363Y-107339102D01*
X72972200Y-107648515D01*
X72972200Y-105980722D01*
X72975876Y-105943399D01*
X72972200Y-105906076D01*
X72972200Y-105906067D01*
X72961203Y-105794414D01*
X72917746Y-105651153D01*
X72847174Y-105519124D01*
X72834011Y-105503085D01*
X72775999Y-105432396D01*
X72775995Y-105432392D01*
X72752201Y-105403399D01*
X72723209Y-105379606D01*
X71302803Y-103959202D01*
X71279001Y-103930199D01*
X71163276Y-103835226D01*
X71031247Y-103764654D01*
X70887986Y-103721197D01*
X70776333Y-103710200D01*
X70776322Y-103710200D01*
X70739000Y-103706524D01*
X70701678Y-103710200D01*
X66987272Y-103710200D01*
X66987272Y-103170200D01*
X66975012Y-103045718D01*
X66938702Y-102926020D01*
X66879737Y-102815706D01*
X66800385Y-102719015D01*
X66742732Y-102671700D01*
X72899828Y-102671700D01*
X72899828Y-104871700D01*
X72912088Y-104996182D01*
X72948398Y-105115880D01*
X73007363Y-105226194D01*
X73086715Y-105322885D01*
X73183406Y-105402237D01*
X73293720Y-105461202D01*
X73413418Y-105497512D01*
X73537900Y-105509772D01*
X75737900Y-105509772D01*
X75862382Y-105497512D01*
X75982080Y-105461202D01*
X76092394Y-105402237D01*
X76189085Y-105322885D01*
X76268437Y-105226194D01*
X76327402Y-105115880D01*
X76363712Y-104996182D01*
X76375972Y-104871700D01*
X76375972Y-104167822D01*
X83108725Y-104167822D01*
X83173325Y-104380794D01*
X83323369Y-104686029D01*
X83530078Y-104956127D01*
X83785509Y-105180708D01*
X84079846Y-105351142D01*
X84401777Y-105460879D01*
X84670900Y-105343300D01*
X84670900Y-103898700D01*
X84924900Y-103898700D01*
X84924900Y-105343300D01*
X85194023Y-105460879D01*
X85515954Y-105351142D01*
X85810291Y-105180708D01*
X86065722Y-104956127D01*
X86272431Y-104686029D01*
X86422475Y-104380794D01*
X86487075Y-104167822D01*
X86369025Y-103898700D01*
X84924900Y-103898700D01*
X84670900Y-103898700D01*
X83226775Y-103898700D01*
X83108725Y-104167822D01*
X76375972Y-104167822D01*
X76375972Y-103375578D01*
X83108725Y-103375578D01*
X83226775Y-103644700D01*
X84670900Y-103644700D01*
X84670900Y-102200100D01*
X84924900Y-102200100D01*
X84924900Y-103644700D01*
X86369025Y-103644700D01*
X86487075Y-103375578D01*
X86422475Y-103162606D01*
X86272431Y-102857371D01*
X86065722Y-102587273D01*
X85810291Y-102362692D01*
X85515954Y-102192258D01*
X85194023Y-102082521D01*
X84924900Y-102200100D01*
X84670900Y-102200100D01*
X84401777Y-102082521D01*
X84079846Y-102192258D01*
X83785509Y-102362692D01*
X83530078Y-102587273D01*
X83323369Y-102857371D01*
X83173325Y-103162606D01*
X83108725Y-103375578D01*
X76375972Y-103375578D01*
X76375972Y-102671700D01*
X76363712Y-102547218D01*
X76327402Y-102427520D01*
X76268437Y-102317206D01*
X76189085Y-102220515D01*
X76092394Y-102141163D01*
X75982080Y-102082198D01*
X75862382Y-102045888D01*
X75737900Y-102033628D01*
X73537900Y-102033628D01*
X73413418Y-102045888D01*
X73293720Y-102082198D01*
X73183406Y-102141163D01*
X73086715Y-102220515D01*
X73007363Y-102317206D01*
X72948398Y-102427520D01*
X72912088Y-102547218D01*
X72899828Y-102671700D01*
X66742732Y-102671700D01*
X66703694Y-102639663D01*
X66593380Y-102580698D01*
X66473682Y-102544388D01*
X66349200Y-102532128D01*
X63749200Y-102532128D01*
X63624718Y-102544388D01*
X63505020Y-102580698D01*
X63394706Y-102639663D01*
X63298015Y-102719015D01*
X63218663Y-102815706D01*
X63159698Y-102926020D01*
X63123388Y-103045718D01*
X63111128Y-103170200D01*
X63111128Y-105770200D01*
X63123388Y-105894682D01*
X63159698Y-106014380D01*
X63218663Y-106124694D01*
X63298015Y-106221385D01*
X63394706Y-106300737D01*
X63505020Y-106359702D01*
X63624718Y-106396012D01*
X63749200Y-106408272D01*
X66349200Y-106408272D01*
X66473682Y-106396012D01*
X66593380Y-106359702D01*
X66703694Y-106300737D01*
X66800385Y-106221385D01*
X66879737Y-106124694D01*
X66938702Y-106014380D01*
X66975012Y-105894682D01*
X66987272Y-105770200D01*
X66987272Y-105230200D01*
X70424199Y-105230200D01*
X71452200Y-106258203D01*
X71452200Y-106536012D01*
X71252213Y-106236709D01*
X70982691Y-105967187D01*
X70665766Y-105755425D01*
X70313619Y-105609561D01*
X69939781Y-105535200D01*
X69558619Y-105535200D01*
X69184781Y-105609561D01*
X68832634Y-105755425D01*
X68515709Y-105967187D01*
X68246187Y-106236709D01*
X68034425Y-106553634D01*
X67888561Y-106905781D01*
X67814200Y-107279619D01*
X67814200Y-107660781D01*
X67888561Y-108034619D01*
X68034425Y-108386766D01*
X68246187Y-108703691D01*
X68515709Y-108973213D01*
X68832634Y-109184975D01*
X69184781Y-109330839D01*
X69558619Y-109405200D01*
X69939781Y-109405200D01*
X70313619Y-109330839D01*
X70665766Y-109184975D01*
X70982691Y-108973213D01*
X71252213Y-108703691D01*
X71452200Y-108404388D01*
X71452201Y-111697268D01*
X71448524Y-111734600D01*
X71463198Y-111883585D01*
X71506654Y-112026846D01*
X71577226Y-112158876D01*
X71648401Y-112245602D01*
X71672200Y-112274601D01*
X71701197Y-112298399D01*
X72463971Y-113061174D01*
X72487765Y-113090167D01*
X72516758Y-113113961D01*
X72516762Y-113113965D01*
X72571955Y-113159260D01*
X72603490Y-113185140D01*
X72735519Y-113255712D01*
X72878780Y-113299169D01*
X72899828Y-113301242D01*
X72899828Y-113650166D01*
X72912088Y-113774648D01*
X72948398Y-113894346D01*
X73007363Y-114004660D01*
X73086715Y-114101351D01*
X73183406Y-114180703D01*
X73293720Y-114239668D01*
X73413418Y-114275978D01*
X73537900Y-114288238D01*
X73877900Y-114288238D01*
X73877901Y-115376251D01*
X73816069Y-115401863D01*
X73531902Y-115591737D01*
X73290237Y-115833402D01*
X73100363Y-116117569D01*
X72969575Y-116433319D01*
X72902900Y-116768517D01*
X72902900Y-117110283D01*
X72969575Y-117445481D01*
X73100363Y-117761231D01*
X73290237Y-118045398D01*
X73531902Y-118287063D01*
X73610650Y-118339680D01*
X60418726Y-118339951D01*
X60603549Y-118063343D01*
X60804600Y-117577963D01*
X60907095Y-117062686D01*
X60907095Y-116537314D01*
X60804600Y-116022037D01*
X60603549Y-115536657D01*
X60311668Y-115099826D01*
X59940174Y-114728332D01*
X59503343Y-114436451D01*
X59017963Y-114235400D01*
X58502686Y-114132905D01*
X57977314Y-114132905D01*
X57462037Y-114235400D01*
X56976657Y-114436451D01*
X56660000Y-114648034D01*
X56660000Y-110279619D01*
X63114200Y-110279619D01*
X63114200Y-110660781D01*
X63188561Y-111034619D01*
X63334425Y-111386766D01*
X63546187Y-111703691D01*
X63815709Y-111973213D01*
X64132634Y-112184975D01*
X64484781Y-112330839D01*
X64858619Y-112405200D01*
X65239781Y-112405200D01*
X65613619Y-112330839D01*
X65965766Y-112184975D01*
X66282691Y-111973213D01*
X66552213Y-111703691D01*
X66763975Y-111386766D01*
X66909839Y-111034619D01*
X66984200Y-110660781D01*
X66984200Y-110279619D01*
X66909839Y-109905781D01*
X66763975Y-109553634D01*
X66552213Y-109236709D01*
X66282691Y-108967187D01*
X65965766Y-108755425D01*
X65613619Y-108609561D01*
X65239781Y-108535200D01*
X64858619Y-108535200D01*
X64484781Y-108609561D01*
X64132634Y-108755425D01*
X63815709Y-108967187D01*
X63546187Y-109236709D01*
X63334425Y-109553634D01*
X63188561Y-109905781D01*
X63114200Y-110279619D01*
X56660000Y-110279619D01*
X56660000Y-99732100D01*
X87209528Y-99732100D01*
X87209528Y-101532100D01*
X87221788Y-101656582D01*
X87258098Y-101776280D01*
X87317063Y-101886594D01*
X87396415Y-101983285D01*
X87493106Y-102062637D01*
X87603420Y-102121602D01*
X87723118Y-102157912D01*
X87847600Y-102170172D01*
X87987600Y-102170172D01*
X87987601Y-106084141D01*
X87756641Y-106238463D01*
X87556763Y-106438341D01*
X87399720Y-106673373D01*
X87291547Y-106934526D01*
X87236400Y-107211765D01*
X87236400Y-107494435D01*
X87291547Y-107771674D01*
X87399720Y-108032827D01*
X87556763Y-108267859D01*
X87756641Y-108467737D01*
X87991673Y-108624780D01*
X88252826Y-108732953D01*
X88530065Y-108788100D01*
X88812735Y-108788100D01*
X89089974Y-108732953D01*
X89351127Y-108624780D01*
X89586159Y-108467737D01*
X89786037Y-108267859D01*
X89943080Y-108032827D01*
X90051253Y-107771674D01*
X90106400Y-107494435D01*
X90106400Y-107237165D01*
X91643300Y-107237165D01*
X91643300Y-107519835D01*
X91698447Y-107797074D01*
X91806620Y-108058227D01*
X91963663Y-108293259D01*
X92163541Y-108493137D01*
X92398573Y-108650180D01*
X92659726Y-108758353D01*
X92936965Y-108813500D01*
X93219635Y-108813500D01*
X93496874Y-108758353D01*
X93731663Y-108661100D01*
X98033028Y-108661100D01*
X98033028Y-110561100D01*
X98045288Y-110685582D01*
X98081598Y-110805280D01*
X98140563Y-110915594D01*
X98219915Y-111012285D01*
X98316606Y-111091637D01*
X98426920Y-111150602D01*
X98546618Y-111186912D01*
X98671100Y-111199172D01*
X100571100Y-111199172D01*
X100695582Y-111186912D01*
X100815280Y-111150602D01*
X100925594Y-111091637D01*
X101022285Y-111012285D01*
X101101637Y-110915594D01*
X101160602Y-110805280D01*
X101196912Y-110685582D01*
X101209172Y-110561100D01*
X101209172Y-108661100D01*
X101196912Y-108536618D01*
X101160602Y-108416920D01*
X101101637Y-108306606D01*
X101022285Y-108209915D01*
X100925594Y-108130563D01*
X100867079Y-108099286D01*
X101025709Y-107861879D01*
X101145189Y-107573427D01*
X101206100Y-107267209D01*
X101206100Y-106954991D01*
X101145189Y-106648773D01*
X101025709Y-106360321D01*
X100852250Y-106100721D01*
X100631479Y-105879950D01*
X100603268Y-105861100D01*
X100631479Y-105842250D01*
X100852250Y-105621479D01*
X101025709Y-105361879D01*
X101145189Y-105073427D01*
X101206100Y-104767209D01*
X101206100Y-104454991D01*
X101145189Y-104148773D01*
X101025709Y-103860321D01*
X100852250Y-103600721D01*
X100631479Y-103379950D01*
X100371879Y-103206491D01*
X100083427Y-103087011D01*
X99777209Y-103026100D01*
X99464991Y-103026100D01*
X99158773Y-103087011D01*
X98870321Y-103206491D01*
X98610721Y-103379950D01*
X98389950Y-103600721D01*
X98216491Y-103860321D01*
X98097011Y-104148773D01*
X98036100Y-104454991D01*
X98036100Y-104767209D01*
X98097011Y-105073427D01*
X98216491Y-105361879D01*
X98389950Y-105621479D01*
X98610721Y-105842250D01*
X98638932Y-105861100D01*
X98610721Y-105879950D01*
X98389950Y-106100721D01*
X98216491Y-106360321D01*
X98097011Y-106648773D01*
X98036100Y-106954991D01*
X98036100Y-107267209D01*
X98097011Y-107573427D01*
X98216491Y-107861879D01*
X98375121Y-108099286D01*
X98316606Y-108130563D01*
X98219915Y-108209915D01*
X98140563Y-108306606D01*
X98081598Y-108416920D01*
X98045288Y-108536618D01*
X98033028Y-108661100D01*
X93731663Y-108661100D01*
X93758027Y-108650180D01*
X93993059Y-108493137D01*
X94192937Y-108293259D01*
X94349980Y-108058227D01*
X94458153Y-107797074D01*
X94513300Y-107519835D01*
X94513300Y-107237165D01*
X94476988Y-107054613D01*
X99132103Y-102399499D01*
X99161101Y-102375701D01*
X99209107Y-102317206D01*
X99256074Y-102259977D01*
X99326646Y-102127947D01*
X99328571Y-102121602D01*
X99370103Y-101984686D01*
X99381100Y-101873033D01*
X99381100Y-101873023D01*
X99384776Y-101835700D01*
X99381100Y-101798377D01*
X99381100Y-101789172D01*
X99521100Y-101789172D01*
X99645582Y-101776912D01*
X99765280Y-101740602D01*
X99875594Y-101681637D01*
X99972285Y-101602285D01*
X100051637Y-101505594D01*
X100110602Y-101395280D01*
X100146912Y-101275582D01*
X100159172Y-101151100D01*
X100159172Y-99351100D01*
X100146912Y-99226618D01*
X100110602Y-99106920D01*
X100051637Y-98996606D01*
X99972285Y-98899915D01*
X99875594Y-98820563D01*
X99765280Y-98761598D01*
X99746973Y-98756044D01*
X99813412Y-98689605D01*
X99981399Y-98438195D01*
X100097111Y-98158843D01*
X100156100Y-97862284D01*
X100156100Y-97559916D01*
X100097111Y-97263357D01*
X99981399Y-96984005D01*
X99813412Y-96732595D01*
X99599605Y-96518788D01*
X99348195Y-96350801D01*
X99068843Y-96235089D01*
X98772284Y-96176100D01*
X98469916Y-96176100D01*
X98173357Y-96235089D01*
X97894005Y-96350801D01*
X97642595Y-96518788D01*
X97428788Y-96732595D01*
X97260801Y-96984005D01*
X97145089Y-97263357D01*
X97086100Y-97559916D01*
X97086100Y-97862284D01*
X97145089Y-98158843D01*
X97260801Y-98438195D01*
X97428788Y-98689605D01*
X97495227Y-98756044D01*
X97476920Y-98761598D01*
X97366606Y-98820563D01*
X97269915Y-98899915D01*
X97190563Y-98996606D01*
X97131598Y-99106920D01*
X97095288Y-99226618D01*
X97083028Y-99351100D01*
X97083028Y-101151100D01*
X97095288Y-101275582D01*
X97131598Y-101395280D01*
X97190563Y-101505594D01*
X97269915Y-101602285D01*
X97366606Y-101681637D01*
X97476920Y-101740602D01*
X97596618Y-101776912D01*
X97604327Y-101777671D01*
X93402187Y-105979812D01*
X93219635Y-105943500D01*
X92936965Y-105943500D01*
X92659726Y-105998647D01*
X92398573Y-106106820D01*
X92163541Y-106263863D01*
X91963663Y-106463741D01*
X91806620Y-106698773D01*
X91698447Y-106959926D01*
X91643300Y-107237165D01*
X90106400Y-107237165D01*
X90106400Y-107211765D01*
X90051253Y-106934526D01*
X89943080Y-106673373D01*
X89786037Y-106438341D01*
X89586159Y-106238463D01*
X89507600Y-106185972D01*
X89507600Y-102170172D01*
X89647600Y-102170172D01*
X89772082Y-102157912D01*
X89891780Y-102121602D01*
X90002094Y-102062637D01*
X90098785Y-101983285D01*
X90178137Y-101886594D01*
X90237102Y-101776280D01*
X90273412Y-101656582D01*
X90285672Y-101532100D01*
X90285672Y-99732100D01*
X90273412Y-99607618D01*
X90237102Y-99487920D01*
X90178137Y-99377606D01*
X90098785Y-99280915D01*
X90002094Y-99201563D01*
X89891780Y-99142598D01*
X89873473Y-99137044D01*
X89939912Y-99070605D01*
X90107899Y-98819195D01*
X90223611Y-98539843D01*
X90282600Y-98243284D01*
X90282600Y-97940916D01*
X90223611Y-97644357D01*
X90107899Y-97365005D01*
X89939912Y-97113595D01*
X89726105Y-96899788D01*
X89474695Y-96731801D01*
X89195343Y-96616089D01*
X88898784Y-96557100D01*
X88596416Y-96557100D01*
X88299857Y-96616089D01*
X88020505Y-96731801D01*
X87769095Y-96899788D01*
X87555288Y-97113595D01*
X87387301Y-97365005D01*
X87271589Y-97644357D01*
X87212600Y-97940916D01*
X87212600Y-98243284D01*
X87271589Y-98539843D01*
X87387301Y-98819195D01*
X87555288Y-99070605D01*
X87621727Y-99137044D01*
X87603420Y-99142598D01*
X87493106Y-99201563D01*
X87396415Y-99280915D01*
X87317063Y-99377606D01*
X87258098Y-99487920D01*
X87221788Y-99607618D01*
X87209528Y-99732100D01*
X56660000Y-99732100D01*
X56660000Y-95808800D01*
X61811128Y-95808800D01*
X61811128Y-97713800D01*
X61823388Y-97838282D01*
X61859698Y-97957980D01*
X61918663Y-98068294D01*
X61998015Y-98164985D01*
X62094706Y-98244337D01*
X62205020Y-98303302D01*
X62324718Y-98339612D01*
X62449200Y-98351872D01*
X64449200Y-98351872D01*
X64573682Y-98339612D01*
X64693380Y-98303302D01*
X64803694Y-98244337D01*
X64900385Y-98164985D01*
X64979737Y-98068294D01*
X65038702Y-97957980D01*
X65075012Y-97838282D01*
X65087272Y-97713800D01*
X65087272Y-95808800D01*
X65075012Y-95684318D01*
X65038702Y-95564620D01*
X64979737Y-95454306D01*
X64900385Y-95357615D01*
X64803694Y-95278263D01*
X64711981Y-95229241D01*
X64825169Y-95088223D01*
X64968771Y-94812394D01*
X65039763Y-94594280D01*
X64919794Y-94348300D01*
X63576200Y-94348300D01*
X63576200Y-94368300D01*
X63322200Y-94368300D01*
X63322200Y-94348300D01*
X61978606Y-94348300D01*
X61858637Y-94594280D01*
X61929629Y-94812394D01*
X62073231Y-95088223D01*
X62186419Y-95229241D01*
X62094706Y-95278263D01*
X61998015Y-95357615D01*
X61918663Y-95454306D01*
X61859698Y-95564620D01*
X61823388Y-95684318D01*
X61811128Y-95808800D01*
X56660000Y-95808800D01*
X56660000Y-94262700D01*
X74892128Y-94262700D01*
X74892128Y-96262700D01*
X74904388Y-96387182D01*
X74940698Y-96506880D01*
X74999663Y-96617194D01*
X75079015Y-96713885D01*
X75175706Y-96793237D01*
X75286020Y-96852202D01*
X75405718Y-96888512D01*
X75530200Y-96900772D01*
X77530200Y-96900772D01*
X77654682Y-96888512D01*
X77774380Y-96852202D01*
X77884694Y-96793237D01*
X77981385Y-96713885D01*
X78060737Y-96617194D01*
X78119702Y-96506880D01*
X78156012Y-96387182D01*
X78168272Y-96262700D01*
X78168272Y-94262700D01*
X78156012Y-94138218D01*
X78119702Y-94018520D01*
X78060737Y-93908206D01*
X77981385Y-93811515D01*
X77884694Y-93732163D01*
X77774380Y-93673198D01*
X77654682Y-93636888D01*
X77530200Y-93624628D01*
X75530200Y-93624628D01*
X75405718Y-93636888D01*
X75286020Y-93673198D01*
X75175706Y-93732163D01*
X75079015Y-93811515D01*
X74999663Y-93908206D01*
X74940698Y-94018520D01*
X74904388Y-94138218D01*
X74892128Y-94262700D01*
X56660000Y-94262700D01*
X56660000Y-91681300D01*
X61806519Y-91681300D01*
X61837170Y-91992504D01*
X61927945Y-92291749D01*
X62075355Y-92567535D01*
X62273737Y-92809263D01*
X62453099Y-92956463D01*
X62267885Y-93111863D01*
X62073231Y-93354377D01*
X61929629Y-93630206D01*
X61858637Y-93848320D01*
X61978606Y-94094300D01*
X63322200Y-94094300D01*
X63322200Y-94074300D01*
X63576200Y-94074300D01*
X63576200Y-94094300D01*
X64919794Y-94094300D01*
X65039763Y-93848320D01*
X64968771Y-93630206D01*
X64825169Y-93354377D01*
X64630515Y-93111863D01*
X64445301Y-92956463D01*
X64624663Y-92809263D01*
X64823045Y-92567535D01*
X64970455Y-92291749D01*
X65061230Y-91992504D01*
X65091881Y-91681300D01*
X65063990Y-91398113D01*
X75574392Y-91398113D01*
X75670156Y-91662514D01*
X75959771Y-91803404D01*
X76271308Y-91885084D01*
X76592795Y-91904418D01*
X76911875Y-91860661D01*
X77216288Y-91755495D01*
X77390244Y-91662514D01*
X77486008Y-91398113D01*
X76530200Y-90442305D01*
X75574392Y-91398113D01*
X65063990Y-91398113D01*
X65061230Y-91370096D01*
X64970455Y-91070851D01*
X64823045Y-90795065D01*
X64624663Y-90553337D01*
X64382935Y-90354955D01*
X64327445Y-90325295D01*
X74888482Y-90325295D01*
X74932239Y-90644375D01*
X75037405Y-90948788D01*
X75130386Y-91122744D01*
X75394787Y-91218508D01*
X76350595Y-90262700D01*
X76709805Y-90262700D01*
X77665613Y-91218508D01*
X77930014Y-91122744D01*
X78070904Y-90833129D01*
X78152584Y-90521592D01*
X78153100Y-90513000D01*
X85709328Y-90513000D01*
X85709328Y-92113000D01*
X85721588Y-92237482D01*
X85757898Y-92357180D01*
X85816863Y-92467494D01*
X85896215Y-92564185D01*
X85992906Y-92643537D01*
X86103220Y-92702502D01*
X86222918Y-92738812D01*
X86347400Y-92751072D01*
X87947400Y-92751072D01*
X88071882Y-92738812D01*
X88191580Y-92702502D01*
X88301894Y-92643537D01*
X88398585Y-92564185D01*
X88477937Y-92467494D01*
X88536902Y-92357180D01*
X88552517Y-92305702D01*
X88834303Y-92305702D01*
X88905886Y-92549671D01*
X89161396Y-92670571D01*
X89435584Y-92739300D01*
X89717912Y-92753217D01*
X89997530Y-92711787D01*
X90263692Y-92616603D01*
X90388914Y-92549671D01*
X90401114Y-92508090D01*
X96079624Y-92508090D01*
X96124275Y-92655299D01*
X96249459Y-92918120D01*
X96423512Y-93151469D01*
X96639745Y-93346378D01*
X96889848Y-93495357D01*
X97164209Y-93592681D01*
X97394100Y-93472014D01*
X97394100Y-92278200D01*
X97648100Y-92278200D01*
X97648100Y-93472014D01*
X97877991Y-93592681D01*
X98152352Y-93495357D01*
X98402455Y-93346378D01*
X98618688Y-93151469D01*
X98791100Y-92920320D01*
X98963512Y-93151469D01*
X99179745Y-93346378D01*
X99429848Y-93495357D01*
X99704209Y-93592681D01*
X99934100Y-93472014D01*
X99934100Y-92278200D01*
X100188100Y-92278200D01*
X100188100Y-93472014D01*
X100417991Y-93592681D01*
X100692352Y-93495357D01*
X100942455Y-93346378D01*
X101158688Y-93151469D01*
X101332741Y-92918120D01*
X101457925Y-92655299D01*
X101502576Y-92508090D01*
X101381255Y-92278200D01*
X100188100Y-92278200D01*
X99934100Y-92278200D01*
X97648100Y-92278200D01*
X97394100Y-92278200D01*
X96200945Y-92278200D01*
X96079624Y-92508090D01*
X90401114Y-92508090D01*
X90460497Y-92305702D01*
X89647400Y-91492605D01*
X88834303Y-92305702D01*
X88552517Y-92305702D01*
X88573212Y-92237482D01*
X88585472Y-92113000D01*
X88585472Y-92105785D01*
X88654698Y-92126097D01*
X89467795Y-91313000D01*
X89827005Y-91313000D01*
X90640102Y-92126097D01*
X90884071Y-92054514D01*
X91004971Y-91799004D01*
X91073700Y-91524816D01*
X91087617Y-91242488D01*
X91046187Y-90962870D01*
X90951003Y-90696708D01*
X90884071Y-90571486D01*
X90640102Y-90499903D01*
X89827005Y-91313000D01*
X89467795Y-91313000D01*
X88654698Y-90499903D01*
X88585472Y-90520215D01*
X88585472Y-90513000D01*
X88573212Y-90388518D01*
X88552518Y-90320298D01*
X88834303Y-90320298D01*
X89647400Y-91133395D01*
X90460497Y-90320298D01*
X90388914Y-90076329D01*
X90133404Y-89955429D01*
X89859216Y-89886700D01*
X89576888Y-89872783D01*
X89297270Y-89914213D01*
X89031108Y-90009397D01*
X88905886Y-90076329D01*
X88834303Y-90320298D01*
X88552518Y-90320298D01*
X88536902Y-90268820D01*
X88477937Y-90158506D01*
X88398585Y-90061815D01*
X88301894Y-89982463D01*
X88191580Y-89923498D01*
X88071882Y-89887188D01*
X87947400Y-89874928D01*
X86347400Y-89874928D01*
X86222918Y-89887188D01*
X86103220Y-89923498D01*
X85992906Y-89982463D01*
X85896215Y-90061815D01*
X85816863Y-90158506D01*
X85757898Y-90268820D01*
X85721588Y-90388518D01*
X85709328Y-90513000D01*
X78153100Y-90513000D01*
X78171918Y-90200105D01*
X78128161Y-89881025D01*
X78022995Y-89576612D01*
X77930014Y-89402656D01*
X77665613Y-89306892D01*
X76709805Y-90262700D01*
X76350595Y-90262700D01*
X75394787Y-89306892D01*
X75130386Y-89402656D01*
X74989496Y-89692271D01*
X74907816Y-90003808D01*
X74888482Y-90325295D01*
X64327445Y-90325295D01*
X64107149Y-90207545D01*
X63807904Y-90116770D01*
X63574686Y-90093800D01*
X63323714Y-90093800D01*
X63090496Y-90116770D01*
X62791251Y-90207545D01*
X62515465Y-90354955D01*
X62273737Y-90553337D01*
X62075355Y-90795065D01*
X61927945Y-91070851D01*
X61837170Y-91370096D01*
X61806519Y-91681300D01*
X56660000Y-91681300D01*
X56660000Y-90441811D01*
X56953087Y-90637645D01*
X57447523Y-90842447D01*
X57972413Y-90946854D01*
X58507587Y-90946854D01*
X59032477Y-90842447D01*
X59526913Y-90637645D01*
X59971894Y-90340319D01*
X60350319Y-89961894D01*
X60647645Y-89516913D01*
X60809033Y-89127287D01*
X75574392Y-89127287D01*
X76530200Y-90083095D01*
X77486008Y-89127287D01*
X77390244Y-88862886D01*
X77181218Y-88761200D01*
X96033028Y-88761200D01*
X96033028Y-90461200D01*
X96045288Y-90585682D01*
X96081598Y-90705380D01*
X96140563Y-90815694D01*
X96219915Y-90912385D01*
X96316606Y-90991737D01*
X96426920Y-91050702D01*
X96507566Y-91075166D01*
X96423512Y-91150931D01*
X96249459Y-91384280D01*
X96124275Y-91647101D01*
X96079624Y-91794310D01*
X96200945Y-92024200D01*
X97394100Y-92024200D01*
X97394100Y-92004200D01*
X97648100Y-92004200D01*
X97648100Y-92024200D01*
X99934100Y-92024200D01*
X99934100Y-92004200D01*
X100188100Y-92004200D01*
X100188100Y-92024200D01*
X101381255Y-92024200D01*
X101502576Y-91794310D01*
X101457925Y-91647101D01*
X101332741Y-91384280D01*
X101158688Y-91150931D01*
X100942455Y-90956022D01*
X100825566Y-90886395D01*
X101007732Y-90764675D01*
X101214575Y-90557832D01*
X101377090Y-90314611D01*
X101489032Y-90044358D01*
X101546100Y-89757460D01*
X101546100Y-89464940D01*
X101489032Y-89178042D01*
X101377090Y-88907789D01*
X101214575Y-88664568D01*
X101007732Y-88457725D01*
X100764511Y-88295210D01*
X100494258Y-88183268D01*
X100207360Y-88126200D01*
X99914840Y-88126200D01*
X99627942Y-88183268D01*
X99357689Y-88295210D01*
X99114468Y-88457725D01*
X98982613Y-88589580D01*
X98960602Y-88517020D01*
X98901637Y-88406706D01*
X98822285Y-88310015D01*
X98725594Y-88230663D01*
X98615280Y-88171698D01*
X98495582Y-88135388D01*
X98371100Y-88123128D01*
X96671100Y-88123128D01*
X96546618Y-88135388D01*
X96426920Y-88171698D01*
X96316606Y-88230663D01*
X96219915Y-88310015D01*
X96140563Y-88406706D01*
X96081598Y-88517020D01*
X96045288Y-88636718D01*
X96033028Y-88761200D01*
X77181218Y-88761200D01*
X77100629Y-88721996D01*
X76789092Y-88640316D01*
X76467605Y-88620982D01*
X76148525Y-88664739D01*
X75844112Y-88769905D01*
X75670156Y-88862886D01*
X75574392Y-89127287D01*
X60809033Y-89127287D01*
X60852447Y-89022477D01*
X60956854Y-88497587D01*
X60956854Y-87962413D01*
X60852447Y-87437523D01*
X60647645Y-86943087D01*
X60458493Y-86660000D01*
X102611353Y-86660000D01*
X102406451Y-86966657D01*
%TD*%
M02*
