M48
; DRILL file {KiCad (5.1.6)-1} date 10/30/21 11:49:31
; FORMAT={-:-/ absolute / inch / decimal}
; #@! TF.CreationDate,2021-10-30T11:49:31+03:00
; #@! TF.GenerationSoftware,Kicad,Pcbnew,(5.1.6)-1
; #@! TF.FileFunction,Plated,1,2,PTH
FMAT,2
INCH
T1C0.0315
T2C0.0354
T3C0.0394
T4C0.0433
T5C0.0630
%
G90
G05
T1
X3.6645Y-4.2275
X3.6645Y-4.6275
X3.491Y-4.2265
X3.491Y-4.6265
X3.431Y-3.595
X3.5294Y-3.595
T2
X3.9221Y-4.1185
X3.9221Y-4.217
X3.9221Y-4.3154
X3.494Y-3.8619
X3.494Y-3.9619
X3.8827Y-3.8469
X3.8827Y-3.9469
T3
X3.013Y-3.5536
X3.013Y-3.7505
X3.8394Y-4.4965
X3.8394Y-4.5965
X3.9394Y-4.4965
X3.9394Y-4.5965
X3.8394Y-3.528
X3.8394Y-3.628
X3.9394Y-3.528
X3.9394Y-3.628
T4
X2.9385Y-4.4311
X3.3385Y-4.4311
X2.9385Y-4.6039
X3.3385Y-4.6039
X2.9385Y-4.2583
X3.3385Y-4.2583
X2.498Y-3.6095
X2.498Y-3.7095
X2.498Y-3.8095
X2.9385Y-4.0855
X3.3385Y-4.0855
T5
X2.561Y-4.113
X2.561Y-4.3492
X2.746Y-4.2311
T0
M30
