%TF.GenerationSoftware,KiCad,Pcbnew,(5.1.6)-1*%
%TF.CreationDate,2021-10-30T11:54:59+03:00*%
%TF.ProjectId,POWER_SUPPLY,504f5745-525f-4535-9550-504c592e6b69,rev?*%
%TF.SameCoordinates,Original*%
%TF.FileFunction,Legend,Bot*%
%TF.FilePolarity,Positive*%
%FSLAX46Y46*%
G04 Gerber Fmt 4.6, Leading zero omitted, Abs format (unit mm)*
G04 Created by KiCad (PCBNEW (5.1.6)-1) date 2021-10-30 11:54:59*
%MOMM*%
%LPD*%
G01*
G04 APERTURE LIST*
%ADD10C,0.300000*%
%ADD11C,0.010000*%
G04 APERTURE END LIST*
D10*
X90993785Y-88199042D02*
X91136642Y-88270471D01*
X91422357Y-88270471D01*
X91565214Y-88199042D01*
X91636642Y-88056185D01*
X91636642Y-87484757D01*
X91565214Y-87341900D01*
X91422357Y-87270471D01*
X91136642Y-87270471D01*
X90993785Y-87341900D01*
X90922357Y-87484757D01*
X90922357Y-87627614D01*
X91636642Y-87770471D01*
X89636642Y-88270471D02*
X89636642Y-86770471D01*
X89636642Y-88199042D02*
X89779500Y-88270471D01*
X90065214Y-88270471D01*
X90208071Y-88199042D01*
X90279500Y-88127614D01*
X90350928Y-87984757D01*
X90350928Y-87556185D01*
X90279500Y-87413328D01*
X90208071Y-87341900D01*
X90065214Y-87270471D01*
X89779500Y-87270471D01*
X89636642Y-87341900D01*
X88922357Y-88270471D02*
X88922357Y-87270471D01*
X88922357Y-86770471D02*
X88993785Y-86841900D01*
X88922357Y-86913328D01*
X88850928Y-86841900D01*
X88922357Y-86770471D01*
X88922357Y-86913328D01*
X88279500Y-88199042D02*
X88136642Y-88270471D01*
X87850928Y-88270471D01*
X87708071Y-88199042D01*
X87636642Y-88056185D01*
X87636642Y-87984757D01*
X87708071Y-87841900D01*
X87850928Y-87770471D01*
X88065214Y-87770471D01*
X88208071Y-87699042D01*
X88279500Y-87556185D01*
X88279500Y-87484757D01*
X88208071Y-87341900D01*
X88065214Y-87270471D01*
X87850928Y-87270471D01*
X87708071Y-87341900D01*
X86779500Y-88270471D02*
X86922357Y-88199042D01*
X86993785Y-88127614D01*
X87065214Y-87984757D01*
X87065214Y-87556185D01*
X86993785Y-87413328D01*
X86922357Y-87341900D01*
X86779500Y-87270471D01*
X86565214Y-87270471D01*
X86422357Y-87341900D01*
X86350928Y-87413328D01*
X86279500Y-87556185D01*
X86279500Y-87984757D01*
X86350928Y-88127614D01*
X86422357Y-88199042D01*
X86565214Y-88270471D01*
X86779500Y-88270471D01*
X85636642Y-87270471D02*
X85636642Y-88270471D01*
X85636642Y-87413328D02*
X85565214Y-87341900D01*
X85422357Y-87270471D01*
X85208071Y-87270471D01*
X85065214Y-87341900D01*
X84993785Y-87484757D01*
X84993785Y-88270471D01*
X84279500Y-87270471D02*
X84279500Y-88270471D01*
X84279500Y-87413328D02*
X84208071Y-87341900D01*
X84065214Y-87270471D01*
X83850928Y-87270471D01*
X83708071Y-87341900D01*
X83636642Y-87484757D01*
X83636642Y-88270471D01*
X82279500Y-87270471D02*
X82279500Y-88484757D01*
X82350928Y-88627614D01*
X82422357Y-88699042D01*
X82565214Y-88770471D01*
X82779500Y-88770471D01*
X82922357Y-88699042D01*
X82279500Y-88199042D02*
X82422357Y-88270471D01*
X82708071Y-88270471D01*
X82850928Y-88199042D01*
X82922357Y-88127614D01*
X82993785Y-87984757D01*
X82993785Y-87556185D01*
X82922357Y-87413328D01*
X82850928Y-87341900D01*
X82708071Y-87270471D01*
X82422357Y-87270471D01*
X82279500Y-87341900D01*
X80922357Y-87270471D02*
X80922357Y-88270471D01*
X81565214Y-87270471D02*
X81565214Y-88056185D01*
X81493785Y-88199042D01*
X81350928Y-88270471D01*
X81136642Y-88270471D01*
X80993785Y-88199042D01*
X80922357Y-88127614D01*
X80208071Y-87270471D02*
X80208071Y-88270471D01*
X80208071Y-87413328D02*
X80136642Y-87341900D01*
X79993785Y-87270471D01*
X79779500Y-87270471D01*
X79636642Y-87341900D01*
X79565214Y-87484757D01*
X79565214Y-88270471D01*
X78850928Y-87270471D02*
X78850928Y-88556185D01*
X78922357Y-88699042D01*
X79065214Y-88770471D01*
X79136642Y-88770471D01*
X78850928Y-86770471D02*
X78922357Y-86841900D01*
X78850928Y-86913328D01*
X78779500Y-86841900D01*
X78850928Y-86770471D01*
X78850928Y-86913328D01*
X78136642Y-88270471D02*
X78136642Y-87270471D01*
X78136642Y-86770471D02*
X78208071Y-86841900D01*
X78136642Y-86913328D01*
X78065214Y-86841900D01*
X78136642Y-86770471D01*
X78136642Y-86913328D01*
X77422357Y-88270471D02*
X77422357Y-87270471D01*
X77422357Y-87556185D02*
X77350928Y-87413328D01*
X77279500Y-87341900D01*
X77136642Y-87270471D01*
X76993785Y-87270471D01*
X76493785Y-88270471D02*
X76493785Y-87270471D01*
X76493785Y-86770471D02*
X76565214Y-86841900D01*
X76493785Y-86913328D01*
X76422357Y-86841900D01*
X76493785Y-86770471D01*
X76493785Y-86913328D01*
X74850928Y-87556185D02*
X74922357Y-87484757D01*
X75065214Y-87413328D01*
X75208071Y-87413328D01*
X75350928Y-87484757D01*
X75422357Y-87556185D01*
X75493785Y-87699042D01*
X75493785Y-87841900D01*
X75422357Y-87984757D01*
X75350928Y-88056185D01*
X75208071Y-88127614D01*
X75065214Y-88127614D01*
X74922357Y-88056185D01*
X74850928Y-87984757D01*
X74850928Y-87413328D02*
X74850928Y-87984757D01*
X74779500Y-88056185D01*
X74708071Y-88056185D01*
X74565214Y-87984757D01*
X74493785Y-87841900D01*
X74493785Y-87484757D01*
X74636642Y-87270471D01*
X74850928Y-87127614D01*
X75136642Y-87056185D01*
X75422357Y-87127614D01*
X75636642Y-87270471D01*
X75779500Y-87484757D01*
X75850928Y-87770471D01*
X75779500Y-88056185D01*
X75636642Y-88270471D01*
X75422357Y-88413328D01*
X75136642Y-88484757D01*
X74850928Y-88413328D01*
X74636642Y-88270471D01*
X73208071Y-87270471D02*
X73208071Y-88484757D01*
X73279500Y-88627614D01*
X73350928Y-88699042D01*
X73493785Y-88770471D01*
X73708071Y-88770471D01*
X73850928Y-88699042D01*
X73208071Y-88199042D02*
X73350928Y-88270471D01*
X73636642Y-88270471D01*
X73779500Y-88199042D01*
X73850928Y-88127614D01*
X73922357Y-87984757D01*
X73922357Y-87556185D01*
X73850928Y-87413328D01*
X73779500Y-87341900D01*
X73636642Y-87270471D01*
X73350928Y-87270471D01*
X73208071Y-87341900D01*
X72493785Y-88270471D02*
X72493785Y-87270471D01*
X72493785Y-87413328D02*
X72422357Y-87341900D01*
X72279500Y-87270471D01*
X72065214Y-87270471D01*
X71922357Y-87341900D01*
X71850928Y-87484757D01*
X71850928Y-88270471D01*
X71850928Y-87484757D02*
X71779500Y-87341900D01*
X71636642Y-87270471D01*
X71422357Y-87270471D01*
X71279500Y-87341900D01*
X71208071Y-87484757D01*
X71208071Y-88270471D01*
X69850928Y-88270471D02*
X69850928Y-87484757D01*
X69922357Y-87341900D01*
X70065214Y-87270471D01*
X70350928Y-87270471D01*
X70493785Y-87341900D01*
X69850928Y-88199042D02*
X69993785Y-88270471D01*
X70350928Y-88270471D01*
X70493785Y-88199042D01*
X70565214Y-88056185D01*
X70565214Y-87913328D01*
X70493785Y-87770471D01*
X70350928Y-87699042D01*
X69993785Y-87699042D01*
X69850928Y-87627614D01*
X69136642Y-88270471D02*
X69136642Y-87270471D01*
X69136642Y-86770471D02*
X69208071Y-86841900D01*
X69136642Y-86913328D01*
X69065214Y-86841900D01*
X69136642Y-86770471D01*
X69136642Y-86913328D01*
X68208071Y-88270471D02*
X68350928Y-88199042D01*
X68422357Y-88056185D01*
X68422357Y-86770471D01*
X67636642Y-88127614D02*
X67565214Y-88199042D01*
X67636642Y-88270471D01*
X67708071Y-88199042D01*
X67636642Y-88127614D01*
X67636642Y-88270471D01*
X66279500Y-88199042D02*
X66422357Y-88270471D01*
X66708071Y-88270471D01*
X66850928Y-88199042D01*
X66922357Y-88127614D01*
X66993785Y-87984757D01*
X66993785Y-87556185D01*
X66922357Y-87413328D01*
X66850928Y-87341900D01*
X66708071Y-87270471D01*
X66422357Y-87270471D01*
X66279500Y-87341900D01*
X65422357Y-88270471D02*
X65565214Y-88199042D01*
X65636642Y-88127614D01*
X65708071Y-87984757D01*
X65708071Y-87556185D01*
X65636642Y-87413328D01*
X65565214Y-87341900D01*
X65422357Y-87270471D01*
X65208071Y-87270471D01*
X65065214Y-87341900D01*
X64993785Y-87413328D01*
X64922357Y-87556185D01*
X64922357Y-87984757D01*
X64993785Y-88127614D01*
X65065214Y-88199042D01*
X65208071Y-88270471D01*
X65422357Y-88270471D01*
X64279500Y-88270471D02*
X64279500Y-87270471D01*
X64279500Y-87413328D02*
X64208071Y-87341900D01*
X64065214Y-87270471D01*
X63850928Y-87270471D01*
X63708071Y-87341900D01*
X63636642Y-87484757D01*
X63636642Y-88270471D01*
X63636642Y-87484757D02*
X63565214Y-87341900D01*
X63422357Y-87270471D01*
X63208071Y-87270471D01*
X63065214Y-87341900D01*
X62993785Y-87484757D01*
X62993785Y-88270471D01*
X102854828Y-103378471D02*
X102854828Y-101878471D01*
X102497685Y-101878471D01*
X102283400Y-101949900D01*
X102140542Y-102092757D01*
X102069114Y-102235614D01*
X101997685Y-102521328D01*
X101997685Y-102735614D01*
X102069114Y-103021328D01*
X102140542Y-103164185D01*
X102283400Y-103307042D01*
X102497685Y-103378471D01*
X102854828Y-103378471D01*
X100783400Y-103307042D02*
X100926257Y-103378471D01*
X101211971Y-103378471D01*
X101354828Y-103307042D01*
X101426257Y-103164185D01*
X101426257Y-102592757D01*
X101354828Y-102449900D01*
X101211971Y-102378471D01*
X100926257Y-102378471D01*
X100783400Y-102449900D01*
X100711971Y-102592757D01*
X100711971Y-102735614D01*
X101426257Y-102878471D01*
X100140542Y-103307042D02*
X99997685Y-103378471D01*
X99711971Y-103378471D01*
X99569114Y-103307042D01*
X99497685Y-103164185D01*
X99497685Y-103092757D01*
X99569114Y-102949900D01*
X99711971Y-102878471D01*
X99926257Y-102878471D01*
X100069114Y-102807042D01*
X100140542Y-102664185D01*
X100140542Y-102592757D01*
X100069114Y-102449900D01*
X99926257Y-102378471D01*
X99711971Y-102378471D01*
X99569114Y-102449900D01*
X98854828Y-103378471D02*
X98854828Y-102378471D01*
X98854828Y-101878471D02*
X98926257Y-101949900D01*
X98854828Y-102021328D01*
X98783400Y-101949900D01*
X98854828Y-101878471D01*
X98854828Y-102021328D01*
X97497685Y-102378471D02*
X97497685Y-103592757D01*
X97569114Y-103735614D01*
X97640542Y-103807042D01*
X97783400Y-103878471D01*
X97997685Y-103878471D01*
X98140542Y-103807042D01*
X97497685Y-103307042D02*
X97640542Y-103378471D01*
X97926257Y-103378471D01*
X98069114Y-103307042D01*
X98140542Y-103235614D01*
X98211971Y-103092757D01*
X98211971Y-102664185D01*
X98140542Y-102521328D01*
X98069114Y-102449900D01*
X97926257Y-102378471D01*
X97640542Y-102378471D01*
X97497685Y-102449900D01*
X96783400Y-102378471D02*
X96783400Y-103378471D01*
X96783400Y-102521328D02*
X96711971Y-102449900D01*
X96569114Y-102378471D01*
X96354828Y-102378471D01*
X96211971Y-102449900D01*
X96140542Y-102592757D01*
X96140542Y-103378471D01*
X94854828Y-103307042D02*
X94997685Y-103378471D01*
X95283400Y-103378471D01*
X95426257Y-103307042D01*
X95497685Y-103164185D01*
X95497685Y-102592757D01*
X95426257Y-102449900D01*
X95283400Y-102378471D01*
X94997685Y-102378471D01*
X94854828Y-102449900D01*
X94783400Y-102592757D01*
X94783400Y-102735614D01*
X95497685Y-102878471D01*
X93497685Y-103378471D02*
X93497685Y-101878471D01*
X93497685Y-103307042D02*
X93640542Y-103378471D01*
X93926257Y-103378471D01*
X94069114Y-103307042D01*
X94140542Y-103235614D01*
X94211971Y-103092757D01*
X94211971Y-102664185D01*
X94140542Y-102521328D01*
X94069114Y-102449900D01*
X93926257Y-102378471D01*
X93640542Y-102378471D01*
X93497685Y-102449900D01*
X91640542Y-103378471D02*
X91640542Y-101878471D01*
X91640542Y-102449900D02*
X91497685Y-102378471D01*
X91211971Y-102378471D01*
X91069114Y-102449900D01*
X90997685Y-102521328D01*
X90926257Y-102664185D01*
X90926257Y-103092757D01*
X90997685Y-103235614D01*
X91069114Y-103307042D01*
X91211971Y-103378471D01*
X91497685Y-103378471D01*
X91640542Y-103307042D01*
X90426257Y-102378471D02*
X90069114Y-103378471D01*
X89711971Y-102378471D02*
X90069114Y-103378471D01*
X90211971Y-103735614D01*
X90283400Y-103807042D01*
X90426257Y-103878471D01*
X96033400Y-105142757D02*
X95533400Y-105142757D01*
X95319114Y-105928471D02*
X96033400Y-105928471D01*
X96033400Y-104428471D01*
X95319114Y-104428471D01*
X94033400Y-105928471D02*
X94033400Y-104428471D01*
X94033400Y-105857042D02*
X94176257Y-105928471D01*
X94461971Y-105928471D01*
X94604828Y-105857042D01*
X94676257Y-105785614D01*
X94747685Y-105642757D01*
X94747685Y-105214185D01*
X94676257Y-105071328D01*
X94604828Y-104999900D01*
X94461971Y-104928471D01*
X94176257Y-104928471D01*
X94033400Y-104999900D01*
X93319114Y-105928471D02*
X93319114Y-104928471D01*
X93319114Y-104428471D02*
X93390542Y-104499900D01*
X93319114Y-104571328D01*
X93247685Y-104499900D01*
X93319114Y-104428471D01*
X93319114Y-104571328D01*
X92676257Y-105857042D02*
X92533400Y-105928471D01*
X92247685Y-105928471D01*
X92104828Y-105857042D01*
X92033400Y-105714185D01*
X92033400Y-105642757D01*
X92104828Y-105499900D01*
X92247685Y-105428471D01*
X92461971Y-105428471D01*
X92604828Y-105357042D01*
X92676257Y-105214185D01*
X92676257Y-105142757D01*
X92604828Y-104999900D01*
X92461971Y-104928471D01*
X92247685Y-104928471D01*
X92104828Y-104999900D01*
X91176257Y-105928471D02*
X91319114Y-105857042D01*
X91390542Y-105785614D01*
X91461971Y-105642757D01*
X91461971Y-105214185D01*
X91390542Y-105071328D01*
X91319114Y-104999900D01*
X91176257Y-104928471D01*
X90961971Y-104928471D01*
X90819114Y-104999900D01*
X90747685Y-105071328D01*
X90676257Y-105214185D01*
X90676257Y-105642757D01*
X90747685Y-105785614D01*
X90819114Y-105857042D01*
X90961971Y-105928471D01*
X91176257Y-105928471D01*
X90033400Y-104928471D02*
X90033400Y-105928471D01*
X90033400Y-105071328D02*
X89961971Y-104999900D01*
X89819114Y-104928471D01*
X89604828Y-104928471D01*
X89461971Y-104999900D01*
X89390542Y-105142757D01*
X89390542Y-105928471D01*
X87533400Y-105928471D02*
X87533400Y-104428471D01*
X86676257Y-105928471D01*
X86676257Y-104428471D01*
X85319114Y-104928471D02*
X85319114Y-106142757D01*
X85390542Y-106285614D01*
X85461971Y-106357042D01*
X85604828Y-106428471D01*
X85819114Y-106428471D01*
X85961971Y-106357042D01*
X85319114Y-105857042D02*
X85461971Y-105928471D01*
X85747685Y-105928471D01*
X85890542Y-105857042D01*
X85961971Y-105785614D01*
X86033400Y-105642757D01*
X86033400Y-105214185D01*
X85961971Y-105071328D01*
X85890542Y-104999900D01*
X85747685Y-104928471D01*
X85461971Y-104928471D01*
X85319114Y-104999900D01*
X83961971Y-104928471D02*
X83961971Y-105928471D01*
X84604828Y-104928471D02*
X84604828Y-105714185D01*
X84533400Y-105857042D01*
X84390542Y-105928471D01*
X84176257Y-105928471D01*
X84033400Y-105857042D01*
X83961971Y-105785614D01*
X83247685Y-104928471D02*
X83247685Y-105928471D01*
X83247685Y-105071328D02*
X83176257Y-104999900D01*
X83033400Y-104928471D01*
X82819114Y-104928471D01*
X82676257Y-104999900D01*
X82604828Y-105142757D01*
X82604828Y-105928471D01*
X81890542Y-104928471D02*
X81890542Y-106214185D01*
X81961971Y-106357042D01*
X82104828Y-106428471D01*
X82176257Y-106428471D01*
X81890542Y-104428471D02*
X81961971Y-104499900D01*
X81890542Y-104571328D01*
X81819114Y-104499900D01*
X81890542Y-104428471D01*
X81890542Y-104571328D01*
X81176257Y-105928471D02*
X81176257Y-104928471D01*
X81176257Y-104428471D02*
X81247685Y-104499900D01*
X81176257Y-104571328D01*
X81104828Y-104499900D01*
X81176257Y-104428471D01*
X81176257Y-104571328D01*
X80461971Y-105928471D02*
X80461971Y-104928471D01*
X80461971Y-105214185D02*
X80390542Y-105071328D01*
X80319114Y-104999900D01*
X80176257Y-104928471D01*
X80033400Y-104928471D01*
X79533400Y-105928471D02*
X79533400Y-104928471D01*
X79533400Y-104428471D02*
X79604828Y-104499900D01*
X79533400Y-104571328D01*
X79461971Y-104499900D01*
X79533400Y-104428471D01*
X79533400Y-104571328D01*
D11*
%TO.C,REF\u002A\u002A*%
G36*
X69773800Y-113173354D02*
G01*
X69762935Y-113287293D01*
X69731318Y-113394916D01*
X69680415Y-113493915D01*
X69611693Y-113581984D01*
X69526619Y-113656816D01*
X69429632Y-113714684D01*
X69323364Y-113754305D01*
X69216350Y-113772873D01*
X69110700Y-113771734D01*
X69008525Y-113752230D01*
X68911934Y-113715706D01*
X68823038Y-113663505D01*
X68743946Y-113596973D01*
X68676769Y-113517452D01*
X68623617Y-113426287D01*
X68586599Y-113324823D01*
X68567827Y-113214402D01*
X68565889Y-113164506D01*
X68565889Y-113076567D01*
X68513960Y-113076567D01*
X68477653Y-113079411D01*
X68450755Y-113091211D01*
X68423649Y-113114949D01*
X68385267Y-113153331D01*
X68385267Y-115344902D01*
X68385276Y-115607039D01*
X68385308Y-115847541D01*
X68385372Y-116067348D01*
X68385476Y-116267401D01*
X68385627Y-116448644D01*
X68385834Y-116612016D01*
X68386106Y-116758460D01*
X68386450Y-116888917D01*
X68386874Y-117004329D01*
X68387387Y-117105638D01*
X68387997Y-117193784D01*
X68388712Y-117269710D01*
X68389540Y-117334357D01*
X68390489Y-117388667D01*
X68391567Y-117433580D01*
X68392783Y-117470040D01*
X68394145Y-117498987D01*
X68395661Y-117521363D01*
X68397338Y-117538109D01*
X68399186Y-117550168D01*
X68401213Y-117558480D01*
X68403425Y-117563987D01*
X68404508Y-117565837D01*
X68408671Y-117572849D01*
X68412205Y-117579296D01*
X68416035Y-117585200D01*
X68421082Y-117590586D01*
X68428271Y-117595478D01*
X68438523Y-117599898D01*
X68452764Y-117603872D01*
X68471914Y-117607421D01*
X68496899Y-117610570D01*
X68528640Y-117613342D01*
X68568062Y-117615761D01*
X68616086Y-117617851D01*
X68673637Y-117619635D01*
X68741637Y-117621137D01*
X68821010Y-117622380D01*
X68912679Y-117623389D01*
X69017566Y-117624185D01*
X69136596Y-117624794D01*
X69270690Y-117625239D01*
X69420773Y-117625543D01*
X69587767Y-117625730D01*
X69772596Y-117625824D01*
X69976183Y-117625848D01*
X70199450Y-117625825D01*
X70443322Y-117625780D01*
X70708721Y-117625737D01*
X70747104Y-117625732D01*
X71014082Y-117625689D01*
X71259402Y-117625618D01*
X71483983Y-117625513D01*
X71688745Y-117625366D01*
X71874606Y-117625169D01*
X72042488Y-117624916D01*
X72193308Y-117624600D01*
X72327987Y-117624213D01*
X72447444Y-117623747D01*
X72552599Y-117623197D01*
X72644371Y-117622553D01*
X72723679Y-117621811D01*
X72791443Y-117620961D01*
X72848582Y-117619997D01*
X72896017Y-117618911D01*
X72934666Y-117617697D01*
X72965449Y-117616347D01*
X72989285Y-117614855D01*
X73007094Y-117613211D01*
X73019795Y-117611411D01*
X73028308Y-117609445D01*
X73032666Y-117607777D01*
X73041128Y-117604206D01*
X73048897Y-117601570D01*
X73056002Y-117598934D01*
X73062473Y-117595362D01*
X73068339Y-117589921D01*
X73073629Y-117581675D01*
X73078374Y-117569690D01*
X73082602Y-117553031D01*
X73086343Y-117530763D01*
X73089627Y-117501952D01*
X73092483Y-117465663D01*
X73094940Y-117420961D01*
X73097029Y-117366911D01*
X73098778Y-117302579D01*
X73100217Y-117227030D01*
X73101376Y-117139330D01*
X73102283Y-117038543D01*
X73102969Y-116923734D01*
X73103463Y-116793970D01*
X73103795Y-116648315D01*
X73103993Y-116485835D01*
X73104087Y-116305595D01*
X73104108Y-116106660D01*
X73104085Y-115888096D01*
X73104046Y-115648968D01*
X73104022Y-115388340D01*
X73104022Y-115346189D01*
X73104036Y-115083292D01*
X73104061Y-114842032D01*
X73104071Y-114621465D01*
X73104042Y-114420652D01*
X73103948Y-114238649D01*
X73103762Y-114074516D01*
X73103459Y-113927311D01*
X73103014Y-113796092D01*
X73102434Y-113686167D01*
X72799597Y-113686167D01*
X72759807Y-113744011D01*
X72748636Y-113759779D01*
X72738566Y-113773741D01*
X72729538Y-113787084D01*
X72721497Y-113800993D01*
X72714386Y-113816656D01*
X72708147Y-113835258D01*
X72702725Y-113857986D01*
X72698062Y-113886027D01*
X72694101Y-113920567D01*
X72690785Y-113962792D01*
X72688059Y-114013889D01*
X72685864Y-114075044D01*
X72684145Y-114147444D01*
X72682844Y-114232275D01*
X72681905Y-114330722D01*
X72681270Y-114443974D01*
X72680884Y-114573216D01*
X72680688Y-114719634D01*
X72680627Y-114884416D01*
X72680643Y-115068747D01*
X72680680Y-115273813D01*
X72680689Y-115396433D01*
X72680665Y-115613382D01*
X72680631Y-115808942D01*
X72680643Y-115984299D01*
X72680758Y-116140641D01*
X72681030Y-116279157D01*
X72681518Y-116401034D01*
X72682276Y-116507460D01*
X72683362Y-116599622D01*
X72684831Y-116678709D01*
X72686740Y-116745908D01*
X72689144Y-116802407D01*
X72692101Y-116849393D01*
X72695666Y-116888055D01*
X72699895Y-116919580D01*
X72704846Y-116945155D01*
X72710573Y-116965970D01*
X72717133Y-116983211D01*
X72724583Y-116998065D01*
X72732979Y-117011722D01*
X72742376Y-117025369D01*
X72752832Y-117040193D01*
X72758923Y-117049083D01*
X72797696Y-117106700D01*
X72266132Y-117106700D01*
X72142883Y-117106665D01*
X72040387Y-117106515D01*
X71956820Y-117106178D01*
X71890356Y-117105586D01*
X71839171Y-117104667D01*
X71801441Y-117103351D01*
X71775340Y-117101569D01*
X71759044Y-117099251D01*
X71750728Y-117096326D01*
X71748568Y-117092724D01*
X71750739Y-117088375D01*
X71751935Y-117086945D01*
X71777085Y-117049873D01*
X71802983Y-116997072D01*
X71826592Y-116935070D01*
X71834861Y-116908657D01*
X71839478Y-116890716D01*
X71843379Y-116869655D01*
X71846648Y-116843389D01*
X71849366Y-116809832D01*
X71851615Y-116766899D01*
X71853477Y-116712504D01*
X71855036Y-116644562D01*
X71856372Y-116560988D01*
X71857569Y-116459695D01*
X71858708Y-116338600D01*
X71859085Y-116293900D01*
X71860102Y-116168749D01*
X71860860Y-116064382D01*
X71861303Y-115979007D01*
X71861370Y-115910833D01*
X71861005Y-115858065D01*
X71860148Y-115818914D01*
X71858741Y-115791585D01*
X71856725Y-115774286D01*
X71854043Y-115765226D01*
X71850636Y-115762612D01*
X71846444Y-115764651D01*
X71841971Y-115768967D01*
X71831616Y-115781902D01*
X71809558Y-115810976D01*
X71777357Y-115854059D01*
X71736574Y-115909018D01*
X71688770Y-115973723D01*
X71635505Y-116046042D01*
X71578340Y-116123844D01*
X71518837Y-116204998D01*
X71458555Y-116287372D01*
X71399055Y-116368836D01*
X71341898Y-116447257D01*
X71288645Y-116520504D01*
X71240857Y-116586447D01*
X71200093Y-116642954D01*
X71167916Y-116687893D01*
X71145885Y-116719134D01*
X71141317Y-116725766D01*
X71118396Y-116762669D01*
X71091588Y-116810659D01*
X71066189Y-116860197D01*
X71062968Y-116866877D01*
X71041290Y-116915072D01*
X71028704Y-116952634D01*
X71022974Y-116988460D01*
X71021856Y-117030500D01*
X71022490Y-117106700D01*
X69868051Y-117106700D01*
X69959215Y-117012969D01*
X70006012Y-116963075D01*
X70056299Y-116906595D01*
X70102344Y-116852326D01*
X70122769Y-116826973D01*
X70153207Y-116787428D01*
X70193262Y-116734216D01*
X70241761Y-116668967D01*
X70297535Y-116593311D01*
X70359411Y-116508877D01*
X70426219Y-116417294D01*
X70496787Y-116320192D01*
X70569945Y-116219201D01*
X70644521Y-116115950D01*
X70719344Y-116012068D01*
X70793243Y-115909185D01*
X70865046Y-115808931D01*
X70933584Y-115712936D01*
X70997684Y-115622827D01*
X71056175Y-115540236D01*
X71107886Y-115466792D01*
X71151647Y-115404124D01*
X71186285Y-115353861D01*
X71210630Y-115317634D01*
X71223511Y-115297071D01*
X71225269Y-115292968D01*
X71217310Y-115281642D01*
X71196515Y-115254462D01*
X71164247Y-115213129D01*
X71121870Y-115159344D01*
X71070747Y-115094806D01*
X71012241Y-115021218D01*
X70947714Y-114940278D01*
X70878531Y-114853688D01*
X70806053Y-114763148D01*
X70731646Y-114670360D01*
X70671917Y-114596002D01*
X69660911Y-114596002D01*
X69655002Y-114608959D01*
X69640672Y-114631208D01*
X69639625Y-114632691D01*
X69620838Y-114662844D01*
X69601191Y-114699675D01*
X69597292Y-114707811D01*
X69593756Y-114716240D01*
X69590630Y-114726359D01*
X69587886Y-114739560D01*
X69585492Y-114757238D01*
X69583419Y-114780784D01*
X69581635Y-114811593D01*
X69580112Y-114851057D01*
X69578819Y-114900569D01*
X69577726Y-114961523D01*
X69576803Y-115035311D01*
X69576019Y-115123328D01*
X69575345Y-115226965D01*
X69574750Y-115347616D01*
X69574205Y-115486674D01*
X69573679Y-115645532D01*
X69573145Y-115824389D01*
X69572606Y-116009507D01*
X69572172Y-116173445D01*
X69571909Y-116317603D01*
X69571884Y-116443379D01*
X69572165Y-116552171D01*
X69572819Y-116645377D01*
X69573914Y-116724397D01*
X69575518Y-116790628D01*
X69577697Y-116845470D01*
X69580519Y-116890321D01*
X69584051Y-116926578D01*
X69588361Y-116955641D01*
X69593517Y-116978909D01*
X69599585Y-116997779D01*
X69606633Y-117013651D01*
X69614729Y-117027922D01*
X69623940Y-117041991D01*
X69632440Y-117054458D01*
X69649576Y-117080752D01*
X69659722Y-117098337D01*
X69660911Y-117101557D01*
X69650004Y-117102634D01*
X69618811Y-117103635D01*
X69569623Y-117104535D01*
X69504733Y-117105310D01*
X69426430Y-117105937D01*
X69337007Y-117106391D01*
X69238756Y-117106649D01*
X69169845Y-117106700D01*
X69064852Y-117106480D01*
X68968010Y-117105848D01*
X68881507Y-117104849D01*
X68807532Y-117103527D01*
X68748274Y-117101926D01*
X68705920Y-117100091D01*
X68682660Y-117098065D01*
X68678778Y-117096793D01*
X68686476Y-117081891D01*
X68694474Y-117073860D01*
X68707646Y-117056734D01*
X68724885Y-117026483D01*
X68736807Y-117001922D01*
X68763445Y-116943011D01*
X68766520Y-115766145D01*
X68769595Y-114589278D01*
X69215253Y-114589278D01*
X69313070Y-114589442D01*
X69403464Y-114589911D01*
X69484030Y-114590647D01*
X69552362Y-114591616D01*
X69606056Y-114592780D01*
X69642705Y-114594103D01*
X69659904Y-114595549D01*
X69660911Y-114596002D01*
X70671917Y-114596002D01*
X70656670Y-114577022D01*
X70582490Y-114484837D01*
X70510469Y-114395504D01*
X70441969Y-114310724D01*
X70378355Y-114232198D01*
X70320988Y-114161626D01*
X70271233Y-114100709D01*
X70230452Y-114051147D01*
X70213288Y-114030478D01*
X70126996Y-113929816D01*
X70050397Y-113846559D01*
X69981583Y-113778738D01*
X69918648Y-113724389D01*
X69909267Y-113717022D01*
X69869756Y-113686417D01*
X71001516Y-113686167D01*
X70996227Y-113734144D01*
X70999530Y-113791488D01*
X71021061Y-113859763D01*
X71061035Y-113939512D01*
X71106343Y-114011795D01*
X71122561Y-114034440D01*
X71150614Y-114071996D01*
X71188830Y-114122321D01*
X71235537Y-114183273D01*
X71289061Y-114252711D01*
X71347731Y-114328494D01*
X71409875Y-114408480D01*
X71473821Y-114490528D01*
X71537895Y-114572496D01*
X71600427Y-114652243D01*
X71659743Y-114727627D01*
X71714171Y-114796507D01*
X71762039Y-114856742D01*
X71801675Y-114906189D01*
X71831406Y-114942708D01*
X71849561Y-114964158D01*
X71852620Y-114967456D01*
X71855479Y-114959449D01*
X71857693Y-114929155D01*
X71859257Y-114876856D01*
X71860167Y-114802831D01*
X71860420Y-114707363D01*
X71860013Y-114590734D01*
X71859104Y-114470745D01*
X71857782Y-114338633D01*
X71856257Y-114226894D01*
X71854281Y-114133325D01*
X71851606Y-114055719D01*
X71847982Y-113991874D01*
X71843161Y-113939583D01*
X71836894Y-113896644D01*
X71828932Y-113860851D01*
X71819027Y-113830000D01*
X71806931Y-113801886D01*
X71792393Y-113774305D01*
X71777711Y-113749266D01*
X71739714Y-113686167D01*
X72799597Y-113686167D01*
X73102434Y-113686167D01*
X73102401Y-113679917D01*
X73101595Y-113577844D01*
X73100570Y-113488933D01*
X73099300Y-113412241D01*
X73097760Y-113346827D01*
X73095924Y-113291749D01*
X73093767Y-113246065D01*
X73091263Y-113208834D01*
X73088387Y-113179113D01*
X73085113Y-113155962D01*
X73081415Y-113138439D01*
X73077269Y-113125601D01*
X73072647Y-113116508D01*
X73067526Y-113110218D01*
X73061878Y-113105788D01*
X73055679Y-113102278D01*
X73048904Y-113098745D01*
X73042908Y-113095176D01*
X73037675Y-113092600D01*
X73029499Y-113090272D01*
X73017286Y-113088178D01*
X72999941Y-113086307D01*
X72976369Y-113084647D01*
X72945477Y-113083184D01*
X72906168Y-113081908D01*
X72857350Y-113080804D01*
X72797927Y-113079861D01*
X72726804Y-113079067D01*
X72642888Y-113078409D01*
X72545083Y-113077875D01*
X72432294Y-113077453D01*
X72303429Y-113077129D01*
X72157391Y-113076892D01*
X71993086Y-113076730D01*
X71809420Y-113076630D01*
X71605297Y-113076580D01*
X71394153Y-113076567D01*
X69773800Y-113076567D01*
X69773800Y-113173354D01*
G37*
X69773800Y-113173354D02*
X69762935Y-113287293D01*
X69731318Y-113394916D01*
X69680415Y-113493915D01*
X69611693Y-113581984D01*
X69526619Y-113656816D01*
X69429632Y-113714684D01*
X69323364Y-113754305D01*
X69216350Y-113772873D01*
X69110700Y-113771734D01*
X69008525Y-113752230D01*
X68911934Y-113715706D01*
X68823038Y-113663505D01*
X68743946Y-113596973D01*
X68676769Y-113517452D01*
X68623617Y-113426287D01*
X68586599Y-113324823D01*
X68567827Y-113214402D01*
X68565889Y-113164506D01*
X68565889Y-113076567D01*
X68513960Y-113076567D01*
X68477653Y-113079411D01*
X68450755Y-113091211D01*
X68423649Y-113114949D01*
X68385267Y-113153331D01*
X68385267Y-115344902D01*
X68385276Y-115607039D01*
X68385308Y-115847541D01*
X68385372Y-116067348D01*
X68385476Y-116267401D01*
X68385627Y-116448644D01*
X68385834Y-116612016D01*
X68386106Y-116758460D01*
X68386450Y-116888917D01*
X68386874Y-117004329D01*
X68387387Y-117105638D01*
X68387997Y-117193784D01*
X68388712Y-117269710D01*
X68389540Y-117334357D01*
X68390489Y-117388667D01*
X68391567Y-117433580D01*
X68392783Y-117470040D01*
X68394145Y-117498987D01*
X68395661Y-117521363D01*
X68397338Y-117538109D01*
X68399186Y-117550168D01*
X68401213Y-117558480D01*
X68403425Y-117563987D01*
X68404508Y-117565837D01*
X68408671Y-117572849D01*
X68412205Y-117579296D01*
X68416035Y-117585200D01*
X68421082Y-117590586D01*
X68428271Y-117595478D01*
X68438523Y-117599898D01*
X68452764Y-117603872D01*
X68471914Y-117607421D01*
X68496899Y-117610570D01*
X68528640Y-117613342D01*
X68568062Y-117615761D01*
X68616086Y-117617851D01*
X68673637Y-117619635D01*
X68741637Y-117621137D01*
X68821010Y-117622380D01*
X68912679Y-117623389D01*
X69017566Y-117624185D01*
X69136596Y-117624794D01*
X69270690Y-117625239D01*
X69420773Y-117625543D01*
X69587767Y-117625730D01*
X69772596Y-117625824D01*
X69976183Y-117625848D01*
X70199450Y-117625825D01*
X70443322Y-117625780D01*
X70708721Y-117625737D01*
X70747104Y-117625732D01*
X71014082Y-117625689D01*
X71259402Y-117625618D01*
X71483983Y-117625513D01*
X71688745Y-117625366D01*
X71874606Y-117625169D01*
X72042488Y-117624916D01*
X72193308Y-117624600D01*
X72327987Y-117624213D01*
X72447444Y-117623747D01*
X72552599Y-117623197D01*
X72644371Y-117622553D01*
X72723679Y-117621811D01*
X72791443Y-117620961D01*
X72848582Y-117619997D01*
X72896017Y-117618911D01*
X72934666Y-117617697D01*
X72965449Y-117616347D01*
X72989285Y-117614855D01*
X73007094Y-117613211D01*
X73019795Y-117611411D01*
X73028308Y-117609445D01*
X73032666Y-117607777D01*
X73041128Y-117604206D01*
X73048897Y-117601570D01*
X73056002Y-117598934D01*
X73062473Y-117595362D01*
X73068339Y-117589921D01*
X73073629Y-117581675D01*
X73078374Y-117569690D01*
X73082602Y-117553031D01*
X73086343Y-117530763D01*
X73089627Y-117501952D01*
X73092483Y-117465663D01*
X73094940Y-117420961D01*
X73097029Y-117366911D01*
X73098778Y-117302579D01*
X73100217Y-117227030D01*
X73101376Y-117139330D01*
X73102283Y-117038543D01*
X73102969Y-116923734D01*
X73103463Y-116793970D01*
X73103795Y-116648315D01*
X73103993Y-116485835D01*
X73104087Y-116305595D01*
X73104108Y-116106660D01*
X73104085Y-115888096D01*
X73104046Y-115648968D01*
X73104022Y-115388340D01*
X73104022Y-115346189D01*
X73104036Y-115083292D01*
X73104061Y-114842032D01*
X73104071Y-114621465D01*
X73104042Y-114420652D01*
X73103948Y-114238649D01*
X73103762Y-114074516D01*
X73103459Y-113927311D01*
X73103014Y-113796092D01*
X73102434Y-113686167D01*
X72799597Y-113686167D01*
X72759807Y-113744011D01*
X72748636Y-113759779D01*
X72738566Y-113773741D01*
X72729538Y-113787084D01*
X72721497Y-113800993D01*
X72714386Y-113816656D01*
X72708147Y-113835258D01*
X72702725Y-113857986D01*
X72698062Y-113886027D01*
X72694101Y-113920567D01*
X72690785Y-113962792D01*
X72688059Y-114013889D01*
X72685864Y-114075044D01*
X72684145Y-114147444D01*
X72682844Y-114232275D01*
X72681905Y-114330722D01*
X72681270Y-114443974D01*
X72680884Y-114573216D01*
X72680688Y-114719634D01*
X72680627Y-114884416D01*
X72680643Y-115068747D01*
X72680680Y-115273813D01*
X72680689Y-115396433D01*
X72680665Y-115613382D01*
X72680631Y-115808942D01*
X72680643Y-115984299D01*
X72680758Y-116140641D01*
X72681030Y-116279157D01*
X72681518Y-116401034D01*
X72682276Y-116507460D01*
X72683362Y-116599622D01*
X72684831Y-116678709D01*
X72686740Y-116745908D01*
X72689144Y-116802407D01*
X72692101Y-116849393D01*
X72695666Y-116888055D01*
X72699895Y-116919580D01*
X72704846Y-116945155D01*
X72710573Y-116965970D01*
X72717133Y-116983211D01*
X72724583Y-116998065D01*
X72732979Y-117011722D01*
X72742376Y-117025369D01*
X72752832Y-117040193D01*
X72758923Y-117049083D01*
X72797696Y-117106700D01*
X72266132Y-117106700D01*
X72142883Y-117106665D01*
X72040387Y-117106515D01*
X71956820Y-117106178D01*
X71890356Y-117105586D01*
X71839171Y-117104667D01*
X71801441Y-117103351D01*
X71775340Y-117101569D01*
X71759044Y-117099251D01*
X71750728Y-117096326D01*
X71748568Y-117092724D01*
X71750739Y-117088375D01*
X71751935Y-117086945D01*
X71777085Y-117049873D01*
X71802983Y-116997072D01*
X71826592Y-116935070D01*
X71834861Y-116908657D01*
X71839478Y-116890716D01*
X71843379Y-116869655D01*
X71846648Y-116843389D01*
X71849366Y-116809832D01*
X71851615Y-116766899D01*
X71853477Y-116712504D01*
X71855036Y-116644562D01*
X71856372Y-116560988D01*
X71857569Y-116459695D01*
X71858708Y-116338600D01*
X71859085Y-116293900D01*
X71860102Y-116168749D01*
X71860860Y-116064382D01*
X71861303Y-115979007D01*
X71861370Y-115910833D01*
X71861005Y-115858065D01*
X71860148Y-115818914D01*
X71858741Y-115791585D01*
X71856725Y-115774286D01*
X71854043Y-115765226D01*
X71850636Y-115762612D01*
X71846444Y-115764651D01*
X71841971Y-115768967D01*
X71831616Y-115781902D01*
X71809558Y-115810976D01*
X71777357Y-115854059D01*
X71736574Y-115909018D01*
X71688770Y-115973723D01*
X71635505Y-116046042D01*
X71578340Y-116123844D01*
X71518837Y-116204998D01*
X71458555Y-116287372D01*
X71399055Y-116368836D01*
X71341898Y-116447257D01*
X71288645Y-116520504D01*
X71240857Y-116586447D01*
X71200093Y-116642954D01*
X71167916Y-116687893D01*
X71145885Y-116719134D01*
X71141317Y-116725766D01*
X71118396Y-116762669D01*
X71091588Y-116810659D01*
X71066189Y-116860197D01*
X71062968Y-116866877D01*
X71041290Y-116915072D01*
X71028704Y-116952634D01*
X71022974Y-116988460D01*
X71021856Y-117030500D01*
X71022490Y-117106700D01*
X69868051Y-117106700D01*
X69959215Y-117012969D01*
X70006012Y-116963075D01*
X70056299Y-116906595D01*
X70102344Y-116852326D01*
X70122769Y-116826973D01*
X70153207Y-116787428D01*
X70193262Y-116734216D01*
X70241761Y-116668967D01*
X70297535Y-116593311D01*
X70359411Y-116508877D01*
X70426219Y-116417294D01*
X70496787Y-116320192D01*
X70569945Y-116219201D01*
X70644521Y-116115950D01*
X70719344Y-116012068D01*
X70793243Y-115909185D01*
X70865046Y-115808931D01*
X70933584Y-115712936D01*
X70997684Y-115622827D01*
X71056175Y-115540236D01*
X71107886Y-115466792D01*
X71151647Y-115404124D01*
X71186285Y-115353861D01*
X71210630Y-115317634D01*
X71223511Y-115297071D01*
X71225269Y-115292968D01*
X71217310Y-115281642D01*
X71196515Y-115254462D01*
X71164247Y-115213129D01*
X71121870Y-115159344D01*
X71070747Y-115094806D01*
X71012241Y-115021218D01*
X70947714Y-114940278D01*
X70878531Y-114853688D01*
X70806053Y-114763148D01*
X70731646Y-114670360D01*
X70671917Y-114596002D01*
X69660911Y-114596002D01*
X69655002Y-114608959D01*
X69640672Y-114631208D01*
X69639625Y-114632691D01*
X69620838Y-114662844D01*
X69601191Y-114699675D01*
X69597292Y-114707811D01*
X69593756Y-114716240D01*
X69590630Y-114726359D01*
X69587886Y-114739560D01*
X69585492Y-114757238D01*
X69583419Y-114780784D01*
X69581635Y-114811593D01*
X69580112Y-114851057D01*
X69578819Y-114900569D01*
X69577726Y-114961523D01*
X69576803Y-115035311D01*
X69576019Y-115123328D01*
X69575345Y-115226965D01*
X69574750Y-115347616D01*
X69574205Y-115486674D01*
X69573679Y-115645532D01*
X69573145Y-115824389D01*
X69572606Y-116009507D01*
X69572172Y-116173445D01*
X69571909Y-116317603D01*
X69571884Y-116443379D01*
X69572165Y-116552171D01*
X69572819Y-116645377D01*
X69573914Y-116724397D01*
X69575518Y-116790628D01*
X69577697Y-116845470D01*
X69580519Y-116890321D01*
X69584051Y-116926578D01*
X69588361Y-116955641D01*
X69593517Y-116978909D01*
X69599585Y-116997779D01*
X69606633Y-117013651D01*
X69614729Y-117027922D01*
X69623940Y-117041991D01*
X69632440Y-117054458D01*
X69649576Y-117080752D01*
X69659722Y-117098337D01*
X69660911Y-117101557D01*
X69650004Y-117102634D01*
X69618811Y-117103635D01*
X69569623Y-117104535D01*
X69504733Y-117105310D01*
X69426430Y-117105937D01*
X69337007Y-117106391D01*
X69238756Y-117106649D01*
X69169845Y-117106700D01*
X69064852Y-117106480D01*
X68968010Y-117105848D01*
X68881507Y-117104849D01*
X68807532Y-117103527D01*
X68748274Y-117101926D01*
X68705920Y-117100091D01*
X68682660Y-117098065D01*
X68678778Y-117096793D01*
X68686476Y-117081891D01*
X68694474Y-117073860D01*
X68707646Y-117056734D01*
X68724885Y-117026483D01*
X68736807Y-117001922D01*
X68763445Y-116943011D01*
X68766520Y-115766145D01*
X68769595Y-114589278D01*
X69215253Y-114589278D01*
X69313070Y-114589442D01*
X69403464Y-114589911D01*
X69484030Y-114590647D01*
X69552362Y-114591616D01*
X69606056Y-114592780D01*
X69642705Y-114594103D01*
X69659904Y-114595549D01*
X69660911Y-114596002D01*
X70671917Y-114596002D01*
X70656670Y-114577022D01*
X70582490Y-114484837D01*
X70510469Y-114395504D01*
X70441969Y-114310724D01*
X70378355Y-114232198D01*
X70320988Y-114161626D01*
X70271233Y-114100709D01*
X70230452Y-114051147D01*
X70213288Y-114030478D01*
X70126996Y-113929816D01*
X70050397Y-113846559D01*
X69981583Y-113778738D01*
X69918648Y-113724389D01*
X69909267Y-113717022D01*
X69869756Y-113686417D01*
X71001516Y-113686167D01*
X70996227Y-113734144D01*
X70999530Y-113791488D01*
X71021061Y-113859763D01*
X71061035Y-113939512D01*
X71106343Y-114011795D01*
X71122561Y-114034440D01*
X71150614Y-114071996D01*
X71188830Y-114122321D01*
X71235537Y-114183273D01*
X71289061Y-114252711D01*
X71347731Y-114328494D01*
X71409875Y-114408480D01*
X71473821Y-114490528D01*
X71537895Y-114572496D01*
X71600427Y-114652243D01*
X71659743Y-114727627D01*
X71714171Y-114796507D01*
X71762039Y-114856742D01*
X71801675Y-114906189D01*
X71831406Y-114942708D01*
X71849561Y-114964158D01*
X71852620Y-114967456D01*
X71855479Y-114959449D01*
X71857693Y-114929155D01*
X71859257Y-114876856D01*
X71860167Y-114802831D01*
X71860420Y-114707363D01*
X71860013Y-114590734D01*
X71859104Y-114470745D01*
X71857782Y-114338633D01*
X71856257Y-114226894D01*
X71854281Y-114133325D01*
X71851606Y-114055719D01*
X71847982Y-113991874D01*
X71843161Y-113939583D01*
X71836894Y-113896644D01*
X71828932Y-113860851D01*
X71819027Y-113830000D01*
X71806931Y-113801886D01*
X71792393Y-113774305D01*
X71777711Y-113749266D01*
X71739714Y-113686167D01*
X72799597Y-113686167D01*
X73102434Y-113686167D01*
X73102401Y-113679917D01*
X73101595Y-113577844D01*
X73100570Y-113488933D01*
X73099300Y-113412241D01*
X73097760Y-113346827D01*
X73095924Y-113291749D01*
X73093767Y-113246065D01*
X73091263Y-113208834D01*
X73088387Y-113179113D01*
X73085113Y-113155962D01*
X73081415Y-113138439D01*
X73077269Y-113125601D01*
X73072647Y-113116508D01*
X73067526Y-113110218D01*
X73061878Y-113105788D01*
X73055679Y-113102278D01*
X73048904Y-113098745D01*
X73042908Y-113095176D01*
X73037675Y-113092600D01*
X73029499Y-113090272D01*
X73017286Y-113088178D01*
X72999941Y-113086307D01*
X72976369Y-113084647D01*
X72945477Y-113083184D01*
X72906168Y-113081908D01*
X72857350Y-113080804D01*
X72797927Y-113079861D01*
X72726804Y-113079067D01*
X72642888Y-113078409D01*
X72545083Y-113077875D01*
X72432294Y-113077453D01*
X72303429Y-113077129D01*
X72157391Y-113076892D01*
X71993086Y-113076730D01*
X71809420Y-113076630D01*
X71605297Y-113076580D01*
X71394153Y-113076567D01*
X69773800Y-113076567D01*
X69773800Y-113173354D01*
G36*
X66498971Y-113633371D02*
G01*
X66338830Y-113654545D01*
X66174890Y-113694685D01*
X66005087Y-113754189D01*
X65827357Y-113833454D01*
X65816090Y-113838999D01*
X65758395Y-113867025D01*
X65706848Y-113891102D01*
X65665209Y-113909549D01*
X65637238Y-113920686D01*
X65627667Y-113923233D01*
X65608450Y-113928241D01*
X65603839Y-113932447D01*
X65608942Y-113942880D01*
X65624982Y-113969168D01*
X65650112Y-114008557D01*
X65682486Y-114058291D01*
X65720257Y-114115615D01*
X65761578Y-114177776D01*
X65804602Y-114242018D01*
X65847483Y-114305585D01*
X65888374Y-114365725D01*
X65925429Y-114419680D01*
X65956800Y-114464697D01*
X65980641Y-114498021D01*
X65995106Y-114516897D01*
X65997091Y-114519087D01*
X66007209Y-114514438D01*
X66029550Y-114497262D01*
X66060120Y-114470740D01*
X66075864Y-114456264D01*
X66172353Y-114380982D01*
X66279064Y-114325541D01*
X66394568Y-114290441D01*
X66517438Y-114276180D01*
X66586839Y-114277351D01*
X66707977Y-114294512D01*
X66817195Y-114330394D01*
X66914818Y-114385259D01*
X67001172Y-114459370D01*
X67076585Y-114552988D01*
X67141382Y-114666376D01*
X67178799Y-114752967D01*
X67222652Y-114888666D01*
X67254972Y-115036150D01*
X67275843Y-115191614D01*
X67285349Y-115351256D01*
X67283573Y-115511273D01*
X67270597Y-115667861D01*
X67246506Y-115817218D01*
X67211382Y-115955540D01*
X67165308Y-116079024D01*
X67149027Y-116113278D01*
X67080780Y-116227364D01*
X67000321Y-116323857D01*
X66908830Y-116401970D01*
X66807489Y-116460917D01*
X66697480Y-116499912D01*
X66579985Y-116518168D01*
X66538517Y-116519511D01*
X66416959Y-116508590D01*
X66296522Y-116475774D01*
X66178734Y-116421739D01*
X66065123Y-116347165D01*
X65973715Y-116268839D01*
X65927185Y-116224308D01*
X65745917Y-116521571D01*
X65700820Y-116595733D01*
X65659581Y-116663946D01*
X65623665Y-116723759D01*
X65594534Y-116772720D01*
X65573650Y-116808379D01*
X65562476Y-116828284D01*
X65561025Y-116831379D01*
X65569254Y-116841018D01*
X65594833Y-116858299D01*
X65634527Y-116881583D01*
X65685103Y-116909234D01*
X65743326Y-116939615D01*
X65805963Y-116971090D01*
X65869779Y-117002022D01*
X65931540Y-117030773D01*
X65988012Y-117055708D01*
X66035962Y-117075189D01*
X66059414Y-117083618D01*
X66193179Y-117121433D01*
X66331073Y-117146436D01*
X66478778Y-117159440D01*
X66605567Y-117161768D01*
X66673522Y-117160673D01*
X66739123Y-117158575D01*
X66796553Y-117155734D01*
X66839997Y-117152406D01*
X66854102Y-117150722D01*
X66993116Y-117121887D01*
X67134643Y-117076768D01*
X67272125Y-117018050D01*
X67399006Y-116948420D01*
X67476511Y-116895741D01*
X67603919Y-116787539D01*
X67722222Y-116660971D01*
X67829228Y-116519166D01*
X67922748Y-116365251D01*
X68000590Y-116202353D01*
X68044444Y-116085056D01*
X68094692Y-115901428D01*
X68128191Y-115706881D01*
X68144951Y-115505625D01*
X68144984Y-115301868D01*
X68128299Y-115099821D01*
X68094907Y-114903692D01*
X68044820Y-114717691D01*
X68041003Y-114706103D01*
X67978119Y-114544050D01*
X67901372Y-114396132D01*
X67808158Y-114258165D01*
X67695873Y-114125961D01*
X67652008Y-114080699D01*
X67515866Y-113956757D01*
X67375909Y-113854215D01*
X67229989Y-113771956D01*
X67075958Y-113708864D01*
X66911668Y-113663823D01*
X66816111Y-113646333D01*
X66657377Y-113630766D01*
X66498971Y-113633371D01*
G37*
X66498971Y-113633371D02*
X66338830Y-113654545D01*
X66174890Y-113694685D01*
X66005087Y-113754189D01*
X65827357Y-113833454D01*
X65816090Y-113838999D01*
X65758395Y-113867025D01*
X65706848Y-113891102D01*
X65665209Y-113909549D01*
X65637238Y-113920686D01*
X65627667Y-113923233D01*
X65608450Y-113928241D01*
X65603839Y-113932447D01*
X65608942Y-113942880D01*
X65624982Y-113969168D01*
X65650112Y-114008557D01*
X65682486Y-114058291D01*
X65720257Y-114115615D01*
X65761578Y-114177776D01*
X65804602Y-114242018D01*
X65847483Y-114305585D01*
X65888374Y-114365725D01*
X65925429Y-114419680D01*
X65956800Y-114464697D01*
X65980641Y-114498021D01*
X65995106Y-114516897D01*
X65997091Y-114519087D01*
X66007209Y-114514438D01*
X66029550Y-114497262D01*
X66060120Y-114470740D01*
X66075864Y-114456264D01*
X66172353Y-114380982D01*
X66279064Y-114325541D01*
X66394568Y-114290441D01*
X66517438Y-114276180D01*
X66586839Y-114277351D01*
X66707977Y-114294512D01*
X66817195Y-114330394D01*
X66914818Y-114385259D01*
X67001172Y-114459370D01*
X67076585Y-114552988D01*
X67141382Y-114666376D01*
X67178799Y-114752967D01*
X67222652Y-114888666D01*
X67254972Y-115036150D01*
X67275843Y-115191614D01*
X67285349Y-115351256D01*
X67283573Y-115511273D01*
X67270597Y-115667861D01*
X67246506Y-115817218D01*
X67211382Y-115955540D01*
X67165308Y-116079024D01*
X67149027Y-116113278D01*
X67080780Y-116227364D01*
X67000321Y-116323857D01*
X66908830Y-116401970D01*
X66807489Y-116460917D01*
X66697480Y-116499912D01*
X66579985Y-116518168D01*
X66538517Y-116519511D01*
X66416959Y-116508590D01*
X66296522Y-116475774D01*
X66178734Y-116421739D01*
X66065123Y-116347165D01*
X65973715Y-116268839D01*
X65927185Y-116224308D01*
X65745917Y-116521571D01*
X65700820Y-116595733D01*
X65659581Y-116663946D01*
X65623665Y-116723759D01*
X65594534Y-116772720D01*
X65573650Y-116808379D01*
X65562476Y-116828284D01*
X65561025Y-116831379D01*
X65569254Y-116841018D01*
X65594833Y-116858299D01*
X65634527Y-116881583D01*
X65685103Y-116909234D01*
X65743326Y-116939615D01*
X65805963Y-116971090D01*
X65869779Y-117002022D01*
X65931540Y-117030773D01*
X65988012Y-117055708D01*
X66035962Y-117075189D01*
X66059414Y-117083618D01*
X66193179Y-117121433D01*
X66331073Y-117146436D01*
X66478778Y-117159440D01*
X66605567Y-117161768D01*
X66673522Y-117160673D01*
X66739123Y-117158575D01*
X66796553Y-117155734D01*
X66839997Y-117152406D01*
X66854102Y-117150722D01*
X66993116Y-117121887D01*
X67134643Y-117076768D01*
X67272125Y-117018050D01*
X67399006Y-116948420D01*
X67476511Y-116895741D01*
X67603919Y-116787539D01*
X67722222Y-116660971D01*
X67829228Y-116519166D01*
X67922748Y-116365251D01*
X68000590Y-116202353D01*
X68044444Y-116085056D01*
X68094692Y-115901428D01*
X68128191Y-115706881D01*
X68144951Y-115505625D01*
X68144984Y-115301868D01*
X68128299Y-115099821D01*
X68094907Y-114903692D01*
X68044820Y-114717691D01*
X68041003Y-114706103D01*
X67978119Y-114544050D01*
X67901372Y-114396132D01*
X67808158Y-114258165D01*
X67695873Y-114125961D01*
X67652008Y-114080699D01*
X67515866Y-113956757D01*
X67375909Y-113854215D01*
X67229989Y-113771956D01*
X67075958Y-113708864D01*
X66911668Y-113663823D01*
X66816111Y-113646333D01*
X66657377Y-113630766D01*
X66498971Y-113633371D01*
G36*
X64153826Y-114550852D02*
G01*
X64001908Y-114570867D01*
X63866644Y-114604502D01*
X63747161Y-114652025D01*
X63642585Y-114713705D01*
X63564976Y-114777265D01*
X63496135Y-114851399D01*
X63442394Y-114931171D01*
X63399490Y-115023391D01*
X63384016Y-115066461D01*
X63371156Y-115105442D01*
X63359954Y-115141589D01*
X63350280Y-115176734D01*
X63342004Y-115212710D01*
X63334997Y-115251350D01*
X63329128Y-115294485D01*
X63324269Y-115343949D01*
X63320290Y-115401573D01*
X63317060Y-115469191D01*
X63314451Y-115548634D01*
X63312333Y-115641736D01*
X63310576Y-115750327D01*
X63309051Y-115876242D01*
X63307628Y-116021312D01*
X63306375Y-116164078D01*
X63305049Y-116320268D01*
X63303844Y-116455539D01*
X63302634Y-116571546D01*
X63301294Y-116669945D01*
X63299700Y-116752393D01*
X63297725Y-116820546D01*
X63295244Y-116876060D01*
X63292131Y-116920592D01*
X63288262Y-116955798D01*
X63283511Y-116983334D01*
X63277752Y-117004856D01*
X63270861Y-117022022D01*
X63262711Y-117036486D01*
X63253177Y-117049906D01*
X63242134Y-117063938D01*
X63237834Y-117069371D01*
X63222014Y-117092210D01*
X63214978Y-117107763D01*
X63214956Y-117108222D01*
X63225833Y-117110421D01*
X63256818Y-117112447D01*
X63305443Y-117114242D01*
X63369237Y-117115751D01*
X63445731Y-117116916D01*
X63532456Y-117117680D01*
X63626943Y-117117986D01*
X63637850Y-117117989D01*
X64060743Y-117117989D01*
X64064005Y-117021922D01*
X64067267Y-116925856D01*
X64129356Y-116976843D01*
X64226686Y-117044357D01*
X64336587Y-117099049D01*
X64423051Y-117129278D01*
X64492122Y-117143966D01*
X64575475Y-117153959D01*
X64665241Y-117158946D01*
X64753555Y-117158613D01*
X64832549Y-117152651D01*
X64868778Y-117146938D01*
X65008797Y-117109076D01*
X65135222Y-117054232D01*
X65247140Y-116983224D01*
X65343638Y-116896868D01*
X65423800Y-116795979D01*
X65486713Y-116681376D01*
X65531088Y-116555284D01*
X65543422Y-116498701D01*
X65551032Y-116436502D01*
X65554661Y-116361663D01*
X65555155Y-116327767D01*
X65555090Y-116324582D01*
X64795152Y-116324582D01*
X64785859Y-116399633D01*
X64757672Y-116463460D01*
X64709203Y-116519098D01*
X64704146Y-116523511D01*
X64655852Y-116558337D01*
X64604143Y-116580920D01*
X64543411Y-116592840D01*
X64468048Y-116595683D01*
X64449941Y-116595278D01*
X64396122Y-116592625D01*
X64356092Y-116587209D01*
X64321076Y-116577045D01*
X64282297Y-116560150D01*
X64271655Y-116554972D01*
X64211004Y-116519144D01*
X64164185Y-116476512D01*
X64151448Y-116461273D01*
X64106778Y-116404762D01*
X64106778Y-116208886D01*
X64107314Y-116130239D01*
X64109004Y-116072288D01*
X64111972Y-116033175D01*
X64116343Y-116011041D01*
X64120428Y-116004574D01*
X64136353Y-116001411D01*
X64170136Y-115998788D01*
X64217060Y-115996955D01*
X64272407Y-115996157D01*
X64281294Y-115996142D01*
X64402070Y-116001396D01*
X64504740Y-116017563D01*
X64591294Y-116045261D01*
X64663719Y-116085108D01*
X64718649Y-116132058D01*
X64763196Y-116189945D01*
X64787920Y-116252993D01*
X64795152Y-116324582D01*
X65555090Y-116324582D01*
X65553222Y-116234012D01*
X65544878Y-116155112D01*
X65528632Y-116083890D01*
X65502995Y-116013164D01*
X65478999Y-115960793D01*
X65420380Y-115865496D01*
X65342283Y-115777470D01*
X65247085Y-115698317D01*
X65137162Y-115629640D01*
X65014890Y-115573041D01*
X64882645Y-115530121D01*
X64817978Y-115515182D01*
X64681796Y-115493077D01*
X64533351Y-115478494D01*
X64381895Y-115472113D01*
X64255336Y-115473745D01*
X64093450Y-115480524D01*
X64100870Y-115421545D01*
X64120162Y-115322392D01*
X64151296Y-115241672D01*
X64195131Y-115178766D01*
X64252529Y-115133056D01*
X64324352Y-115103922D01*
X64411459Y-115090747D01*
X64514714Y-115092911D01*
X64552689Y-115096912D01*
X64693880Y-115122080D01*
X64830693Y-115163114D01*
X64925222Y-115201115D01*
X64970382Y-115220490D01*
X65008815Y-115236060D01*
X65035166Y-115245705D01*
X65042854Y-115247752D01*
X65052598Y-115238674D01*
X65069317Y-115209705D01*
X65093168Y-115160517D01*
X65124307Y-115090784D01*
X65162893Y-115000179D01*
X65169490Y-114984389D01*
X65199547Y-114912072D01*
X65226526Y-114846725D01*
X65249264Y-114791206D01*
X65266594Y-114748372D01*
X65277352Y-114721081D01*
X65280459Y-114712242D01*
X65270460Y-114707487D01*
X65244183Y-114702210D01*
X65215911Y-114698531D01*
X65185754Y-114693774D01*
X65137967Y-114684328D01*
X65076788Y-114671120D01*
X65006454Y-114655076D01*
X64931206Y-114637120D01*
X64902645Y-114630097D01*
X64797584Y-114604509D01*
X64709920Y-114584447D01*
X64635332Y-114569269D01*
X64569497Y-114558335D01*
X64508093Y-114551004D01*
X64446798Y-114546635D01*
X64381290Y-114544587D01*
X64323272Y-114544189D01*
X64153826Y-114550852D01*
G37*
X64153826Y-114550852D02*
X64001908Y-114570867D01*
X63866644Y-114604502D01*
X63747161Y-114652025D01*
X63642585Y-114713705D01*
X63564976Y-114777265D01*
X63496135Y-114851399D01*
X63442394Y-114931171D01*
X63399490Y-115023391D01*
X63384016Y-115066461D01*
X63371156Y-115105442D01*
X63359954Y-115141589D01*
X63350280Y-115176734D01*
X63342004Y-115212710D01*
X63334997Y-115251350D01*
X63329128Y-115294485D01*
X63324269Y-115343949D01*
X63320290Y-115401573D01*
X63317060Y-115469191D01*
X63314451Y-115548634D01*
X63312333Y-115641736D01*
X63310576Y-115750327D01*
X63309051Y-115876242D01*
X63307628Y-116021312D01*
X63306375Y-116164078D01*
X63305049Y-116320268D01*
X63303844Y-116455539D01*
X63302634Y-116571546D01*
X63301294Y-116669945D01*
X63299700Y-116752393D01*
X63297725Y-116820546D01*
X63295244Y-116876060D01*
X63292131Y-116920592D01*
X63288262Y-116955798D01*
X63283511Y-116983334D01*
X63277752Y-117004856D01*
X63270861Y-117022022D01*
X63262711Y-117036486D01*
X63253177Y-117049906D01*
X63242134Y-117063938D01*
X63237834Y-117069371D01*
X63222014Y-117092210D01*
X63214978Y-117107763D01*
X63214956Y-117108222D01*
X63225833Y-117110421D01*
X63256818Y-117112447D01*
X63305443Y-117114242D01*
X63369237Y-117115751D01*
X63445731Y-117116916D01*
X63532456Y-117117680D01*
X63626943Y-117117986D01*
X63637850Y-117117989D01*
X64060743Y-117117989D01*
X64064005Y-117021922D01*
X64067267Y-116925856D01*
X64129356Y-116976843D01*
X64226686Y-117044357D01*
X64336587Y-117099049D01*
X64423051Y-117129278D01*
X64492122Y-117143966D01*
X64575475Y-117153959D01*
X64665241Y-117158946D01*
X64753555Y-117158613D01*
X64832549Y-117152651D01*
X64868778Y-117146938D01*
X65008797Y-117109076D01*
X65135222Y-117054232D01*
X65247140Y-116983224D01*
X65343638Y-116896868D01*
X65423800Y-116795979D01*
X65486713Y-116681376D01*
X65531088Y-116555284D01*
X65543422Y-116498701D01*
X65551032Y-116436502D01*
X65554661Y-116361663D01*
X65555155Y-116327767D01*
X65555090Y-116324582D01*
X64795152Y-116324582D01*
X64785859Y-116399633D01*
X64757672Y-116463460D01*
X64709203Y-116519098D01*
X64704146Y-116523511D01*
X64655852Y-116558337D01*
X64604143Y-116580920D01*
X64543411Y-116592840D01*
X64468048Y-116595683D01*
X64449941Y-116595278D01*
X64396122Y-116592625D01*
X64356092Y-116587209D01*
X64321076Y-116577045D01*
X64282297Y-116560150D01*
X64271655Y-116554972D01*
X64211004Y-116519144D01*
X64164185Y-116476512D01*
X64151448Y-116461273D01*
X64106778Y-116404762D01*
X64106778Y-116208886D01*
X64107314Y-116130239D01*
X64109004Y-116072288D01*
X64111972Y-116033175D01*
X64116343Y-116011041D01*
X64120428Y-116004574D01*
X64136353Y-116001411D01*
X64170136Y-115998788D01*
X64217060Y-115996955D01*
X64272407Y-115996157D01*
X64281294Y-115996142D01*
X64402070Y-116001396D01*
X64504740Y-116017563D01*
X64591294Y-116045261D01*
X64663719Y-116085108D01*
X64718649Y-116132058D01*
X64763196Y-116189945D01*
X64787920Y-116252993D01*
X64795152Y-116324582D01*
X65555090Y-116324582D01*
X65553222Y-116234012D01*
X65544878Y-116155112D01*
X65528632Y-116083890D01*
X65502995Y-116013164D01*
X65478999Y-115960793D01*
X65420380Y-115865496D01*
X65342283Y-115777470D01*
X65247085Y-115698317D01*
X65137162Y-115629640D01*
X65014890Y-115573041D01*
X64882645Y-115530121D01*
X64817978Y-115515182D01*
X64681796Y-115493077D01*
X64533351Y-115478494D01*
X64381895Y-115472113D01*
X64255336Y-115473745D01*
X64093450Y-115480524D01*
X64100870Y-115421545D01*
X64120162Y-115322392D01*
X64151296Y-115241672D01*
X64195131Y-115178766D01*
X64252529Y-115133056D01*
X64324352Y-115103922D01*
X64411459Y-115090747D01*
X64514714Y-115092911D01*
X64552689Y-115096912D01*
X64693880Y-115122080D01*
X64830693Y-115163114D01*
X64925222Y-115201115D01*
X64970382Y-115220490D01*
X65008815Y-115236060D01*
X65035166Y-115245705D01*
X65042854Y-115247752D01*
X65052598Y-115238674D01*
X65069317Y-115209705D01*
X65093168Y-115160517D01*
X65124307Y-115090784D01*
X65162893Y-115000179D01*
X65169490Y-114984389D01*
X65199547Y-114912072D01*
X65226526Y-114846725D01*
X65249264Y-114791206D01*
X65266594Y-114748372D01*
X65277352Y-114721081D01*
X65280459Y-114712242D01*
X65270460Y-114707487D01*
X65244183Y-114702210D01*
X65215911Y-114698531D01*
X65185754Y-114693774D01*
X65137967Y-114684328D01*
X65076788Y-114671120D01*
X65006454Y-114655076D01*
X64931206Y-114637120D01*
X64902645Y-114630097D01*
X64797584Y-114604509D01*
X64709920Y-114584447D01*
X64635332Y-114569269D01*
X64569497Y-114558335D01*
X64508093Y-114551004D01*
X64446798Y-114546635D01*
X64381290Y-114544587D01*
X64323272Y-114544189D01*
X64153826Y-114550852D01*
G36*
X60640893Y-115156545D02*
G01*
X60640874Y-115390962D01*
X60640848Y-115603903D01*
X60640775Y-115796468D01*
X60640618Y-115969759D01*
X60640336Y-116124876D01*
X60639891Y-116262920D01*
X60639244Y-116384992D01*
X60638355Y-116492194D01*
X60637187Y-116585626D01*
X60635699Y-116666390D01*
X60633854Y-116735586D01*
X60631611Y-116794315D01*
X60628931Y-116843679D01*
X60625777Y-116884778D01*
X60622108Y-116918713D01*
X60617887Y-116946586D01*
X60613073Y-116969498D01*
X60607627Y-116988549D01*
X60601512Y-117004840D01*
X60594688Y-117019473D01*
X60587115Y-117033549D01*
X60578755Y-117048168D01*
X60573561Y-117057274D01*
X60539296Y-117117989D01*
X61397445Y-117117989D01*
X61397445Y-117022033D01*
X61398176Y-116978670D01*
X61400128Y-116945505D01*
X61402937Y-116927724D01*
X61404179Y-116926078D01*
X61415601Y-116932962D01*
X61438316Y-116950805D01*
X61461015Y-116970179D01*
X61515600Y-117010914D01*
X61585079Y-117051917D01*
X61662130Y-117089423D01*
X61739435Y-117119664D01*
X61770287Y-117129312D01*
X61838784Y-117143878D01*
X61921636Y-117153839D01*
X62011029Y-117158883D01*
X62099152Y-117158696D01*
X62178193Y-117152966D01*
X62215889Y-117147158D01*
X62353986Y-117109097D01*
X62481287Y-117051373D01*
X62597108Y-116974511D01*
X62700763Y-116879039D01*
X62791567Y-116765479D01*
X62858369Y-116654681D01*
X62913236Y-116537925D01*
X62955237Y-116418576D01*
X62985233Y-116292583D01*
X63004089Y-116155894D01*
X63012668Y-116004458D01*
X63013394Y-115927011D01*
X63011300Y-115870234D01*
X62182183Y-115870234D01*
X62181976Y-115963302D01*
X62179063Y-116050992D01*
X62173400Y-116128072D01*
X62164945Y-116189309D01*
X62162362Y-116201650D01*
X62130560Y-116308933D01*
X62088902Y-116395958D01*
X62037037Y-116462942D01*
X61974619Y-116510105D01*
X61901300Y-116537665D01*
X61816731Y-116545841D01*
X61720565Y-116534851D01*
X61657089Y-116519129D01*
X61607946Y-116500939D01*
X61553817Y-116475091D01*
X61513156Y-116451389D01*
X61442600Y-116405021D01*
X61442600Y-115254830D01*
X61510008Y-115211262D01*
X61588533Y-115170340D01*
X61672719Y-115143689D01*
X61757843Y-115131765D01*
X61839184Y-115135022D01*
X61912020Y-115153915D01*
X61943974Y-115169484D01*
X62001899Y-115212481D01*
X62050856Y-115269253D01*
X62092010Y-115341875D01*
X62126526Y-115432421D01*
X62155567Y-115542966D01*
X62156848Y-115548833D01*
X62167019Y-115611088D01*
X62174661Y-115688894D01*
X62179730Y-115777020D01*
X62182183Y-115870234D01*
X63011300Y-115870234D01*
X63005543Y-115714195D01*
X62983598Y-115518359D01*
X62947614Y-115339632D01*
X62897641Y-115178145D01*
X62833732Y-115034026D01*
X62755938Y-114907406D01*
X62664311Y-114798415D01*
X62558903Y-114707183D01*
X62513738Y-114676232D01*
X62412789Y-114620085D01*
X62309499Y-114580474D01*
X62199411Y-114556314D01*
X62078070Y-114546519D01*
X61985564Y-114547565D01*
X61855910Y-114558531D01*
X61743316Y-114580346D01*
X61644525Y-114614014D01*
X61556279Y-114660536D01*
X61507414Y-114694748D01*
X61478047Y-114716662D01*
X61456357Y-114731633D01*
X61448147Y-114736033D01*
X61446532Y-114725204D01*
X61445241Y-114694551D01*
X61444262Y-114646826D01*
X61443583Y-114584779D01*
X61443190Y-114511162D01*
X61443070Y-114428727D01*
X61443212Y-114340225D01*
X61443603Y-114248407D01*
X61444229Y-114156024D01*
X61445080Y-114065828D01*
X61446140Y-113980571D01*
X61447399Y-113903003D01*
X61448844Y-113835876D01*
X61450462Y-113781941D01*
X61452239Y-113743950D01*
X61452731Y-113736967D01*
X61460308Y-113666551D01*
X61471869Y-113611402D01*
X61489608Y-113564281D01*
X61515718Y-113517947D01*
X61521985Y-113508367D01*
X61546417Y-113471678D01*
X60641089Y-113471678D01*
X60640893Y-115156545D01*
G37*
X60640893Y-115156545D02*
X60640874Y-115390962D01*
X60640848Y-115603903D01*
X60640775Y-115796468D01*
X60640618Y-115969759D01*
X60640336Y-116124876D01*
X60639891Y-116262920D01*
X60639244Y-116384992D01*
X60638355Y-116492194D01*
X60637187Y-116585626D01*
X60635699Y-116666390D01*
X60633854Y-116735586D01*
X60631611Y-116794315D01*
X60628931Y-116843679D01*
X60625777Y-116884778D01*
X60622108Y-116918713D01*
X60617887Y-116946586D01*
X60613073Y-116969498D01*
X60607627Y-116988549D01*
X60601512Y-117004840D01*
X60594688Y-117019473D01*
X60587115Y-117033549D01*
X60578755Y-117048168D01*
X60573561Y-117057274D01*
X60539296Y-117117989D01*
X61397445Y-117117989D01*
X61397445Y-117022033D01*
X61398176Y-116978670D01*
X61400128Y-116945505D01*
X61402937Y-116927724D01*
X61404179Y-116926078D01*
X61415601Y-116932962D01*
X61438316Y-116950805D01*
X61461015Y-116970179D01*
X61515600Y-117010914D01*
X61585079Y-117051917D01*
X61662130Y-117089423D01*
X61739435Y-117119664D01*
X61770287Y-117129312D01*
X61838784Y-117143878D01*
X61921636Y-117153839D01*
X62011029Y-117158883D01*
X62099152Y-117158696D01*
X62178193Y-117152966D01*
X62215889Y-117147158D01*
X62353986Y-117109097D01*
X62481287Y-117051373D01*
X62597108Y-116974511D01*
X62700763Y-116879039D01*
X62791567Y-116765479D01*
X62858369Y-116654681D01*
X62913236Y-116537925D01*
X62955237Y-116418576D01*
X62985233Y-116292583D01*
X63004089Y-116155894D01*
X63012668Y-116004458D01*
X63013394Y-115927011D01*
X63011300Y-115870234D01*
X62182183Y-115870234D01*
X62181976Y-115963302D01*
X62179063Y-116050992D01*
X62173400Y-116128072D01*
X62164945Y-116189309D01*
X62162362Y-116201650D01*
X62130560Y-116308933D01*
X62088902Y-116395958D01*
X62037037Y-116462942D01*
X61974619Y-116510105D01*
X61901300Y-116537665D01*
X61816731Y-116545841D01*
X61720565Y-116534851D01*
X61657089Y-116519129D01*
X61607946Y-116500939D01*
X61553817Y-116475091D01*
X61513156Y-116451389D01*
X61442600Y-116405021D01*
X61442600Y-115254830D01*
X61510008Y-115211262D01*
X61588533Y-115170340D01*
X61672719Y-115143689D01*
X61757843Y-115131765D01*
X61839184Y-115135022D01*
X61912020Y-115153915D01*
X61943974Y-115169484D01*
X62001899Y-115212481D01*
X62050856Y-115269253D01*
X62092010Y-115341875D01*
X62126526Y-115432421D01*
X62155567Y-115542966D01*
X62156848Y-115548833D01*
X62167019Y-115611088D01*
X62174661Y-115688894D01*
X62179730Y-115777020D01*
X62182183Y-115870234D01*
X63011300Y-115870234D01*
X63005543Y-115714195D01*
X62983598Y-115518359D01*
X62947614Y-115339632D01*
X62897641Y-115178145D01*
X62833732Y-115034026D01*
X62755938Y-114907406D01*
X62664311Y-114798415D01*
X62558903Y-114707183D01*
X62513738Y-114676232D01*
X62412789Y-114620085D01*
X62309499Y-114580474D01*
X62199411Y-114556314D01*
X62078070Y-114546519D01*
X61985564Y-114547565D01*
X61855910Y-114558531D01*
X61743316Y-114580346D01*
X61644525Y-114614014D01*
X61556279Y-114660536D01*
X61507414Y-114694748D01*
X61478047Y-114716662D01*
X61456357Y-114731633D01*
X61448147Y-114736033D01*
X61446532Y-114725204D01*
X61445241Y-114694551D01*
X61444262Y-114646826D01*
X61443583Y-114584779D01*
X61443190Y-114511162D01*
X61443070Y-114428727D01*
X61443212Y-114340225D01*
X61443603Y-114248407D01*
X61444229Y-114156024D01*
X61445080Y-114065828D01*
X61446140Y-113980571D01*
X61447399Y-113903003D01*
X61448844Y-113835876D01*
X61450462Y-113781941D01*
X61452239Y-113743950D01*
X61452731Y-113736967D01*
X61460308Y-113666551D01*
X61471869Y-113611402D01*
X61489608Y-113564281D01*
X61515718Y-113517947D01*
X61521985Y-113508367D01*
X61546417Y-113471678D01*
X60641089Y-113471678D01*
X60640893Y-115156545D01*
G36*
X69100443Y-112710871D02*
G01*
X69004168Y-112735109D01*
X68917584Y-112777941D01*
X68842773Y-112837719D01*
X68781818Y-112912794D01*
X68736799Y-113001520D01*
X68710536Y-113097830D01*
X68704686Y-113195095D01*
X68719540Y-113288954D01*
X68753240Y-113376811D01*
X68803928Y-113456070D01*
X68869745Y-113524136D01*
X68948834Y-113578412D01*
X69039334Y-113616302D01*
X69090600Y-113628726D01*
X69135098Y-113636247D01*
X69169399Y-113639219D01*
X69202360Y-113637394D01*
X69242834Y-113630525D01*
X69275931Y-113623550D01*
X69369347Y-113592041D01*
X69453019Y-113540917D01*
X69525065Y-113471729D01*
X69583600Y-113386028D01*
X69597548Y-113358789D01*
X69613986Y-113322422D01*
X69624294Y-113291882D01*
X69629860Y-113259750D01*
X69632069Y-113218607D01*
X69632348Y-113172522D01*
X69628261Y-113088165D01*
X69614846Y-113018886D01*
X69589656Y-112958261D01*
X69550246Y-112899867D01*
X69511698Y-112855602D01*
X69439806Y-112789784D01*
X69364713Y-112744353D01*
X69281962Y-112717150D01*
X69204328Y-112706876D01*
X69100443Y-112710871D01*
G37*
X69100443Y-112710871D02*
X69004168Y-112735109D01*
X68917584Y-112777941D01*
X68842773Y-112837719D01*
X68781818Y-112912794D01*
X68736799Y-113001520D01*
X68710536Y-113097830D01*
X68704686Y-113195095D01*
X68719540Y-113288954D01*
X68753240Y-113376811D01*
X68803928Y-113456070D01*
X68869745Y-113524136D01*
X68948834Y-113578412D01*
X69039334Y-113616302D01*
X69090600Y-113628726D01*
X69135098Y-113636247D01*
X69169399Y-113639219D01*
X69202360Y-113637394D01*
X69242834Y-113630525D01*
X69275931Y-113623550D01*
X69369347Y-113592041D01*
X69453019Y-113540917D01*
X69525065Y-113471729D01*
X69583600Y-113386028D01*
X69597548Y-113358789D01*
X69613986Y-113322422D01*
X69624294Y-113291882D01*
X69629860Y-113259750D01*
X69632069Y-113218607D01*
X69632348Y-113172522D01*
X69628261Y-113088165D01*
X69614846Y-113018886D01*
X69589656Y-112958261D01*
X69550246Y-112899867D01*
X69511698Y-112855602D01*
X69439806Y-112789784D01*
X69364713Y-112744353D01*
X69281962Y-112717150D01*
X69204328Y-112706876D01*
X69100443Y-112710871D01*
%TD*%
M02*
